Pinyon Script.ufo
<glyph name="numbersign" format="1">
  <advance width="1324"/>
  <unicode hex="0023"/>
  <outline>
    <contour>
      <point x="0" y="22" type="line" name="hr00"/>
      <point x="18" y="23"/>
      <point x="33" y="24"/>
      <point x="45" y="24" type="curve" smooth="yes"/>
      <point x="54" y="24"/>
      <point x="65" y="23"/>
      <point x="70" y="22" type="curve"/>
      <point x="433" y="531" type="line"/>
      <point x="654" y="531" type="line"/>
      <point x="291" y="22" type="line"/>
      <point x="311" y="23"/>
      <point x="324" y="24"/>
      <point x="336" y="24" type="curve" smooth="yes"/>
      <point x="347" y="24"/>
      <point x="356" y="23"/>
      <point x="363" y="22" type="curve"/>
      <point x="725" y="531" type="line"/>
      <point x="942" y="531" type="line"/>
      <point x="947" y="549"/>
      <point x="956" y="563"/>
      <point x="971" y="584" type="curve"/>
      <point x="763" y="584" type="line"/>
      <point x="933" y="823" type="line"/>
      <point x="1122" y="823" type="line"/>
      <point x="1126" y="841"/>
      <point x="1136" y="856"/>
      <point x="1151" y="876" type="curve"/>
      <point x="971" y="876" type="line"/>
      <point x="1324" y="1371" type="line"/>
      <point x="1320" y="1370"/>
      <point x="1299" y="1368"/>
      <point x="1289" y="1368" type="curve" smooth="yes"/>
      <point x="1279" y="1368"/>
      <point x="1264" y="1370"/>
      <point x="1255" y="1373" type="curve"/>
      <point x="900" y="876" type="line"/>
      <point x="679" y="876" type="line"/>
      <point x="1032" y="1371" type="line"/>
      <point x="1028" y="1370"/>
      <point x="1008" y="1368"/>
      <point x="995" y="1368" type="curve" smooth="yes"/>
      <point x="986" y="1368"/>
      <point x="972" y="1370"/>
      <point x="963" y="1373" type="curve"/>
      <point x="609" y="876" type="line"/>
      <point x="393" y="876" type="line"/>
      <point x="381" y="857"/>
      <point x="370" y="845"/>
      <point x="352" y="823" type="curve"/>
      <point x="571" y="823" type="line"/>
      <point x="401" y="584" type="line"/>
      <point x="212" y="584" type="line"/>
      <point x="201" y="564"/>
      <point x="191" y="552"/>
      <point x="172" y="531" type="curve"/>
      <point x="363" y="531" type="line"/>
    </contour>
    <contour>
      <point x="471" y="584" type="line"/>
      <point x="641" y="823" type="line"/>
      <point x="862" y="823" type="line"/>
      <point x="692" y="584" type="line"/>
    </contour>
  </outline>
</glyph>
<glyph name="percent" format="1">
  <advance width="1045"/>
  <unicode hex="0025"/>
  <outline>
    <contour>
      <point x="0" y="-5" type="line"/>
      <point x="19" y="-3"/>
      <point x="26" y="-2"/>
      <point x="38" y="-2" type="curve" smooth="yes"/>
      <point x="48" y="-2"/>
      <point x="58" y="-3"/>
      <point x="65" y="-5" type="curve"/>
      <point x="1045" y="1371" type="line"/>
      <point x="1041" y="1370"/>
      <point x="1020" y="1368"/>
      <point x="1010" y="1368" type="curve" smooth="yes"/>
      <point x="1000" y="1368"/>
      <point x="992" y="1370"/>
      <point x="983" y="1373" type="curve"/>
    </contour>
    <contour>
      <point x="588" y="-2" type="curve" smooth="yes"/>
      <point x="795" y="-2"/>
      <point x="1026" y="243"/>
      <point x="1026" y="437" type="curve" smooth="yes"/>
      <point x="1026" y="503"/>
      <point x="983" y="552"/>
      <point x="905" y="552" type="curve" smooth="yes"/>
      <point x="681" y="552"/>
      <point x="440" y="283"/>
      <point x="440" y="131" type="curve" smooth="yes"/>
      <point x="440" y="70"/>
      <point x="483" y="-2"/>
    </contour>
    <contour>
      <point x="618" y="28" type="curve" smooth="yes"/>
      <point x="569" y="28"/>
      <point x="548" y="49"/>
      <point x="548" y="93" type="curve" smooth="yes"/>
      <point x="548" y="149"/>
      <point x="586" y="231"/>
      <point x="657" y="315" type="curve"/>
      <point x="790" y="469"/>
      <point x="881" y="514"/>
      <point x="933" y="514" type="curve" smooth="yes"/>
      <point x="969" y="514"/>
      <point x="995" y="491"/>
      <point x="995" y="432" type="curve" smooth="yes"/>
      <point x="995" y="260"/>
      <point x="770" y="28"/>
    </contour>
    <contour>
      <point x="202" y="830" type="curve" smooth="yes" name="hr00"/>
      <point x="409" y="830"/>
      <point x="640" y="1075"/>
      <point x="640" y="1270" type="curve" smooth="yes"/>
      <point x="640" y="1336"/>
      <point x="597" y="1384"/>
      <point x="519" y="1384" type="curve" smooth="yes"/>
      <point x="294" y="1384"/>
      <point x="55" y="1116"/>
      <point x="55" y="963" type="curve" smooth="yes"/>
      <point x="55" y="902"/>
      <point x="97" y="830"/>
    </contour>
    <contour>
      <point x="231" y="862" type="curve" smooth="yes"/>
      <point x="184" y="862"/>
      <point x="163" y="882"/>
      <point x="163" y="928" type="curve" smooth="yes"/>
      <point x="163" y="983"/>
      <point x="200" y="1076"/>
      <point x="271" y="1159" type="curve" smooth="yes"/>
      <point x="404" y="1313"/>
      <point x="496" y="1347"/>
      <point x="546" y="1347" type="curve" smooth="yes"/>
      <point x="583" y="1347"/>
      <point x="610" y="1325"/>
      <point x="610" y="1265" type="curve" smooth="yes"/>
      <point x="610" y="1091"/>
      <point x="384" y="862"/>
    </contour>
  </outline>
</glyph>
<glyph name="ampersand" format="1">
  <advance width="913"/>
  <unicode hex="0026"/>
  <outline>
    <contour>
      <point x="251" y="18" type="curve"/>
      <point x="285" y="94" type="line"/>
      <point x="330" y="76"/>
      <point x="377" y="66"/>
      <point x="424" y="66" type="curve" smooth="yes"/>
      <point x="512" y="66"/>
      <point x="602" y="98"/>
      <point x="668" y="152" type="curve" smooth="yes"/>
      <point x="735" y="206"/>
      <point x="777" y="285"/>
      <point x="777" y="367" type="curve" smooth="yes"/>
      <point x="777" y="410"/>
      <point x="758" y="433"/>
      <point x="731" y="433" type="curve" smooth="yes"/>
      <point x="713" y="433"/>
      <point x="700" y="418"/>
      <point x="700" y="404" type="curve" smooth="yes"/>
      <point x="700" y="381"/>
      <point x="714" y="369"/>
      <point x="740" y="368" type="curve"/>
      <point x="741" y="362"/>
      <point x="742" y="357"/>
      <point x="742" y="353" type="curve" smooth="yes"/>
      <point x="742" y="286"/>
      <point x="706" y="223"/>
      <point x="652" y="174" type="curve"/>
      <point x="592" y="123"/>
      <point x="510" y="93"/>
      <point x="430" y="93" type="curve" smooth="yes"/>
      <point x="383" y="93"/>
      <point x="338" y="102"/>
      <point x="297" y="119" type="curve"/>
      <point x="453" y="442"/>
      <point x="675" y="753"/>
      <point x="881" y="953" type="curve" smooth="yes"/>
      <point x="903" y="974"/>
      <point x="913" y="983"/>
      <point x="913" y="991" type="curve" smooth="yes"/>
      <point x="913" y="996"/>
      <point x="907" y="1000"/>
      <point x="901" y="1000" type="curve" smooth="yes"/>
      <point x="896" y="1000"/>
      <point x="886" y="996"/>
      <point x="873" y="984" type="curve" smooth="yes"/>
      <point x="701" y="823"/>
      <point x="496" y="619"/>
      <point x="240" y="224" type="curve"/>
      <point x="306" y="356"/>
      <point x="350" y="488"/>
      <point x="350" y="564" type="curve" smooth="yes"/>
      <point x="350" y="703"/>
      <point x="270" y="779"/>
      <point x="192" y="779" type="curve" smooth="yes"/>
      <point x="83" y="779"/>
      <point x="0" y="665"/>
      <point x="0" y="513" type="curve" smooth="yes"/>
      <point x="0" y="371"/>
      <point x="71" y="242"/>
      <point x="174" y="159" type="curve"/>
      <point x="149" y="115"/>
      <point x="121" y="68"/>
      <point x="90" y="19" type="curve" name="hr00"/>
      <point x="122" y="23"/>
      <point x="145" y="24"/>
      <point x="160" y="24" type="curve" smooth="yes"/>
      <point x="188" y="24"/>
      <point x="231" y="22"/>
    </contour>
    <contour>
      <point x="189" y="188" type="curve"/>
      <point x="107" y="265"/>
      <point x="57" y="380"/>
      <point x="57" y="511" type="curve" smooth="yes"/>
      <point x="57" y="630"/>
      <point x="130" y="739"/>
      <point x="203" y="739" type="curve" smooth="yes"/>
      <point x="262" y="739"/>
      <point x="320" y="678"/>
      <point x="320" y="575" type="curve" smooth="yes"/>
      <point x="320" y="486"/>
      <point x="279" y="355"/>
    </contour>
  </outline>
</glyph>
<glyph name="parenleft" format="1">
  <advance width="894"/>
  <unicode hex="0028"/>
  <outline>
    <contour>
      <point x="141" y="-187" type="curve"/>
      <point x="146" y="-186"/>
      <point x="151" y="-181"/>
      <point x="151" y="-176" type="curve" smooth="yes"/>
      <point x="150" y="-168"/>
      <point x="146" y="-155"/>
      <point x="144" y="-146" type="curve"/>
      <point x="116" y="-57"/>
      <point x="93" y="38"/>
      <point x="89" y="147" type="curve"/>
      <point x="75" y="626"/>
      <point x="327" y="1100"/>
      <point x="875" y="1393" type="curve" smooth="yes"/>
      <point x="894" y="1403"/>
      <point x="893" y="1404"/>
      <point x="893" y="1410" type="curve" smooth="yes"/>
      <point x="893" y="1416"/>
      <point x="889" y="1419"/>
      <point x="883" y="1419" type="curve" smooth="yes"/>
      <point x="874" y="1419"/>
      <point x="868" y="1416"/>
      <point x="844" y="1406" type="curve" smooth="yes"/>
      <point x="349" y="1191"/>
      <point x="-17" y="742"/>
      <point x="1" y="238" type="curve" name="hr00"/>
      <point x="5" y="68"/>
      <point x="54" y="-60"/>
      <point x="119" y="-165" type="curve"/>
      <point x="133" y="-185"/>
      <point x="135" y="-187"/>
    </contour>
  </outline>
</glyph>
<glyph name="asterisk" format="1">
  <advance width="533"/>
  <unicode hex="002A"/>
  <outline>
    <contour>
      <point x="176" y="901" type="curve"/>
      <point x="196" y="969"/>
      <point x="231" y="1066"/>
      <point x="261" y="1125" type="curve"/>
      <point x="312" y="1077"/>
      <point x="349" y="1032"/>
      <point x="393" y="978" type="curve"/>
      <point x="417" y="1012"/>
      <point x="447" y="1043"/>
      <point x="466" y="1065" type="curve"/>
      <point x="416" y="1076"/>
      <point x="347" y="1108"/>
      <point x="282" y="1143" type="curve"/>
      <point x="402" y="1212"/>
      <point x="468" y="1239"/>
      <point x="533" y="1270" type="curve"/>
      <point x="505" y="1302"/>
      <point x="491" y="1333"/>
      <point x="481" y="1352" type="curve"/>
      <point x="422" y="1293"/>
      <point x="372" y="1238"/>
      <point x="272" y="1164" type="curve"/>
      <point x="277" y="1250"/>
      <point x="289" y="1354"/>
      <point x="295" y="1393" type="curve"/>
      <point x="258" y="1373"/>
      <point x="215" y="1352"/>
      <point x="191" y="1342" type="curve"/>
      <point x="208" y="1303"/>
      <point x="234" y="1235"/>
      <point x="247" y="1159" type="curve"/>
      <point x="149" y="1156"/>
      <point x="75" y="1164"/>
      <point x="18" y="1168" type="curve"/>
      <point x="17" y="1134"/>
      <point x="5" y="1090"/>
      <point x="0" y="1066" type="curve"/>
      <point x="67" y="1089"/>
      <point x="184" y="1120"/>
      <point x="238" y="1131" type="curve"/>
      <point x="157" y="1011"/>
      <point x="118" y="972"/>
      <point x="73" y="914" type="curve" name="hr00"/>
      <point x="108" y="914"/>
      <point x="154" y="905"/>
    </contour>
  </outline>
</glyph>
<glyph name="plus" format="1">
  <advance width="649"/>
  <unicode hex="002B"/>
  <outline>
    <contour>
      <point x="92" y="172" type="line" name="hr00"/>
      <point x="102" y="174"/>
      <point x="114" y="176"/>
      <point x="126" y="176" type="curve" smooth="yes"/>
      <point x="137" y="176"/>
      <point x="151" y="173"/>
      <point x="157" y="172" type="curve"/>
      <point x="339" y="465" type="line"/>
      <point x="609" y="465" type="line"/>
      <point x="623" y="488"/>
      <point x="631" y="502"/>
      <point x="649" y="520" type="curve"/>
      <point x="373" y="520" type="line"/>
      <point x="545" y="797" type="line"/>
      <point x="528" y="795"/>
      <point x="517" y="793"/>
      <point x="504" y="793" type="curve" smooth="yes"/>
      <point x="495" y="793"/>
      <point x="482" y="796"/>
      <point x="476" y="797" type="curve"/>
      <point x="306" y="520" type="line"/>
      <point x="41" y="520" type="line"/>
      <point x="32" y="502"/>
      <point x="20" y="487"/>
      <point x="0" y="465" type="curve"/>
      <point x="272" y="465" type="line"/>
    </contour>
  </outline>
</glyph>
<glyph name="hyphen" format="1">
  <advance width="410"/>
  <unicode hex="002D"/>
  <outline>
    <contour>
      <point x="0" y="461" type="curve" name="hr00"/>
      <point x="382" y="461" type="line"/>
      <point x="385" y="480"/>
      <point x="394" y="497"/>
      <point x="410" y="518" type="curve"/>
      <point x="29" y="518" type="line"/>
      <point x="17" y="498"/>
      <point x="21" y="482"/>
    </contour>
  </outline>
</glyph>
<glyph name="period" format="1">
  <advance width="191"/>
  <unicode hex="002E"/>
  <outline>
    <contour>
      <point x="71" y="-2" type="curve" smooth="yes"/>
      <point x="130" y="-2"/>
      <point x="191" y="51"/>
      <point x="191" y="108" type="curve" smooth="yes"/>
      <point x="191" y="152"/>
      <point x="164" y="182"/>
      <point x="119" y="182" type="curve" smooth="yes"/>
      <point x="54" y="182"/>
      <point x="0" y="127"/>
      <point x="0" y="72" type="curve" smooth="yes" name="hr00"/>
      <point x="0" y="28"/>
      <point x="30" y="-2"/>
    </contour>
  </outline>
</glyph>
<glyph name="slash" format="1">
  <advance width="1131"/>
  <unicode hex="002F"/>
  <outline>
    <contour>
      <point x="0" y="-106" type="line" name="hr00"/>
      <point x="17" y="-105"/>
      <point x="32" y="-104"/>
      <point x="45" y="-104" type="curve" smooth="yes"/>
      <point x="54" y="-104"/>
      <point x="64" y="-105"/>
      <point x="70" y="-106" type="curve"/>
      <point x="1131" y="1378" type="line"/>
      <point x="1124" y="1378"/>
      <point x="1104" y="1376"/>
      <point x="1093" y="1376" type="curve" smooth="yes"/>
      <point x="1083" y="1376"/>
      <point x="1069" y="1378"/>
      <point x="1060" y="1382" type="curve"/>
    </contour>
  </outline>
</glyph>
<glyph name="zero" format="1">
  <advance width="1153"/>
  <unicode hex="0030"/>
  <outline>
    <contour>
      <point x="226" y="-5" type="curve" smooth="yes"/>
      <point x="658" y="-5"/>
      <point x="1153" y="610"/>
      <point x="1153" y="1084" type="curve" smooth="yes"/>
      <point x="1153" y="1275"/>
      <point x="1082" y="1408"/>
      <point x="921" y="1408" type="curve" smooth="yes"/>
      <point x="521" y="1408"/>
      <point x="0" y="785"/>
      <point x="0" y="310" type="curve" smooth="yes" name="hr00"/>
      <point x="0" y="113"/>
      <point x="81" y="-5"/>
    </contour>
    <contour>
      <point x="251" y="22" type="curve" smooth="yes"/>
      <point x="160" y="22"/>
      <point x="109" y="89"/>
      <point x="109" y="225" type="curve" smooth="yes"/>
      <point x="109" y="601"/>
      <point x="635" y="1384"/>
      <point x="922" y="1384" type="curve" smooth="yes"/>
      <point x="1026" y="1384"/>
      <point x="1098" y="1324"/>
      <point x="1098" y="1129" type="curve" smooth="yes"/>
      <point x="1098" y="578"/>
      <point x="523" y="22"/>
    </contour>
  </outline>
</glyph>
<glyph name="one" format="1">
  <advance width="989"/>
  <unicode hex="0031"/>
  <outline>
    <contour>
      <point x="0" y="13" type="curve" name="hr00"/>
      <point x="20" y="19"/>
      <point x="55" y="24"/>
      <point x="94" y="24" type="curve" smooth="yes"/>
      <point x="123" y="24"/>
      <point x="181" y="19"/>
      <point x="205" y="18" type="curve"/>
      <point x="480" y="565"/>
      <point x="836" y="1195"/>
      <point x="951" y="1344" type="curve" smooth="yes"/>
      <point x="977" y="1378"/>
      <point x="989" y="1398"/>
      <point x="989" y="1410" type="curve" smooth="yes"/>
      <point x="989" y="1419"/>
      <point x="982" y="1424"/>
      <point x="974" y="1424" type="curve" smooth="yes"/>
      <point x="962" y="1424"/>
      <point x="954" y="1416"/>
      <point x="927" y="1373" type="curve"/>
      <point x="819" y="1192"/>
      <point x="369" y="718"/>
      <point x="188" y="611" type="curve" smooth="yes"/>
      <point x="168" y="600"/>
      <point x="155" y="594"/>
      <point x="141" y="588" type="curve"/>
      <point x="116" y="580"/>
      <point x="107" y="569"/>
      <point x="107" y="557" type="curve" smooth="yes"/>
      <point x="107" y="545"/>
      <point x="116" y="537"/>
      <point x="130" y="537" type="curve" smooth="yes"/>
      <point x="154" y="537"/>
      <point x="187" y="562"/>
      <point x="218" y="584" type="curve" smooth="yes"/>
      <point x="335" y="668"/>
      <point x="460" y="781"/>
      <point x="641" y="972" type="curve"/>
      <point x="461" y="690"/>
      <point x="182" y="271"/>
    </contour>
  </outline>
</glyph>
<glyph name="three" format="1">
  <advance width="1434"/>
  <unicode hex="0033"/>
  <outline>
    <contour>
      <point x="363" y="-238" type="curve" smooth="yes"/>
      <point x="820" y="-238"/>
      <point x="1218" y="185"/>
      <point x="1218" y="435" type="curve" smooth="yes"/>
      <point x="1218" y="596"/>
      <point x="1096" y="674"/>
      <point x="937" y="643" type="curve"/>
      <point x="1268" y="779"/>
      <point x="1434" y="1014"/>
      <point x="1434" y="1159" type="curve" smooth="yes"/>
      <point x="1434" y="1328"/>
      <point x="1329" y="1410"/>
      <point x="1140" y="1410" type="curve" smooth="yes"/>
      <point x="854" y="1410"/>
      <point x="511" y="1066"/>
      <point x="511" y="836" type="curve" smooth="yes"/>
      <point x="511" y="735"/>
      <point x="574" y="683"/>
      <point x="657" y="683" type="curve" smooth="yes"/>
      <point x="805" y="683"/>
      <point x="1075" y="929"/>
      <point x="1075" y="1149" type="curve" smooth="yes"/>
      <point x="1075" y="1167"/>
      <point x="1072" y="1172"/>
      <point x="1065" y="1172" type="curve" smooth="yes"/>
      <point x="1058" y="1172"/>
      <point x="1056" y="1167"/>
      <point x="1053" y="1153" type="curve"/>
      <point x="1034" y="967"/>
      <point x="810" y="710"/>
      <point x="666" y="710" type="curve" smooth="yes"/>
      <point x="610" y="710"/>
      <point x="593" y="748"/>
      <point x="593" y="797" type="curve" smooth="yes"/>
      <point x="593" y="1000"/>
      <point x="908" y="1383"/>
      <point x="1137" y="1383" type="curve" smooth="yes"/>
      <point x="1239" y="1383"/>
      <point x="1301" y="1341"/>
      <point x="1301" y="1203" type="curve" smooth="yes"/>
      <point x="1301" y="1026"/>
      <point x="1207" y="809"/>
      <point x="917" y="662" type="curve" smooth="yes"/>
      <point x="755" y="580"/>
      <point x="698" y="543"/>
      <point x="631" y="471" type="curve" smooth="yes"/>
      <point x="617" y="456"/>
      <point x="603" y="431"/>
      <point x="603" y="415" type="curve" smooth="yes"/>
      <point x="603" y="401"/>
      <point x="609" y="394"/>
      <point x="619" y="394" type="curve" smooth="yes"/>
      <point x="633" y="394"/>
      <point x="640" y="400"/>
      <point x="645" y="415" type="curve" smooth="yes"/>
      <point x="650" y="429"/>
      <point x="652" y="439"/>
      <point x="661" y="453" type="curve" smooth="yes"/>
      <point x="721" y="541"/>
      <point x="856" y="611"/>
      <point x="971" y="611" type="curve" smooth="yes"/>
      <point x="1030" y="611"/>
      <point x="1069" y="578"/>
      <point x="1069" y="515" type="curve" smooth="yes"/>
      <point x="1069" y="145"/>
      <point x="715" y="-215"/>
      <point x="358" y="-215" type="curve" smooth="yes"/>
      <point x="271" y="-215"/>
      <point x="159" y="-175"/>
      <point x="119" y="-110" type="curve"/>
      <point x="122" y="-94"/>
      <point x="124" y="-70"/>
      <point x="124" y="-57" type="curve" smooth="yes"/>
      <point x="124" y="-8"/>
      <point x="99" y="18"/>
      <point x="63" y="18" type="curve" smooth="yes" name="hr00"/>
      <point x="26" y="18"/>
      <point x="0" y="-10"/>
      <point x="0" y="-49" type="curve" smooth="yes"/>
      <point x="0" y="-131"/>
      <point x="173" y="-238"/>
    </contour>
  </outline>
</glyph>
<glyph name="four" format="1">
  <advance width="1448"/>
  <unicode hex="0034"/>
  <outline>
    <contour>
      <point x="593" y="-115" type="line"/>
      <point x="669" y="48"/>
      <point x="803" y="259"/>
      <point x="945" y="453" type="curve" name="hr03"/>
      <point x="990" y="446"/>
      <point x="1023" y="446"/>
      <point x="1073" y="446" type="curve" smooth="yes"/>
      <point x="1148" y="446"/>
      <point x="1321" y="459"/>
      <point x="1416" y="536" type="curve" smooth="yes"/>
      <point x="1435" y="552"/>
      <point x="1448" y="562"/>
      <point x="1448" y="569" type="curve" smooth="yes"/>
      <point x="1448" y="572"/>
      <point x="1444" y="577"/>
      <point x="1438" y="577" type="curve" smooth="yes"/>
      <point x="1425" y="577"/>
      <point x="1402" y="553"/>
      <point x="1368" y="535" type="curve" smooth="yes"/>
      <point x="1314" y="506"/>
      <point x="1212" y="480"/>
      <point x="1107" y="480" type="curve" smooth="yes"/>
      <point x="1063" y="480"/>
      <point x="1022" y="484"/>
      <point x="975" y="494" type="curve"/>
      <point x="1140" y="716"/>
      <point x="1311" y="910"/>
      <point x="1408" y="976" type="curve" smooth="yes"/>
      <point x="1428" y="990"/>
      <point x="1430" y="993"/>
      <point x="1430" y="999" type="curve" smooth="yes"/>
      <point x="1430" y="1003"/>
      <point x="1428" y="1008"/>
      <point x="1420" y="1008" type="curve" smooth="yes"/>
      <point x="1410" y="1008"/>
      <point x="1387" y="996"/>
      <point x="1375" y="991" type="curve"/>
      <point x="1254" y="930"/>
      <point x="1061" y="737"/>
      <point x="875" y="518" type="curve"/>
      <point x="720" y="562" type="line" smooth="yes"/>
      <point x="629" y="588"/>
      <point x="560" y="607"/>
      <point x="504" y="621" type="curve"/>
      <point x="532" y="643" type="line" smooth="yes"/>
      <point x="735" y="803"/>
      <point x="1038" y="1167"/>
      <point x="1110" y="1239" type="curve" smooth="yes"/>
      <point x="1192" y="1321"/>
      <point x="1224" y="1354"/>
      <point x="1281" y="1378" type="curve" smooth="yes"/>
      <point x="1318" y="1393"/>
      <point x="1322" y="1395"/>
      <point x="1322" y="1402" type="curve" smooth="yes"/>
      <point x="1322" y="1411"/>
      <point x="1315" y="1414"/>
      <point x="1287" y="1414" type="curve" smooth="yes"/>
      <point x="1215" y="1414"/>
      <point x="1151" y="1399"/>
      <point x="1039" y="1386" type="curve"/>
      <point x="905" y="1169"/>
      <point x="636" y="823"/>
      <point x="425" y="640" type="curve"/>
      <point x="348" y="656"/>
      <point x="301" y="659"/>
      <point x="239" y="659" type="curve" smooth="yes"/>
      <point x="126" y="659"/>
      <point x="0" y="634"/>
      <point x="0" y="562" type="curve" smooth="yes"/>
      <point x="0" y="521"/>
      <point x="64" y="491"/>
      <point x="159" y="491" type="curve" smooth="yes" name="hr04"/>
      <point x="235" y="491"/>
      <point x="326" y="498"/>
      <point x="467" y="595" type="curve"/>
      <point x="537" y="574"/>
      <point x="612" y="547"/>
      <point x="691" y="522" type="curve" smooth="yes"/>
      <point x="754" y="502"/>
      <point x="802" y="488"/>
      <point x="841" y="477" type="curve"/>
      <point x="691" y="297"/>
      <point x="549" y="105"/>
      <point x="457" y="-43" type="curve" name="hr01"/>
    </contour>
    <contour>
      <point x="171" y="516" type="curve" smooth="yes"/>
      <point x="130" y="516"/>
      <point x="64" y="522"/>
      <point x="64" y="557" type="curve" smooth="yes"/>
      <point x="64" y="602"/>
      <point x="119" y="635"/>
      <point x="247" y="635" type="curve" smooth="yes"/>
      <point x="294" y="635"/>
      <point x="343" y="627"/>
      <point x="395" y="615" type="curve"/>
      <point x="377" y="600"/>
      <point x="359" y="587"/>
      <point x="342" y="575" type="curve" smooth="yes"/>
      <point x="272" y="526"/>
      <point x="219" y="516"/>
    </contour>
  </outline>
</glyph>
<glyph name="seven" format="1">
  <advance width="1169"/>
  <unicode hex="0037"/>
  <outline>
    <contour>
      <point x="379" y="-545" type="curve" smooth="yes" name="hr03"/>
      <point x="382" y="-545"/>
      <point x="390" y="-543"/>
      <point x="390" y="-537" type="curve" smooth="yes"/>
      <point x="390" y="-529"/>
      <point x="372" y="-515"/>
      <point x="355" y="-490" type="curve" smooth="yes"/>
      <point x="309" y="-424"/>
      <point x="259" y="-274"/>
      <point x="259" y="-89" type="curve" smooth="yes" name="hr04"/>
      <point x="259" y="278"/>
      <point x="455" y="705"/>
      <point x="890" y="1134" type="curve"/>
      <point x="1009" y="1253"/>
      <point x="1114" y="1338"/>
      <point x="1132" y="1352" type="curve"/>
      <point x="1162" y="1373"/>
      <point x="1169" y="1378"/>
      <point x="1169" y="1390" type="curve" smooth="yes"/>
      <point x="1169" y="1400"/>
      <point x="1162" y="1406"/>
      <point x="1147" y="1406" type="curve" smooth="yes"/>
      <point x="1142" y="1406"/>
      <point x="1126" y="1404"/>
      <point x="1108" y="1389" type="curve"/>
      <point x="1029" y="1316"/>
      <point x="997" y="1281"/>
      <point x="909" y="1281" type="curve" smooth="yes"/>
      <point x="854" y="1281"/>
      <point x="810" y="1295"/>
      <point x="765" y="1325" type="curve" smooth="yes"/>
      <point x="690" y="1376"/>
      <point x="642" y="1410"/>
      <point x="550" y="1410" type="curve" smooth="yes" name="hr05"/>
      <point x="442" y="1410"/>
      <point x="344" y="1364"/>
      <point x="265" y="1267" type="curve"/>
      <point x="275" y="1304"/>
      <point x="285" y="1355"/>
      <point x="285" y="1377" type="curve" smooth="yes"/>
      <point x="285" y="1401"/>
      <point x="275" y="1404"/>
      <point x="267" y="1404" type="curve" smooth="yes"/>
      <point x="252" y="1404"/>
      <point x="249" y="1393"/>
      <point x="247" y="1366" type="curve"/>
      <point x="224" y="1186"/>
      <point x="89" y="1016"/>
      <point x="28" y="948" type="curve"/>
      <point x="6" y="925"/>
      <point x="0" y="920"/>
      <point x="0" y="914" type="curve" smooth="yes"/>
      <point x="0" y="909"/>
      <point x="6" y="905"/>
      <point x="12" y="905" type="curve" smooth="yes"/>
      <point x="41" y="905"/>
      <point x="141" y="1021"/>
      <point x="249" y="1202" type="curve"/>
      <point x="322" y="1303"/>
      <point x="416" y="1306"/>
      <point x="467" y="1305" type="curve" smooth="yes"/>
      <point x="528" y="1304"/>
      <point x="559" y="1285"/>
      <point x="610" y="1249" type="curve"/>
      <point x="671" y="1208"/>
      <point x="704" y="1192"/>
      <point x="769" y="1192" type="curve" smooth="yes" name="hr06"/>
      <point x="837" y="1192"/>
      <point x="903" y="1211"/>
      <point x="968" y="1251" type="curve"/>
      <point x="922" y="1209"/>
      <point x="874" y="1162"/>
      <point x="858" y="1147" type="curve" smooth="yes"/>
      <point x="389" y="694"/>
      <point x="143" y="260"/>
      <point x="143" y="-81" type="curve" smooth="yes" name="hr01"/>
      <point x="143" y="-312"/>
      <point x="258" y="-477"/>
      <point x="352" y="-532" type="curve" smooth="yes"/>
      <point x="364" y="-539"/>
      <point x="374" y="-545"/>
    </contour>
  </outline>
</glyph>
<glyph name="eight" format="1">
  <advance width="1066"/>
  <unicode hex="0038"/>
  <outline>
    <contour>
      <point x="348" y="-5" type="curve" smooth="yes"/>
      <point x="577" y="-5"/>
      <point x="817" y="168"/>
      <point x="817" y="393" type="curve" smooth="yes"/>
      <point x="817" y="526"/>
      <point x="733" y="661"/>
      <point x="661" y="767" type="curve"/>
      <point x="658" y="770" type="line"/>
      <point x="881" y="832"/>
      <point x="1066" y="1007"/>
      <point x="1066" y="1192" type="curve" smooth="yes"/>
      <point x="1066" y="1303"/>
      <point x="991" y="1410"/>
      <point x="797" y="1410" type="curve" smooth="yes"/>
      <point x="553" y="1410"/>
      <point x="378" y="1225"/>
      <point x="378" y="1059" type="curve" smooth="yes"/>
      <point x="378" y="979"/>
      <point x="407" y="902"/>
      <point x="470" y="791" type="curve"/>
      <point x="212" y="701"/>
      <point x="0" y="512"/>
      <point x="0" y="301" type="curve" smooth="yes" name="hr00"/>
      <point x="0" y="133"/>
      <point x="102" y="-5"/>
    </contour>
    <contour>
      <point x="369" y="23" type="curve" smooth="yes"/>
      <point x="213" y="23"/>
      <point x="100" y="129"/>
      <point x="100" y="327" type="curve" smooth="yes"/>
      <point x="100" y="516"/>
      <point x="257" y="687"/>
      <point x="485" y="765" type="curve"/>
      <point x="504" y="733"/>
      <point x="524" y="699"/>
      <point x="548" y="661" type="curve" smooth="yes"/>
      <point x="651" y="494"/>
      <point x="673" y="432"/>
      <point x="673" y="337" type="curve" smooth="yes"/>
      <point x="673" y="153"/>
      <point x="511" y="23"/>
    </contour>
    <contour>
      <point x="643" y="793" type="curve"/>
      <point x="550" y="933"/>
      <point x="516" y="1029"/>
      <point x="516" y="1108" type="curve" smooth="yes"/>
      <point x="516" y="1288"/>
      <point x="687" y="1383"/>
      <point x="800" y="1383" type="curve" smooth="yes"/>
      <point x="946" y="1383"/>
      <point x="996" y="1289"/>
      <point x="996" y="1198" type="curve" smooth="yes"/>
      <point x="996" y="1022"/>
      <point x="823" y="842"/>
    </contour>
  </outline>
</glyph>
<glyph name="nine" format="1">
  <advance width="1179"/>
  <unicode hex="0039"/>
  <outline>
    <contour>
      <point x="282" y="-2" type="curve" smooth="yes"/>
      <point x="362" y="-2"/>
      <point x="447" y="14"/>
      <point x="533" y="56" type="curve" smooth="yes"/>
      <point x="891" y="231"/>
      <point x="1144" y="677"/>
      <point x="1176" y="1025" type="curve" smooth="yes"/>
      <point x="1198" y="1264"/>
      <point x="1093" y="1408"/>
      <point x="872" y="1408" type="curve" smooth="yes"/>
      <point x="598" y="1408"/>
      <point x="338" y="1145"/>
      <point x="308" y="856" type="curve"/>
      <point x="287" y="677"/>
      <point x="410" y="569"/>
      <point x="574" y="569" type="curve" smooth="yes"/>
      <point x="697" y="569"/>
      <point x="835" y="645"/>
      <point x="996" y="830" type="curve"/>
      <point x="831" y="340"/>
      <point x="563" y="24"/>
      <point x="287" y="24" type="curve" smooth="yes"/>
      <point x="204" y="24"/>
      <point x="119" y="82"/>
      <point x="121" y="131" type="curve" smooth="yes"/>
      <point x="121" y="147"/>
      <point x="125" y="161"/>
      <point x="132" y="171" type="curve" smooth="yes"/>
      <point x="142" y="187"/>
      <point x="148" y="195"/>
      <point x="148" y="211" type="curve" smooth="yes"/>
      <point x="149" y="236"/>
      <point x="129" y="270"/>
      <point x="85" y="270" type="curve" smooth="yes"/>
      <point x="35" y="270"/>
      <point x="3" y="234"/>
      <point x="1" y="185" type="curve" name="hr00"/>
      <point x="0" y="96"/>
      <point x="110" y="-2"/>
    </contour>
    <contour>
      <point x="572" y="593" type="curve" smooth="yes"/>
      <point x="456" y="593"/>
      <point x="402" y="662"/>
      <point x="404" y="754" type="curve" smooth="yes"/>
      <point x="410" y="984"/>
      <point x="676" y="1378"/>
      <point x="892" y="1378" type="curve" smooth="yes"/>
      <point x="1016" y="1378"/>
      <point x="1075" y="1332"/>
      <point x="1070" y="1173" type="curve"/>
      <point x="1065" y="921"/>
      <point x="791" y="593"/>
    </contour>
  </outline>
</glyph>
<glyph name="less" format="1">
  <advance width="580"/>
  <unicode hex="003C"/>
  <outline>
    <contour>
      <point x="465" y="250" type="line"/>
      <point x="475" y="260"/>
      <point x="495" y="278"/>
      <point x="508" y="290" type="curve"/>
      <point x="117" y="492" type="line"/>
      <point x="580" y="702" type="line"/>
      <point x="573" y="712"/>
      <point x="556" y="742"/>
      <point x="554" y="752" type="curve"/>
      <point x="0" y="494" type="line" name="hr00"/>
    </contour>
  </outline>
</glyph>
<glyph name="equal" format="1">
  <advance width="747"/>
  <unicode hex="003D"/>
  <outline>
    <contour>
      <point x="113" y="603" type="curve" name="hr00"/>
      <point x="718" y="603" type="line"/>
      <point x="722" y="624"/>
      <point x="732" y="641"/>
      <point x="747" y="660" type="curve"/>
      <point x="149" y="660" type="line"/>
      <point x="138" y="641"/>
      <point x="134" y="625"/>
    </contour>
    <contour>
      <point x="0" y="401" type="curve"/>
      <point x="603" y="401" type="line"/>
      <point x="609" y="418"/>
      <point x="619" y="437"/>
      <point x="632" y="457" type="curve"/>
      <point x="35" y="457" type="line"/>
      <point x="24" y="438"/>
      <point x="18" y="422"/>
    </contour>
  </outline>
</glyph>
<glyph name="question" format="1">
  <advance width="917"/>
  <unicode hex="003F"/>
  <outline>
    <contour>
      <point x="220" y="307" type="curve" smooth="yes" name="hr00"/>
      <point x="234" y="307"/>
      <point x="240" y="315"/>
      <point x="248" y="326" type="curve"/>
      <point x="256" y="340"/>
      <point x="256" y="351"/>
      <point x="274" y="376" type="curve" smooth="yes"/>
      <point x="332" y="456"/>
      <point x="474" y="609"/>
      <point x="620" y="724" type="curve" smooth="yes"/>
      <point x="893" y="939"/>
      <point x="917" y="1017"/>
      <point x="917" y="1099" type="curve" smooth="yes"/>
      <point x="917" y="1214"/>
      <point x="796" y="1285"/>
      <point x="687" y="1285" type="curve" smooth="yes"/>
      <point x="500" y="1285"/>
      <point x="329" y="1124"/>
      <point x="329" y="1041" type="curve" smooth="yes"/>
      <point x="329" y="1011"/>
      <point x="349" y="985"/>
      <point x="380" y="985" type="curve" smooth="yes"/>
      <point x="421" y="985"/>
      <point x="449" y="1017"/>
      <point x="451" y="1061" type="curve"/>
      <point x="453" y="1086"/>
      <point x="453" y="1121"/>
      <point x="484" y="1167" type="curve" smooth="yes"/>
      <point x="514" y="1213"/>
      <point x="579" y="1260"/>
      <point x="666" y="1260" type="curve" smooth="yes"/>
      <point x="739" y="1260"/>
      <point x="792" y="1211"/>
      <point x="792" y="1125" type="curve" smooth="yes"/>
      <point x="792" y="1007"/>
      <point x="736" y="918"/>
      <point x="576" y="759" type="curve" smooth="yes"/>
      <point x="441" y="626"/>
      <point x="369" y="544"/>
      <point x="252" y="396" type="curve" smooth="yes"/>
      <point x="223" y="360"/>
      <point x="206" y="341"/>
      <point x="206" y="324" type="curve" smooth="yes"/>
      <point x="206" y="315"/>
      <point x="211" y="307"/>
    </contour>
    <contour>
      <point x="62" y="-2" type="curve" smooth="yes"/>
      <point x="112" y="-2"/>
      <point x="164" y="43"/>
      <point x="164" y="91" type="curve" smooth="yes"/>
      <point x="164" y="129"/>
      <point x="140" y="154"/>
      <point x="103" y="154" type="curve" smooth="yes"/>
      <point x="46" y="154"/>
      <point x="0" y="108"/>
      <point x="0" y="62" type="curve" smooth="yes"/>
      <point x="0" y="25"/>
      <point x="26" y="-2"/>
    </contour>
  </outline>
</glyph>
<glyph name="at" format="1">
  <advance width="1220"/>
  <unicode hex="0040"/>
  <outline>
    <contour>
      <point x="399" y="-290" type="curve" smooth="yes"/>
      <point x="751" y="-290"/>
      <point x="1080" y="-33"/>
      <point x="1080" y="176" type="curve" smooth="yes"/>
      <point x="1080" y="182"/>
      <point x="1079" y="188"/>
      <point x="1079" y="193" type="curve"/>
      <point x="1162" y="287"/>
      <point x="1220" y="406"/>
      <point x="1220" y="531" type="curve" smooth="yes"/>
      <point x="1220" y="679"/>
      <point x="1088" y="812"/>
      <point x="878" y="812" type="curve" smooth="yes"/>
      <point x="369" y="812"/>
      <point x="0" y="376"/>
      <point x="0" y="54" type="curve" smooth="yes" name="hr00"/>
      <point x="0" y="-116"/>
      <point x="119" y="-290"/>
    </contour>
    <contour>
      <point x="373" y="22" type="curve" smooth="yes"/>
      <point x="347" y="22"/>
      <point x="337" y="36"/>
      <point x="337" y="65" type="curve" smooth="yes"/>
      <point x="337" y="115"/>
      <point x="370" y="185"/>
      <point x="447" y="277" type="curve" smooth="yes"/>
      <point x="582" y="438"/>
      <point x="706" y="508"/>
      <point x="755" y="508" type="curve" smooth="yes"/>
      <point x="785" y="508"/>
      <point x="804" y="498"/>
      <point x="804" y="470" type="curve" smooth="yes"/>
      <point x="804" y="435"/>
      <point x="776" y="386"/>
      <point x="748" y="347" type="curve"/>
      <point x="729" y="326"/>
      <point x="710" y="302"/>
      <point x="687" y="275" type="curve" smooth="yes"/>
      <point x="630" y="205"/>
      <point x="581" y="154"/>
      <point x="537" y="115" type="curve" smooth="yes"/>
      <point x="463" y="51"/>
      <point x="419" y="22"/>
    </contour>
    <contour>
      <point x="406" y="-263" type="curve" smooth="yes"/>
      <point x="171" y="-263"/>
      <point x="63" y="-105"/>
      <point x="63" y="54" type="curve" smooth="yes"/>
      <point x="63" y="328"/>
      <point x="394" y="790"/>
      <point x="866" y="790" type="curve" smooth="yes"/>
      <point x="1063" y="790"/>
      <point x="1163" y="675"/>
      <point x="1163" y="516" type="curve" smooth="yes"/>
      <point x="1163" y="413"/>
      <point x="1124" y="318"/>
      <point x="1067" y="239" type="curve"/>
      <point x="1057" y="260"/>
      <point x="1042" y="279"/>
      <point x="1022" y="298" type="curve"/>
      <point x="1004" y="312"/>
      <point x="988" y="323"/>
      <point x="975" y="323" type="curve" smooth="yes"/>
      <point x="968" y="323"/>
      <point x="960" y="317"/>
      <point x="960" y="312" type="curve" smooth="yes"/>
      <point x="960" y="308"/>
      <point x="964" y="302"/>
      <point x="971" y="298" type="curve" smooth="yes"/>
      <point x="981" y="293"/>
      <point x="996" y="285"/>
      <point x="1003" y="277" type="curve"/>
      <point x="1023" y="261"/>
      <point x="1037" y="238"/>
      <point x="1045" y="211" type="curve"/>
      <point x="952" y="99"/>
      <point x="823" y="27"/>
      <point x="727" y="27" type="curve" smooth="yes"/>
      <point x="683" y="27"/>
      <point x="667" y="39"/>
      <point x="667" y="59" type="curve" smooth="yes"/>
      <point x="667" y="87"/>
      <point x="689" y="122"/>
      <point x="755" y="202" type="curve" smooth="yes"/>
      <point x="1015" y="513" type="line"/>
      <point x="1001" y="512"/>
      <point x="971" y="511"/>
      <point x="957" y="511" type="curve" smooth="yes"/>
      <point x="940" y="511"/>
      <point x="906" y="513"/>
      <point x="895" y="515" type="curve"/>
      <point x="875" y="490"/>
      <point x="852" y="465"/>
      <point x="822" y="431" type="curve"/>
      <point x="827" y="445"/>
      <point x="829" y="458"/>
      <point x="829" y="470" type="curve" smooth="yes"/>
      <point x="829" y="507"/>
      <point x="797" y="534"/>
      <point x="741" y="534" type="curve" smooth="yes"/>
      <point x="638" y="534"/>
      <point x="499" y="490"/>
      <point x="360" y="329" type="curve"/>
      <point x="293" y="253"/>
      <point x="265" y="172"/>
      <point x="265" y="104" type="curve" smooth="yes"/>
      <point x="265" y="39"/>
      <point x="301" y="-2"/>
      <point x="368" y="-2" type="curve" smooth="yes"/>
      <point x="425" y="-2"/>
      <point x="536" y="60"/>
      <point x="669" y="213" type="curve"/>
      <point x="674" y="210" type="line"/>
      <point x="597" y="119"/>
      <point x="591" y="98"/>
      <point x="590" y="64" type="curve"/>
      <point x="590" y="26"/>
      <point x="626" y="-2"/>
      <point x="702" y="-2" type="curve" smooth="yes"/>
      <point x="818" y="-2"/>
      <point x="948" y="63"/>
      <point x="1049" y="162" type="curve"/>
      <point x="1040" y="-38"/>
      <point x="726" y="-263"/>
    </contour>
  </outline>
</glyph>
<glyph name="C" format="1">
  <advance width="1416"/>
  <unicode hex="0043"/>
  <outline>
    <contour>
      <point x="311" y="-262" type="curve" smooth="yes"/>
      <point x="316" y="-262"/>
      <point x="320" y="-260"/>
      <point x="320" y="-257" type="curve" smooth="yes"/>
      <point x="320" y="-254"/>
      <point x="321" y="-251"/>
      <point x="316" y="-244" type="curve" smooth="yes"/>
      <point x="273" y="-188"/>
      <point x="260" y="-73"/>
      <point x="257" y="-1" type="curve" name="hr03"/>
      <point x="263" y="-2"/>
      <point x="269" y="-2"/>
      <point x="275" y="-2" type="curve" smooth="yes"/>
      <point x="677" y="-2"/>
      <point x="994" y="364"/>
      <point x="994" y="593" type="curve" smooth="yes"/>
      <point x="994" y="677"/>
      <point x="933" y="733"/>
      <point x="821" y="733" type="curve" smooth="yes"/>
      <point x="525" y="733"/>
      <point x="229" y="395"/>
      <point x="228" y="29" type="curve"/>
      <point x="138" y="47"/>
      <point x="82" y="108"/>
      <point x="82" y="213" type="curve" smooth="yes"/>
      <point x="82" y="351"/>
      <point x="212" y="552"/>
      <point x="391" y="748" type="curve"/>
      <point x="822" y="769"/>
      <point x="1416" y="1099"/>
      <point x="1416" y="1327" type="curve" smooth="yes"/>
      <point x="1416" y="1381"/>
      <point x="1373" y="1401"/>
      <point x="1316" y="1401" type="curve" smooth="yes"/>
      <point x="975" y="1401"/>
      <point x="518" y="1118"/>
      <point x="246" y="782" type="curve"/>
      <point x="115" y="811"/>
      <point x="43" y="894"/>
      <point x="43" y="979" type="curve" smooth="yes" name="hr04"/>
      <point x="43" y="1225"/>
      <point x="422" y="1446"/>
      <point x="688" y="1446" type="curve" smooth="yes"/>
      <point x="721" y="1446"/>
      <point x="746" y="1442"/>
      <point x="761" y="1442" type="curve" smooth="yes"/>
      <point x="769" y="1442"/>
      <point x="774" y="1444"/>
      <point x="774" y="1450" type="curve" smooth="yes"/>
      <point x="774" y="1460"/>
      <point x="737" y="1467"/>
      <point x="693" y="1467" type="curve" smooth="yes"/>
      <point x="328" y="1467"/>
      <point x="0" y="1219"/>
      <point x="0" y="1020" type="curve" smooth="yes"/>
      <point x="0" y="897"/>
      <point x="75" y="794"/>
      <point x="228" y="759" type="curve"/>
      <point x="98" y="592"/>
      <point x="15" y="414"/>
      <point x="15" y="251" type="curve" smooth="yes" name="hr01"/>
      <point x="15" y="102"/>
      <point x="107" y="18"/>
      <point x="228" y="1" type="curve"/>
      <point x="234" y="-150"/>
      <point x="287" y="-262"/>
    </contour>
    <contour>
      <point x="286" y="24" type="curve" smooth="yes"/>
      <point x="276" y="24"/>
      <point x="266" y="24"/>
      <point x="257" y="25" type="curve"/>
      <point x="257" y="26" type="line"/>
      <point x="257" y="404"/>
      <point x="583" y="706"/>
      <point x="810" y="706" type="curve" smooth="yes"/>
      <point x="873" y="706"/>
      <point x="902" y="683"/>
      <point x="902" y="628" type="curve" smooth="yes"/>
      <point x="902" y="440"/>
      <point x="556" y="24"/>
    </contour>
    <contour>
      <point x="416" y="775" type="curve" name="hr06"/>
      <point x="708" y="1086"/>
      <point x="1116" y="1377"/>
      <point x="1314" y="1377" type="curve" smooth="yes"/>
      <point x="1361" y="1377"/>
      <point x="1392" y="1362"/>
      <point x="1392" y="1324" type="curve" smooth="yes"/>
      <point x="1392" y="1160"/>
      <point x="783" y="813"/>
    </contour>
  </outline>
</glyph>
<glyph name="F" format="1">
  <advance width="2237"/>
  <unicode hex="0046"/>
  <outline>
    <contour>
      <point x="232" y="-1" type="curve" smooth="yes"/>
      <point x="534" y="-1"/>
      <point x="769" y="153"/>
      <point x="1081" y="662" type="curve" smooth="yes"/>
      <point x="1085" y="669" type="line"/>
      <point x="1173" y="688"/>
      <point x="1263" y="707"/>
      <point x="1316" y="724" type="curve"/>
      <point x="1283" y="673"/>
      <point x="1259" y="621"/>
      <point x="1229" y="541" type="curve" smooth="yes"/>
      <point x="1223" y="523"/>
      <point x="1221" y="516"/>
      <point x="1221" y="511" type="curve" smooth="yes"/>
      <point x="1221" y="500"/>
      <point x="1226" y="497"/>
      <point x="1233" y="497" type="curve" smooth="yes"/>
      <point x="1240" y="497"/>
      <point x="1243" y="500"/>
      <point x="1250" y="513" type="curve"/>
      <point x="1299" y="641"/>
      <point x="1419" y="758"/>
      <point x="1511" y="801" type="curve"/>
      <point x="1486" y="809"/>
      <point x="1383" y="816"/>
      <point x="1359" y="816" type="curve"/>
      <point x="1349" y="795"/>
      <point x="1337" y="784"/>
      <point x="1325" y="776" type="curve"/>
      <point x="1276" y="759"/>
      <point x="1196" y="736"/>
      <point x="1114" y="715" type="curve"/>
      <point x="1282" y="971"/>
      <point x="1475" y="1149"/>
      <point x="1631" y="1194" type="curve" smooth="yes"/>
      <point x="1666" y="1204"/>
      <point x="1673" y="1204"/>
      <point x="1673" y="1210" type="curve" smooth="yes"/>
      <point x="1673" y="1216"/>
      <point x="1666" y="1219"/>
      <point x="1650" y="1219" type="curve" smooth="yes"/>
      <point x="1512" y="1219"/>
      <point x="1200" y="1057"/>
      <point x="957" y="677" type="curve"/>
      <point x="955" y="676"/>
      <point x="954" y="676"/>
      <point x="952" y="676" type="curve" smooth="yes"/>
      <point x="647" y="613"/>
      <point x="412" y="472"/>
      <point x="360" y="353" type="curve"/>
      <point x="354" y="345"/>
      <point x="353" y="339"/>
      <point x="353" y="336" type="curve" smooth="yes"/>
      <point x="353" y="329"/>
      <point x="356" y="328"/>
      <point x="360" y="328" type="curve" smooth="yes"/>
      <point x="366" y="328"/>
      <point x="370" y="332"/>
      <point x="379" y="348" type="curve" smooth="yes"/>
      <point x="439" y="451"/>
      <point x="610" y="564"/>
      <point x="932" y="636" type="curve"/>
      <point x="930" y="633"/>
      <point x="928" y="631"/>
      <point x="927" y="628" type="curve" smooth="yes"/>
      <point x="624" y="115"/>
      <point x="418" y="26"/>
      <point x="240" y="26" type="curve" smooth="yes"/>
      <point x="129" y="26"/>
      <point x="40" y="72"/>
      <point x="40" y="137" type="curve" smooth="yes"/>
      <point x="40" y="142" type="line"/>
      <point x="53" y="134"/>
      <point x="70" y="132"/>
      <point x="87" y="132" type="curve" smooth="yes"/>
      <point x="117" y="132"/>
      <point x="144" y="156"/>
      <point x="144" y="182" type="curve" smooth="yes"/>
      <point x="144" y="214"/>
      <point x="115" y="228"/>
      <point x="93" y="228" type="curve" smooth="yes"/>
      <point x="52" y="228"/>
      <point x="0" y="204"/>
      <point x="0" y="145" type="curve" smooth="yes"/>
      <point x="0" y="65"/>
      <point x="116" y="-1"/>
    </contour>
    <contour>
      <point x="679" y="814" type="curve" smooth="yes" name="hr00"/>
      <point x="875" y="814"/>
      <point x="1107" y="1011"/>
      <point x="1107" y="1210" type="curve" smooth="yes"/>
      <point x="1107" y="1223"/>
      <point x="1104" y="1231"/>
      <point x="1097" y="1231" type="curve" smooth="yes"/>
      <point x="1091" y="1231"/>
      <point x="1091" y="1224"/>
      <point x="1088" y="1210" type="curve"/>
      <point x="1071" y="1074"/>
      <point x="833" y="852"/>
      <point x="647" y="852" type="curve" smooth="yes"/>
      <point x="573" y="852"/>
      <point x="541" y="895"/>
      <point x="541" y="961" type="curve" smooth="yes"/>
      <point x="541" y="1138"/>
      <point x="855" y="1337"/>
      <point x="1160" y="1337" type="curve" smooth="yes"/>
      <point x="1343" y="1337"/>
      <point x="1530" y="1290"/>
      <point x="1714" y="1290" type="curve" smooth="yes"/>
      <point x="1966" y="1290"/>
      <point x="2129" y="1390"/>
      <point x="2228" y="1547" type="curve"/>
      <point x="2237" y="1557"/>
      <point x="2237" y="1562"/>
      <point x="2237" y="1567" type="curve" smooth="yes"/>
      <point x="2237" y="1571"/>
      <point x="2234" y="1574"/>
      <point x="2228" y="1574" type="curve" smooth="yes"/>
      <point x="2223" y="1574"/>
      <point x="2217" y="1573"/>
      <point x="2206" y="1557" type="curve"/>
      <point x="2145" y="1453"/>
      <point x="2029" y="1379"/>
      <point x="1839" y="1379" type="curve" smooth="yes"/>
      <point x="1701" y="1379"/>
      <point x="1550" y="1414"/>
      <point x="1406" y="1414" type="curve" smooth="yes"/>
      <point x="1284" y="1414"/>
      <point x="1162" y="1409"/>
      <point x="1045" y="1382" type="curve"/>
      <point x="720" y="1304"/>
      <point x="512" y="1119"/>
      <point x="512" y="951" type="curve" smooth="yes"/>
      <point x="512" y="863"/>
      <point x="577" y="814"/>
    </contour>
  </outline>
</glyph>
<glyph name="G" format="1">
  <advance width="1497"/>
  <unicode hex="0047"/>
  <outline>
    <contour>
      <point x="242" y="-3" type="curve" smooth="yes" name="hr00"/>
      <point x="534" y="-3"/>
      <point x="794" y="182"/>
      <point x="1028" y="548" type="curve" smooth="yes"/>
      <point x="1190" y="800"/>
      <point x="1276" y="898"/>
      <point x="1350" y="933" type="curve" smooth="yes"/>
      <point x="1365" y="940"/>
      <point x="1367" y="944"/>
      <point x="1367" y="950" type="curve" smooth="yes"/>
      <point x="1367" y="956"/>
      <point x="1354" y="961"/>
      <point x="1343" y="961" type="curve" smooth="yes"/>
      <point x="1323" y="961"/>
      <point x="1260" y="923"/>
      <point x="1190" y="868" type="curve" smooth="yes"/>
      <point x="891" y="637"/>
      <point x="724" y="555"/>
      <point x="604" y="555" type="curve" smooth="yes"/>
      <point x="542" y="555"/>
      <point x="524" y="583"/>
      <point x="524" y="608" type="curve" smooth="yes"/>
      <point x="524" y="635"/>
      <point x="535" y="671"/>
      <point x="556" y="712" type="curve"/>
      <point x="664" y="732"/>
      <point x="772" y="767"/>
      <point x="873" y="812" type="curve"/>
      <point x="1242" y="984"/>
      <point x="1497" y="1198"/>
      <point x="1497" y="1353" type="curve" smooth="yes"/>
      <point x="1497" y="1412"/>
      <point x="1463" y="1440"/>
      <point x="1376" y="1440" type="curve" smooth="yes"/>
      <point x="1056" y="1440"/>
      <point x="526" y="1040"/>
      <point x="451" y="718" type="curve"/>
      <point x="429" y="716"/>
      <point x="408" y="715"/>
      <point x="388" y="715" type="curve" smooth="yes"/>
      <point x="287" y="715"/>
      <point x="230" y="732"/>
      <point x="162" y="768" type="curve" smooth="yes"/>
      <point x="154" y="773"/>
      <point x="152" y="774"/>
      <point x="149" y="774" type="curve" smooth="yes"/>
      <point x="142" y="774"/>
      <point x="138" y="768"/>
      <point x="138" y="764" type="curve" smooth="yes"/>
      <point x="138" y="757"/>
      <point x="144" y="754"/>
      <point x="165" y="743" type="curve" smooth="yes"/>
      <point x="213" y="716"/>
      <point x="287" y="695"/>
      <point x="373" y="695" type="curve" smooth="yes"/>
      <point x="397" y="695"/>
      <point x="422" y="696"/>
      <point x="447" y="698" type="curve"/>
      <point x="444" y="680"/>
      <point x="442" y="662"/>
      <point x="442" y="645" type="curve" smooth="yes"/>
      <point x="442" y="553"/>
      <point x="499" y="529"/>
      <point x="589" y="529" type="curve" smooth="yes"/>
      <point x="696" y="529"/>
      <point x="836" y="582"/>
      <point x="1053" y="736" type="curve"/>
      <point x="979" y="656"/>
      <point x="877" y="538"/>
      <point x="820" y="462" type="curve" smooth="yes"/>
      <point x="572" y="131"/>
      <point x="413" y="23"/>
      <point x="250" y="23" type="curve" smooth="yes"/>
      <point x="121" y="23"/>
      <point x="40" y="70"/>
      <point x="40" y="133" type="curve" smooth="yes"/>
      <point x="40" y="139" type="line"/>
      <point x="53" y="131"/>
      <point x="70" y="130"/>
      <point x="87" y="130" type="curve" smooth="yes"/>
      <point x="117" y="130"/>
      <point x="144" y="153"/>
      <point x="144" y="179" type="curve" smooth="yes"/>
      <point x="144" y="212"/>
      <point x="115" y="225"/>
      <point x="93" y="225" type="curve" smooth="yes"/>
      <point x="52" y="225"/>
      <point x="0" y="202"/>
      <point x="0" y="141" type="curve" smooth="yes"/>
      <point x="0" y="62"/>
      <point x="111" y="-3"/>
    </contour>
    <contour>
      <point x="570" y="739" type="curve"/>
      <point x="712" y="993"/>
      <point x="1146" y="1417"/>
      <point x="1395" y="1417" type="curve" smooth="yes"/>
      <point x="1441" y="1417"/>
      <point x="1473" y="1400"/>
      <point x="1473" y="1363" type="curve" smooth="yes"/>
      <point x="1473" y="1282"/>
      <point x="1226" y="1042"/>
      <point x="885" y="862" type="curve"/>
      <point x="768" y="803"/>
      <point x="665" y="762"/>
    </contour>
  </outline>
</glyph>
<glyph name="H" format="1">
  <advance width="2423"/>
  <unicode hex="0048"/>
  <outline>
    <contour>
      <point x="190" y="-2" type="curve" smooth="yes"/>
      <point x="271" y="-2"/>
      <point x="371" y="18"/>
      <point x="461" y="70" type="curve"/>
      <point x="619" y="159"/>
      <point x="782" y="318"/>
      <point x="989" y="568" type="curve"/>
      <point x="1119" y="601"/>
      <point x="1258" y="633"/>
      <point x="1379" y="667" type="curve"/>
      <point x="1184" y="419"/>
      <point x="1126" y="254"/>
      <point x="1126" y="127" type="curve" smooth="yes"/>
      <point x="1126" y="65"/>
      <point x="1171" y="-2"/>
      <point x="1255" y="-2" type="curve" smooth="yes"/>
      <point x="1491" y="-2"/>
      <point x="1729" y="336"/>
      <point x="1714" y="481" type="curve" smooth="yes"/>
      <point x="1712" y="499"/>
      <point x="1707" y="510"/>
      <point x="1703" y="510" type="curve" smooth="yes"/>
      <point x="1697" y="510"/>
      <point x="1684" y="498"/>
      <point x="1679" y="480" type="curve" smooth="yes"/>
      <point x="1596" y="205"/>
      <point x="1410" y="23"/>
      <point x="1263" y="23" type="curve" smooth="yes"/>
      <point x="1202" y="23"/>
      <point x="1179" y="50"/>
      <point x="1179" y="115" type="curve" smooth="yes"/>
      <point x="1179" y="209"/>
      <point x="1345" y="462"/>
      <point x="1555" y="718" type="curve"/>
      <point x="2082" y="892"/>
      <point x="2423" y="1206"/>
      <point x="2423" y="1339" type="curve" smooth="yes" name="hr03"/>
      <point x="2423" y="1379"/>
      <point x="2392" y="1410"/>
      <point x="2333" y="1410" type="curve" smooth="yes"/>
      <point x="2169" y="1410"/>
      <point x="1752" y="1108"/>
      <point x="1455" y="759" type="curve" smooth="yes"/>
      <point x="1437" y="738"/>
      <point x="1420" y="718"/>
      <point x="1404" y="698" type="curve"/>
      <point x="1251" y="661"/>
      <point x="1123" y="630"/>
      <point x="1017" y="602" type="curve"/>
      <point x="1052" y="646"/>
      <point x="1089" y="692"/>
      <point x="1127" y="741" type="curve"/>
      <point x="1326" y="1020"/>
      <point x="1476" y="1220"/>
      <point x="1610" y="1330" type="curve"/>
      <point x="1657" y="1365"/>
      <point x="1672" y="1373"/>
      <point x="1683" y="1379" type="curve" smooth="yes"/>
      <point x="1699" y="1389"/>
      <point x="1704" y="1392"/>
      <point x="1704" y="1394" type="curve" smooth="yes"/>
      <point x="1704" y="1398"/>
      <point x="1695" y="1401"/>
      <point x="1690" y="1401" type="curve" smooth="yes"/>
      <point x="1684" y="1401"/>
      <point x="1672" y="1395"/>
      <point x="1654" y="1387" type="curve"/>
      <point x="1582" y="1350"/>
      <point x="1503" y="1288"/>
      <point x="1319" y="1124" type="curve"/>
      <point x="1192" y="1013"/>
      <point x="1054" y="947"/>
      <point x="970" y="947" type="curve" smooth="yes"/>
      <point x="899" y="947"/>
      <point x="876" y="977"/>
      <point x="876" y="996" type="curve" smooth="yes"/>
      <point x="876" y="1015"/>
      <point x="883" y="1024"/>
      <point x="926" y="1051" type="curve" smooth="yes"/>
      <point x="1047" y="1129"/>
      <point x="1080" y="1198"/>
      <point x="1080" y="1273" type="curve" smooth="yes"/>
      <point x="1080" y="1343"/>
      <point x="1016" y="1387"/>
      <point x="905" y="1387" type="curve" smooth="yes" name="hr04"/>
      <point x="793" y="1387"/>
      <point x="680" y="1344"/>
      <point x="605" y="1278" type="curve"/>
      <point x="595" y="1267"/>
      <point x="587" y="1260"/>
      <point x="587" y="1253" type="curve" smooth="yes" name="hr05"/>
      <point x="587" y="1246"/>
      <point x="592" y="1243"/>
      <point x="598" y="1243" type="curve" smooth="yes"/>
      <point x="604" y="1243"/>
      <point x="611" y="1246"/>
      <point x="623" y="1257" type="curve" smooth="yes"/>
      <point x="701" y="1329"/>
      <point x="806" y="1366"/>
      <point x="905" y="1366" type="curve" smooth="yes" name="hr06"/>
      <point x="995" y="1366"/>
      <point x="1036" y="1338"/>
      <point x="1036" y="1298" type="curve" smooth="yes"/>
      <point x="1036" y="1284"/>
      <point x="1028" y="1272"/>
      <point x="977" y="1231" type="curve" smooth="yes"/>
      <point x="867" y="1145"/>
      <point x="839" y="1085"/>
      <point x="839" y="1019" type="curve" smooth="yes"/>
      <point x="839" y="953"/>
      <point x="889" y="920"/>
      <point x="957" y="920" type="curve" smooth="yes"/>
      <point x="1022" y="920"/>
      <point x="1107" y="946"/>
      <point x="1241" y="1029" type="curve"/>
      <point x="1158" y="944"/>
      <point x="1008" y="778"/>
      <point x="844" y="555" type="curve"/>
      <point x="711" y="517"/>
      <point x="623" y="485"/>
      <point x="563" y="454" type="curve" smooth="yes"/>
      <point x="484" y="413"/>
      <point x="361" y="336"/>
      <point x="329" y="269" type="curve" smooth="yes"/>
      <point x="322" y="256"/>
      <point x="323" y="253"/>
      <point x="322" y="249" type="curve" smooth="yes"/>
      <point x="321" y="244"/>
      <point x="323" y="241"/>
      <point x="327" y="241" type="curve" smooth="yes"/>
      <point x="330" y="241"/>
      <point x="335" y="244"/>
      <point x="338" y="250" type="curve"/>
      <point x="411" y="361"/>
      <point x="566" y="439"/>
      <point x="712" y="490" type="curve" smooth="yes"/>
      <point x="745" y="501"/>
      <point x="781" y="512"/>
      <point x="819" y="523" type="curve"/>
      <point x="582" y="226"/>
      <point x="462" y="117"/>
      <point x="359" y="68" type="curve" smooth="yes" name="hr01"/>
      <point x="304" y="41"/>
      <point x="254" y="24"/>
      <point x="198" y="24" type="curve" smooth="yes"/>
      <point x="100" y="24"/>
      <point x="39" y="66"/>
      <point x="39" y="124" type="curve" smooth="yes"/>
      <point x="39" y="130" type="line"/>
      <point x="52" y="122"/>
      <point x="69" y="121"/>
      <point x="86" y="121" type="curve" smooth="yes"/>
      <point x="116" y="121"/>
      <point x="143" y="144"/>
      <point x="143" y="170" type="curve" smooth="yes"/>
      <point x="143" y="203"/>
      <point x="115" y="215"/>
      <point x="93" y="215" type="curve" smooth="yes"/>
      <point x="52" y="215"/>
      <point x="0" y="193"/>
      <point x="0" y="132" type="curve" smooth="yes"/>
      <point x="0" y="58"/>
      <point x="85" y="-2"/>
    </contour>
    <contour>
      <point x="1585" y="753" type="curve" name="hr07"/>
      <point x="1854" y="1074"/>
      <point x="2186" y="1389"/>
      <point x="2340" y="1389" type="curve" smooth="yes"/>
      <point x="2372" y="1389"/>
      <point x="2388" y="1378"/>
      <point x="2388" y="1355" type="curve" smooth="yes"/>
      <point x="2388" y="1248"/>
      <point x="2035" y="924"/>
    </contour>
  </outline>
</glyph>
<glyph name="L" format="1">
  <advance width="2099"/>
  <unicode hex="004C"/>
  <outline>
    <contour>
      <point x="1040" y="-25" type="curve" smooth="yes" name="hr03"/>
      <point x="1156" y="-25"/>
      <point x="1270" y="-2"/>
      <point x="1378" y="95" type="curve" smooth="yes"/>
      <point x="1389" y="105"/>
      <point x="1398" y="121"/>
      <point x="1394" y="131" type="curve" smooth="yes"/>
      <point x="1391" y="137"/>
      <point x="1382" y="135"/>
      <point x="1374" y="127" type="curve" smooth="yes"/>
      <point x="1354" y="106"/>
      <point x="1270" y="24"/>
      <point x="1047" y="24" type="curve" smooth="yes"/>
      <point x="866" y="24"/>
      <point x="727" y="48"/>
      <point x="612" y="89" type="curve"/>
      <point x="764" y="169"/>
      <point x="903" y="301"/>
      <point x="1049" y="496" type="curve"/>
      <point x="1502" y="566"/>
      <point x="2099" y="999"/>
      <point x="2099" y="1280" type="curve" smooth="yes"/>
      <point x="2099" y="1353"/>
      <point x="2031" y="1401"/>
      <point x="1933" y="1401" type="curve" smooth="yes"/>
      <point x="1646" y="1401"/>
      <point x="1389" y="1210"/>
      <point x="1056" y="712" type="curve" smooth="yes"/>
      <point x="1007" y="639"/>
      <point x="962" y="574"/>
      <point x="920" y="515" type="curve"/>
      <point x="673" y="518"/>
      <point x="515" y="608"/>
      <point x="515" y="814" type="curve" smooth="yes"/>
      <point x="515" y="946"/>
      <point x="616" y="1101"/>
      <point x="823" y="1121" type="curve" smooth="yes"/>
      <point x="855" y="1124"/>
      <point x="855" y="1126"/>
      <point x="855" y="1133" type="curve" smooth="yes"/>
      <point x="855" y="1137"/>
      <point x="855" y="1145"/>
      <point x="833" y="1145" type="curve" smooth="yes"/>
      <point x="627" y="1145"/>
      <point x="440" y="961"/>
      <point x="440" y="790" type="curve" smooth="yes"/>
      <point x="440" y="617"/>
      <point x="623" y="495"/>
      <point x="899" y="486" type="curve"/>
      <point x="759" y="295"/>
      <point x="653" y="179"/>
      <point x="551" y="112" type="curve"/>
      <point x="424" y="157"/>
      <point x="324" y="182"/>
      <point x="224" y="182" type="curve" smooth="yes"/>
      <point x="90" y="182"/>
      <point x="0" y="142"/>
      <point x="0" y="80" type="curve" smooth="yes"/>
      <point x="0" y="40"/>
      <point x="69" y="-2"/>
      <point x="220" y="-2" type="curve" smooth="yes" name="hr01"/>
      <point x="347" y="-2"/>
      <point x="460" y="20"/>
      <point x="566" y="67" type="curve"/>
      <point x="700" y="28"/>
      <point x="903" y="-25"/>
    </contour>
    <contour>
      <point x="206" y="22" type="curve" smooth="yes"/>
      <point x="95" y="22"/>
      <point x="28" y="59"/>
      <point x="28" y="81" type="curve" smooth="yes"/>
      <point x="28" y="111"/>
      <point x="98" y="131"/>
      <point x="232" y="131" type="curve" smooth="yes"/>
      <point x="312" y="131"/>
      <point x="416" y="110"/>
      <point x="506" y="85" type="curve"/>
      <point x="413" y="35"/>
      <point x="321" y="22"/>
    </contour>
    <contour>
      <point x="1073" y="528" type="curve"/>
      <point x="1147" y="629"/>
      <point x="1224" y="746"/>
      <point x="1306" y="880" type="curve" smooth="yes"/>
      <point x="1502" y="1199"/>
      <point x="1712" y="1378"/>
      <point x="1927" y="1378" type="curve" smooth="yes"/>
      <point x="1987" y="1378"/>
      <point x="2032" y="1333"/>
      <point x="2032" y="1286" type="curve" smooth="yes"/>
      <point x="2032" y="1017"/>
      <point x="1513" y="606"/>
    </contour>
  </outline>
</glyph>
<glyph name="P" format="1">
  <advance width="1766"/>
  <unicode hex="0050"/>
  <outline>
    <contour>
      <point x="212" y="-2" type="curve" smooth="yes" name="hr01"/>
      <point x="402" y="-2"/>
      <point x="642" y="142"/>
      <point x="970" y="582" type="curve"/>
      <point x="1013" y="573"/>
      <point x="1062" y="568"/>
      <point x="1116" y="568" type="curve" smooth="yes"/>
      <point x="1444" y="568"/>
      <point x="1762" y="805"/>
      <point x="1762" y="1054" type="curve" smooth="yes"/>
      <point x="1762" y="1158"/>
      <point x="1709" y="1250"/>
      <point x="1601" y="1314" type="curve"/>
      <point x="1648" y="1344"/>
      <point x="1695" y="1365"/>
      <point x="1740" y="1374" type="curve"/>
      <point x="1762" y="1377"/>
      <point x="1766" y="1382"/>
      <point x="1766" y="1390" type="curve" smooth="yes"/>
      <point x="1765" y="1400"/>
      <point x="1756" y="1400"/>
      <point x="1746" y="1400" type="curve" smooth="yes"/>
      <point x="1714" y="1400"/>
      <point x="1648" y="1380"/>
      <point x="1565" y="1333" type="curve"/>
      <point x="1469" y="1379"/>
      <point x="1339" y="1406"/>
      <point x="1172" y="1406" type="curve" smooth="yes"/>
      <point x="709" y="1406"/>
      <point x="198" y="1115"/>
      <point x="209" y="789" type="curve" smooth="yes"/>
      <point x="212" y="689"/>
      <point x="298" y="622"/>
      <point x="373" y="622" type="curve" smooth="yes" name="hr03"/>
      <point x="720" y="622"/>
      <point x="936" y="978"/>
      <point x="927" y="1210" type="curve"/>
      <point x="927" y="1231"/>
      <point x="927" y="1241"/>
      <point x="917" y="1241" type="curve" smooth="yes"/>
      <point x="910" y="1241"/>
      <point x="905" y="1233"/>
      <point x="903" y="1207" type="curve"/>
      <point x="887" y="1070"/>
      <point x="616" y="649"/>
      <point x="376" y="649" type="curve" smooth="yes"/>
      <point x="319" y="649"/>
      <point x="244" y="686"/>
      <point x="240" y="795" type="curve" smooth="yes"/>
      <point x="231" y="1059"/>
      <point x="664" y="1384"/>
      <point x="1174" y="1384" type="curve" smooth="yes"/>
      <point x="1337" y="1384"/>
      <point x="1455" y="1359"/>
      <point x="1531" y="1313" type="curve"/>
      <point x="1490" y="1286" type="line"/>
      <point x="1276" y="1139"/>
      <point x="1104" y="962"/>
      <point x="886" y="669" type="curve" smooth="yes"/>
      <point x="872" y="650" type="line"/>
      <point x="851" y="664"/>
      <point x="839" y="680"/>
      <point x="839" y="695" type="curve" smooth="yes"/>
      <point x="839" y="747"/>
      <point x="871" y="789"/>
      <point x="933" y="799" type="curve" smooth="yes"/>
      <point x="944" y="801"/>
      <point x="945" y="805"/>
      <point x="945" y="807" type="curve" smooth="yes"/>
      <point x="945" y="807"/>
      <point x="945" y="817"/>
      <point x="920" y="817" type="curve" smooth="yes"/>
      <point x="862" y="817"/>
      <point x="799" y="774"/>
      <point x="799" y="714" type="curve" smooth="yes"/>
      <point x="799" y="680"/>
      <point x="819" y="650"/>
      <point x="855" y="626" type="curve"/>
      <point x="480" y="109"/>
      <point x="370" y="26"/>
      <point x="199" y="26" type="curve" smooth="yes"/>
      <point x="101" y="26"/>
      <point x="40" y="68"/>
      <point x="40" y="127" type="curve" smooth="yes"/>
      <point x="40" y="132" type="line"/>
      <point x="53" y="124"/>
      <point x="70" y="122"/>
      <point x="87" y="122" type="curve" smooth="yes"/>
      <point x="117" y="122"/>
      <point x="144" y="146"/>
      <point x="144" y="172" type="curve" smooth="yes"/>
      <point x="144" y="204"/>
      <point x="114" y="218"/>
      <point x="94" y="218" type="curve" smooth="yes"/>
      <point x="53" y="218"/>
      <point x="0" y="194"/>
      <point x="0" y="135" type="curve" smooth="yes"/>
      <point x="0" y="59"/>
      <point x="66" y="-2"/>
    </contour>
    <contour>
      <point x="1112" y="594" type="curve" smooth="yes"/>
      <point x="1069" y="594"/>
      <point x="1027" y="599"/>
      <point x="989" y="607" type="curve"/>
      <point x="1019" y="648"/>
      <point x="1050" y="691"/>
      <point x="1082" y="738" type="curve"/>
      <point x="1261" y="988"/>
      <point x="1419" y="1183"/>
      <point x="1565" y="1289" type="curve"/>
      <point x="1617" y="1246"/>
      <point x="1642" y="1188"/>
      <point x="1642" y="1119" type="curve" smooth="yes"/>
      <point x="1642" y="774"/>
      <point x="1326" y="594"/>
    </contour>
  </outline>
</glyph>
<glyph name="Q" format="1">
  <advance width="1779"/>
  <unicode hex="0051"/>
  <outline>
    <contour>
      <point x="1465" y="-230" type="curve" smooth="yes"/>
      <point x="1519" y="-230"/>
      <point x="1588" y="-217"/>
      <point x="1641" y="-197" type="curve"/>
      <point x="1715" y="-172"/>
      <point x="1779" y="-119"/>
      <point x="1779" y="-105" type="curve" smooth="yes"/>
      <point x="1779" y="-99"/>
      <point x="1774" y="-93"/>
      <point x="1767" y="-93" type="curve" smooth="yes"/>
      <point x="1762" y="-93"/>
      <point x="1759" y="-96"/>
      <point x="1754" y="-99" type="curve"/>
      <point x="1717" y="-130" type="line"/>
      <point x="1672" y="-163"/>
      <point x="1593" y="-190"/>
      <point x="1509" y="-190" type="curve" smooth="yes"/>
      <point x="1380" y="-190"/>
      <point x="1184" y="-127"/>
      <point x="816" y="47" type="curve" smooth="yes"/>
      <point x="792" y="58"/>
      <point x="767" y="68"/>
      <point x="742" y="78" type="curve"/>
      <point x="1201" y="241"/>
      <point x="1591" y="639"/>
      <point x="1591" y="1073" type="curve" smooth="yes"/>
      <point x="1591" y="1308"/>
      <point x="1441" y="1401"/>
      <point x="1263" y="1401" type="curve" smooth="yes"/>
      <point x="1129" y="1401"/>
      <point x="955" y="1357"/>
      <point x="830" y="1280" type="curve" smooth="yes"/>
      <point x="537" y="1098"/>
      <point x="399" y="872"/>
      <point x="399" y="702" type="curve" smooth="yes"/>
      <point x="399" y="573"/>
      <point x="477" y="477"/>
      <point x="623" y="477" type="curve" smooth="yes"/>
      <point x="913" y="477"/>
      <point x="1253" y="828"/>
      <point x="1253" y="1134" type="curve" smooth="yes"/>
      <point x="1253" y="1162"/>
      <point x="1245" y="1165"/>
      <point x="1237" y="1165" type="curve" smooth="yes"/>
      <point x="1233" y="1165"/>
      <point x="1231" y="1162"/>
      <point x="1226" y="1135" type="curve" smooth="yes"/>
      <point x="1176" y="868"/>
      <point x="828" y="500"/>
      <point x="628" y="500" type="curve" smooth="yes"/>
      <point x="493" y="500"/>
      <point x="457" y="581"/>
      <point x="457" y="655" type="curve" smooth="yes"/>
      <point x="457" y="799"/>
      <point x="713" y="1138"/>
      <point x="953" y="1281" type="curve" smooth="yes"/>
      <point x="1048" y="1338"/>
      <point x="1152" y="1377"/>
      <point x="1253" y="1377" type="curve" smooth="yes"/>
      <point x="1449" y="1377"/>
      <point x="1538" y="1280"/>
      <point x="1538" y="1121" type="curve" smooth="yes"/>
      <point x="1538" y="811"/>
      <point x="1153" y="372"/>
      <point x="835" y="188" type="curve" smooth="yes"/>
      <point x="781" y="157"/>
      <point x="726" y="128"/>
      <point x="671" y="104" type="curve"/>
      <point x="515" y="158"/>
      <point x="342" y="193"/>
      <point x="212" y="193" type="curve" smooth="yes"/>
      <point x="93" y="193"/>
      <point x="0" y="146"/>
      <point x="0" y="104" type="curve" smooth="yes"/>
      <point x="0" y="55"/>
      <point x="87" y="1"/>
      <point x="311" y="1" type="curve" smooth="yes" name="hr00"/>
      <point x="411" y="1"/>
      <point x="513" y="14"/>
      <point x="612" y="39" type="curve"/>
      <point x="669" y="14"/>
      <point x="733" y="-16"/>
      <point x="808" y="-52" type="curve" smooth="yes"/>
      <point x="1101" y="-193"/>
      <point x="1282" y="-230"/>
    </contour>
    <contour>
      <point x="307" y="26" type="curve" smooth="yes"/>
      <point x="167" y="26"/>
      <point x="66" y="56"/>
      <point x="66" y="113" type="curve" smooth="yes"/>
      <point x="66" y="141"/>
      <point x="107" y="165"/>
      <point x="201" y="165" type="curve" smooth="yes"/>
      <point x="286" y="165"/>
      <point x="376" y="142"/>
      <point x="558" y="63" type="curve"/>
      <point x="480" y="39"/>
      <point x="398" y="26"/>
    </contour>
  </outline>
</glyph>
<glyph name="V" format="1">
  <advance width="1822"/>
  <unicode hex="0056"/>
  <outline>
    <contour>
      <point x="13" y="-43" type="curve" smooth="yes"/>
      <point x="21" y="-43"/>
      <point x="49" y="-33"/>
      <point x="92" y="-6" type="curve" smooth="yes" name="hr00"/>
      <point x="673" y="367"/>
      <point x="1127" y="686"/>
      <point x="1423" y="940" type="curve"/>
      <point x="1456" y="865"/>
      <point x="1524" y="813"/>
      <point x="1607" y="813" type="curve" smooth="yes"/>
      <point x="1626" y="813"/>
      <point x="1648" y="817"/>
      <point x="1658" y="822" type="curve" smooth="yes"/>
      <point x="1672" y="828"/>
      <point x="1678" y="834"/>
      <point x="1678" y="840" type="curve" smooth="yes"/>
      <point x="1678" y="846"/>
      <point x="1672" y="847"/>
      <point x="1664" y="847" type="curve" smooth="yes"/>
      <point x="1658" y="847"/>
      <point x="1653" y="845"/>
      <point x="1642" y="841" type="curve" smooth="yes"/>
      <point x="1634" y="838"/>
      <point x="1623" y="836"/>
      <point x="1609" y="836" type="curve" smooth="yes"/>
      <point x="1554" y="836"/>
      <point x="1485" y="878"/>
      <point x="1456" y="968" type="curve"/>
      <point x="1694" y="1176"/>
      <point x="1822" y="1340"/>
      <point x="1822" y="1453" type="curve" smooth="yes"/>
      <point x="1822" y="1510"/>
      <point x="1789" y="1534"/>
      <point x="1746" y="1534" type="curve" smooth="yes"/>
      <point x="1593" y="1534"/>
      <point x="1402" y="1282"/>
      <point x="1402" y="1044" type="curve" smooth="yes"/>
      <point x="1402" y="1035"/>
      <point x="1402" y="1027"/>
      <point x="1403" y="1018" type="curve"/>
      <point x="1046" y="702"/>
      <point x="525" y="312"/>
      <point x="212" y="102" type="curve"/>
      <point x="401" y="282"/>
      <point x="544" y="431"/>
      <point x="768" y="777" type="curve"/>
      <point x="972" y="1089"/>
      <point x="989" y="1191"/>
      <point x="1066" y="1267" type="curve"/>
      <point x="1102" y="1301"/>
      <point x="1123" y="1316"/>
      <point x="1135" y="1324" type="curve" smooth="yes"/>
      <point x="1149" y="1333"/>
      <point x="1162" y="1337"/>
      <point x="1161" y="1347" type="curve" smooth="yes"/>
      <point x="1161" y="1353"/>
      <point x="1153" y="1357"/>
      <point x="1148" y="1357" type="curve" smooth="yes"/>
      <point x="1126" y="1357"/>
      <point x="1062" y="1302"/>
      <point x="1034" y="1277" type="curve"/>
      <point x="759" y="1021"/>
      <point x="603" y="968"/>
      <point x="522" y="968" type="curve" smooth="yes"/>
      <point x="489" y="968"/>
      <point x="473" y="982"/>
      <point x="473" y="1003" type="curve"/>
      <point x="472" y="1023"/>
      <point x="494" y="1047"/>
      <point x="556" y="1109" type="curve" smooth="yes"/>
      <point x="621" y="1176"/>
      <point x="671" y="1267"/>
      <point x="669" y="1322" type="curve" smooth="yes"/>
      <point x="665" y="1398"/>
      <point x="589" y="1436"/>
      <point x="483" y="1436" type="curve" smooth="yes"/>
      <point x="384" y="1436"/>
      <point x="273" y="1394"/>
      <point x="204" y="1338" type="curve"/>
      <point x="190" y="1328"/>
      <point x="179" y="1318"/>
      <point x="180" y="1306" type="curve" smooth="yes"/>
      <point x="180" y="1300"/>
      <point x="183" y="1295"/>
      <point x="191" y="1295" type="curve" smooth="yes"/>
      <point x="198" y="1295"/>
      <point x="206" y="1302"/>
      <point x="216" y="1311" type="curve" smooth="yes"/>
      <point x="285" y="1368"/>
      <point x="375" y="1415"/>
      <point x="481" y="1415" type="curve" smooth="yes"/>
      <point x="541" y="1415"/>
      <point x="598" y="1399"/>
      <point x="600" y="1349" type="curve" smooth="yes"/>
      <point x="602" y="1310"/>
      <point x="538" y="1244"/>
      <point x="498" y="1202" type="curve" smooth="yes"/>
      <point x="433" y="1135"/>
      <point x="402" y="1086"/>
      <point x="404" y="1034" type="curve" smooth="yes"/>
      <point x="407" y="975"/>
      <point x="459" y="942"/>
      <point x="519" y="942" type="curve" smooth="yes"/>
      <point x="602" y="942"/>
      <point x="716" y="995"/>
      <point x="837" y="1081" type="curve"/>
      <point x="729" y="962"/>
      <point x="587" y="771"/>
      <point x="460" y="563" type="curve"/>
      <point x="274" y="263"/>
      <point x="148" y="67"/>
      <point x="49" y="0" type="curve" smooth="yes"/>
      <point x="37" y="-9"/>
      <point x="22" y="-14"/>
      <point x="16" y="-18" type="curve"/>
      <point x="4" y="-23"/>
      <point x="0" y="-27"/>
      <point x="0" y="-32" type="curve" smooth="yes"/>
      <point x="0" y="-38"/>
      <point x="6" y="-43"/>
    </contour>
    <contour>
      <point x="1442" y="1053" type="curve"/>
      <point x="1442" y="1064" type="line" smooth="yes"/>
      <point x="1442" y="1295"/>
      <point x="1610" y="1509"/>
      <point x="1746" y="1509" type="curve" smooth="yes"/>
      <point x="1762" y="1509"/>
      <point x="1787" y="1493"/>
      <point x="1787" y="1465" type="curve" smooth="yes"/>
      <point x="1787" y="1392"/>
      <point x="1645" y="1237"/>
    </contour>
  </outline>
</glyph>
<glyph name="W" format="1">
  <advance width="3003"/>
  <unicode hex="0057"/>
  <outline>
    <contour>
      <point x="342" y="-43" type="curve" smooth="yes"/>
      <point x="367" y="-43"/>
      <point x="426" y="-13"/>
      <point x="475" y="9" type="curve" smooth="yes"/>
      <point x="597" y="64"/>
      <point x="770" y="190"/>
      <point x="937" y="341" type="curve" smooth="yes"/>
      <point x="1308" y="677"/>
      <point x="1507" y="891"/>
      <point x="1657" y="1034" type="curve"/>
      <point x="1741" y="1112"/>
      <point x="1834" y="1181"/>
      <point x="1907" y="1236" type="curve"/>
      <point x="1803" y="1111"/>
      <point x="1607" y="869"/>
      <point x="1552" y="796" type="curve"/>
      <point x="1462" y="671"/>
      <point x="1332" y="466"/>
      <point x="1248" y="316" type="curve" smooth="yes"/>
      <point x="1097" y="47"/>
      <point x="1081" y="28"/>
      <point x="982" y="-5" type="curve" smooth="yes"/>
      <point x="966" y="-10"/>
      <point x="953" y="-17"/>
      <point x="953" y="-27" type="curve" smooth="yes"/>
      <point x="953" y="-39"/>
      <point x="961" y="-43"/>
      <point x="972" y="-43" type="curve" smooth="yes"/>
      <point x="1005" y="-43"/>
      <point x="1132" y="19"/>
      <point x="1278" y="171" type="curve" smooth="yes"/>
      <point x="1599" y="506"/>
      <point x="1760" y="658"/>
      <point x="1947" y="838" type="curve" smooth="yes"/>
      <point x="2397" y="1269"/>
      <point x="2608" y="1379"/>
      <point x="2773" y="1379" type="curve" smooth="yes"/>
      <point x="2862" y="1379"/>
      <point x="2949" y="1354"/>
      <point x="2949" y="1269" type="curve" smooth="yes"/>
      <point x="2949" y="1154"/>
      <point x="2829" y="1096"/>
      <point x="2748" y="1096" type="curve" smooth="yes"/>
      <point x="2713" y="1096"/>
      <point x="2634" y="1115"/>
      <point x="2625" y="1164" type="curve" smooth="yes"/>
      <point x="2620" y="1192"/>
      <point x="2616" y="1198"/>
      <point x="2598" y="1198" type="curve" smooth="yes"/>
      <point x="2583" y="1198"/>
      <point x="2573" y="1187"/>
      <point x="2573" y="1165" type="curve" smooth="yes"/>
      <point x="2573" y="1121"/>
      <point x="2675" y="1076"/>
      <point x="2750" y="1076" type="curve" smooth="yes"/>
      <point x="2886" y="1076"/>
      <point x="3003" y="1155"/>
      <point x="3003" y="1271" type="curve" smooth="yes"/>
      <point x="3003" y="1362"/>
      <point x="2918" y="1410"/>
      <point x="2785" y="1410" type="curve" smooth="yes"/>
      <point x="2582" y="1410"/>
      <point x="2340" y="1246"/>
      <point x="2032" y="955" type="curve" smooth="yes"/>
      <point x="1611" y="557"/>
      <point x="1544" y="489"/>
      <point x="1257" y="190" type="curve"/>
      <point x="1350" y="310"/>
      <point x="1443" y="427"/>
      <point x="1480" y="479" type="curve"/>
      <point x="1643" y="701"/>
      <point x="1821" y="1034"/>
      <point x="1943" y="1229" type="curve"/>
      <point x="1990" y="1301"/>
      <point x="2060" y="1367"/>
      <point x="2112" y="1393" type="curve" smooth="yes"/>
      <point x="2160" y="1417"/>
      <point x="2169" y="1422"/>
      <point x="2169" y="1432" type="curve" smooth="yes"/>
      <point x="2169" y="1438"/>
      <point x="2166" y="1446"/>
      <point x="2154" y="1446" type="curve" smooth="yes"/>
      <point x="2146" y="1446"/>
      <point x="2123" y="1435"/>
      <point x="2049" y="1382" type="curve"/>
      <point x="1983" y="1333"/>
      <point x="1740" y="1166"/>
      <point x="1213" y="644" type="curve"/>
      <point x="782" y="219"/>
      <point x="644" y="130"/>
      <point x="490" y="43" type="curve" name="hr00"/>
      <point x="731" y="249"/>
      <point x="933" y="445"/>
      <point x="1190" y="803" type="curve" smooth="yes"/>
      <point x="1479" y="1204"/>
      <point x="1527" y="1265"/>
      <point x="1607" y="1346" type="curve"/>
      <point x="1641" y="1383"/>
      <point x="1664" y="1395"/>
      <point x="1678" y="1403" type="curve"/>
      <point x="1691" y="1414"/>
      <point x="1705" y="1417"/>
      <point x="1705" y="1427" type="curve" smooth="yes"/>
      <point x="1705" y="1434"/>
      <point x="1697" y="1436"/>
      <point x="1687" y="1436" type="curve" smooth="yes"/>
      <point x="1672" y="1436"/>
      <point x="1639" y="1419"/>
      <point x="1612" y="1392" type="curve" smooth="yes"/>
      <point x="1578" y="1360"/>
      <point x="1463" y="1245"/>
      <point x="1412" y="1196" type="curve" smooth="yes"/>
      <point x="1226" y="1017"/>
      <point x="1095" y="880"/>
      <point x="970" y="724" type="curve" smooth="yes"/>
      <point x="832" y="551"/>
      <point x="747" y="432"/>
      <point x="640" y="275" type="curve" smooth="yes"/>
      <point x="480" y="40"/>
      <point x="426" y="6"/>
      <point x="363" y="-3" type="curve"/>
      <point x="326" y="-13"/>
      <point x="318" y="-18"/>
      <point x="318" y="-28" type="curve" smooth="yes"/>
      <point x="318" y="-36"/>
      <point x="326" y="-43"/>
    </contour>
    <contour>
      <point x="14" y="881" type="curve" smooth="yes"/>
      <point x="22" y="881"/>
      <point x="35" y="890"/>
      <point x="35" y="907" type="curve" smooth="yes"/>
      <point x="35" y="948"/>
      <point x="65" y="1003"/>
      <point x="99" y="1044" type="curve"/>
      <point x="198" y="1168"/>
      <point x="383" y="1249"/>
      <point x="540" y="1249" type="curve" smooth="yes"/>
      <point x="620" y="1249"/>
      <point x="672" y="1239"/>
      <point x="760" y="1210" type="curve" smooth="yes"/>
      <point x="892" y="1167"/>
      <point x="975" y="1147"/>
      <point x="1085" y="1147" type="curve" smooth="yes"/>
      <point x="1222" y="1147"/>
      <point x="1355" y="1188"/>
      <point x="1503" y="1324" type="curve" smooth="yes"/>
      <point x="1516" y="1335"/>
      <point x="1519" y="1339"/>
      <point x="1519" y="1345" type="curve" smooth="yes"/>
      <point x="1519" y="1349"/>
      <point x="1516" y="1352"/>
      <point x="1509" y="1352" type="curve" smooth="yes"/>
      <point x="1506" y="1352"/>
      <point x="1496" y="1344"/>
      <point x="1477" y="1328" type="curve" smooth="yes"/>
      <point x="1374" y="1243"/>
      <point x="1246" y="1204"/>
      <point x="1174" y="1204" type="curve" smooth="yes"/>
      <point x="1087" y="1204"/>
      <point x="1032" y="1222"/>
      <point x="906" y="1267" type="curve"/>
      <point x="807" y="1301"/>
      <point x="695" y="1328"/>
      <point x="594" y="1328" type="curve" smooth="yes"/>
      <point x="442" y="1328"/>
      <point x="257" y="1263"/>
      <point x="112" y="1109" type="curve" smooth="yes"/>
      <point x="25" y="1015"/>
      <point x="0" y="925"/>
      <point x="0" y="897" type="curve" smooth="yes"/>
      <point x="0" y="890"/>
      <point x="4" y="881"/>
    </contour>
  </outline>
</glyph>
<glyph name="X" format="1">
  <advance width="2333"/>
  <unicode hex="0058"/>
  <outline>
    <contour>
      <point x="225" y="-2" type="curve" smooth="yes" name="hr01"/>
      <point x="409" y="-2"/>
      <point x="752" y="190"/>
      <point x="1045" y="548" type="curve"/>
      <point x="990" y="446"/>
      <point x="948" y="318"/>
      <point x="945" y="213" type="curve" smooth="yes"/>
      <point x="942" y="70"/>
      <point x="1031" y="-2"/>
      <point x="1187" y="-2" type="curve" smooth="yes"/>
      <point x="1424" y="-2"/>
      <point x="1752" y="270"/>
      <point x="1759" y="554" type="curve" smooth="yes"/>
      <point x="1762" y="669"/>
      <point x="1700" y="736"/>
      <point x="1609" y="736" type="curve" smooth="yes" name="hr03"/>
      <point x="1497" y="736"/>
      <point x="1386" y="635"/>
      <point x="1384" y="512" type="curve" smooth="yes"/>
      <point x="1383" y="441"/>
      <point x="1413" y="404"/>
      <point x="1441" y="392" type="curve"/>
      <point x="1453" y="388"/>
      <point x="1466" y="386"/>
      <point x="1472" y="398" type="curve" smooth="yes"/>
      <point x="1478" y="408"/>
      <point x="1475" y="418"/>
      <point x="1463" y="427" type="curve" smooth="yes"/>
      <point x="1433" y="448"/>
      <point x="1425" y="481"/>
      <point x="1426" y="514" type="curve" smooth="yes"/>
      <point x="1428" y="616"/>
      <point x="1512" y="711"/>
      <point x="1603" y="711" type="curve" smooth="yes"/>
      <point x="1674" y="711"/>
      <point x="1725" y="658"/>
      <point x="1722" y="544" type="curve" smooth="yes"/>
      <point x="1715" y="245"/>
      <point x="1382" y="22"/>
      <point x="1196" y="22" type="curve" smooth="yes"/>
      <point x="1124" y="22"/>
      <point x="1048" y="49"/>
      <point x="1050" y="178" type="curve"/>
      <point x="1054" y="279"/>
      <point x="1138" y="502"/>
      <point x="1246" y="683" type="curve"/>
      <point x="1304" y="766"/>
      <point x="1345" y="808"/>
      <point x="1416" y="885" type="curve"/>
      <point x="1700" y="1174"/>
      <point x="1986" y="1393"/>
      <point x="2230" y="1393" type="curve" smooth="yes"/>
      <point x="2241" y="1393"/>
      <point x="2253" y="1390"/>
      <point x="2263" y="1387" type="curve"/>
      <point x="2248" y="1377"/>
      <point x="2235" y="1356"/>
      <point x="2235" y="1336" type="curve"/>
      <point x="2233" y="1311"/>
      <point x="2249" y="1280"/>
      <point x="2278" y="1280" type="curve" smooth="yes"/>
      <point x="2304" y="1280"/>
      <point x="2330" y="1301"/>
      <point x="2332" y="1342" type="curve"/>
      <point x="2333" y="1390"/>
      <point x="2290" y="1424"/>
      <point x="2227" y="1424" type="curve" smooth="yes"/>
      <point x="1982" y="1424"/>
      <point x="1656" y="1200"/>
      <point x="1287" y="784" type="curve" name="hr04"/>
      <point x="1335" y="888"/>
      <point x="1377" y="1030"/>
      <point x="1381" y="1146" type="curve"/>
      <point x="1386" y="1373"/>
      <point x="1278" y="1436"/>
      <point x="1123" y="1436" type="curve" smooth="yes" name="hr05"/>
      <point x="852" y="1436"/>
      <point x="490" y="1073"/>
      <point x="485" y="862" type="curve"/>
      <point x="484" y="785"/>
      <point x="528" y="748"/>
      <point x="600" y="748" type="curve" smooth="yes"/>
      <point x="864" y="748"/>
      <point x="1172" y="1114"/>
      <point x="1170" y="1302" type="curve"/>
      <point x="1169" y="1329"/>
      <point x="1160" y="1335"/>
      <point x="1155" y="1335" type="curve" smooth="yes"/>
      <point x="1150" y="1335"/>
      <point x="1146" y="1332"/>
      <point x="1140" y="1319" type="curve" smooth="yes"/>
      <point x="1005" y="986"/>
      <point x="774" y="772"/>
      <point x="606" y="772" type="curve" smooth="yes"/>
      <point x="545" y="772"/>
      <point x="514" y="798"/>
      <point x="516" y="862" type="curve" smooth="yes"/>
      <point x="521" y="1054"/>
      <point x="854" y="1410"/>
      <point x="1125" y="1410" type="curve" smooth="yes"/>
      <point x="1243" y="1410"/>
      <point x="1310" y="1352"/>
      <point x="1307" y="1229" type="curve" smooth="yes"/>
      <point x="1304" y="1117"/>
      <point x="1197" y="870"/>
      <point x="1104" y="691" type="curve"/>
      <point x="862" y="318"/>
      <point x="439" y="26"/>
      <point x="231" y="26" type="curve" smooth="yes"/>
      <point x="124" y="26"/>
      <point x="39" y="68"/>
      <point x="41" y="157" type="curve" smooth="yes"/>
      <point x="41" y="163" type="line"/>
      <point x="54" y="154"/>
      <point x="71" y="153"/>
      <point x="88" y="153" type="curve" smooth="yes"/>
      <point x="118" y="153"/>
      <point x="145" y="177"/>
      <point x="145" y="203" type="curve" smooth="yes"/>
      <point x="146" y="235"/>
      <point x="118" y="249"/>
      <point x="96" y="249" type="curve" smooth="yes"/>
      <point x="55" y="249"/>
      <point x="3" y="225"/>
      <point x="1" y="165" type="curve"/>
      <point x="-1" y="60"/>
      <point x="104" y="-2"/>
    </contour>
  </outline>
</glyph>
<glyph name="backslash" format="1">
  <advance width="1024"/>
  <unicode hex="005C"/>
  <outline>
    <contour>
      <point x="962" y="-106" type="line" name="hr00"/>
      <point x="969" y="-105"/>
      <point x="978" y="-104"/>
      <point x="987" y="-104" type="curve" smooth="yes"/>
      <point x="1001" y="-104"/>
      <point x="1006" y="-105"/>
      <point x="1024" y="-106" type="curve"/>
      <point x="62" y="1382" type="line"/>
      <point x="53" y="1378"/>
      <point x="48" y="1376"/>
      <point x="38" y="1376" type="curve" smooth="yes"/>
      <point x="26" y="1376"/>
      <point x="7" y="1378"/>
      <point x="0" y="1378" type="curve"/>
    </contour>
  </outline>
</glyph>
<glyph name="bracketright" format="1">
  <advance width="1491"/>
  <unicode hex="005D"/>
  <outline>
    <contour>
      <point x="0" y="-203" type="curve" name="hr00"/>
      <point x="393" y="-203" type="line"/>
      <point x="591" y="98"/>
      <point x="684" y="231"/>
      <point x="876" y="515" type="curve" smooth="yes"/>
      <point x="1058" y="783"/>
      <point x="1200" y="984"/>
      <point x="1491" y="1404" type="curve"/>
      <point x="1086" y="1404" type="line"/>
      <point x="1083" y="1397"/>
      <point x="1079" y="1385"/>
      <point x="1073" y="1377" type="curve"/>
      <point x="1320" y="1377" type="line"/>
      <point x="1116" y="1047"/>
      <point x="1003" y="888"/>
      <point x="787" y="569" type="curve"/>
      <point x="626" y="328"/>
      <point x="489" y="129"/>
      <point x="263" y="-176" type="curve"/>
      <point x="16" y="-176" type="line"/>
      <point x="12" y="-187"/>
      <point x="5" y="-196"/>
    </contour>
  </outline>
</glyph>
<glyph name="asciicircum" format="1">
  <advance width="596"/>
  <unicode hex="005E"/>
  <outline>
    <contour>
      <point x="34" y="935" type="curve" name="hr00"/>
      <point x="298" y="1308" type="line"/>
      <point x="564" y="935" type="line"/>
      <point x="574" y="945"/>
      <point x="586" y="955"/>
      <point x="596" y="962" type="curve"/>
      <point x="298" y="1384" type="line"/>
      <point x="0" y="962" type="line"/>
      <point x="10" y="955"/>
      <point x="22" y="945"/>
    </contour>
  </outline>
</glyph>
<glyph name="b" format="1">
  <advance width="1311"/>
  <unicode hex="0062"/>
  <outline>
    <contour>
      <point x="128" y="-10" type="curve" smooth="yes" name="hr01"/>
      <point x="224" y="-10"/>
      <point x="374" y="39"/>
      <point x="505" y="185" type="curve"/>
      <point x="530" y="209"/>
      <point x="551" y="232"/>
      <point x="569" y="256" type="curve"/>
      <point x="573" y="213"/>
      <point x="595" y="186"/>
      <point x="652" y="186" type="curve" smooth="yes"/>
      <point x="755" y="186"/>
      <point x="877" y="340"/>
      <point x="921" y="389" type="curve"/>
      <point x="900" y="406" type="line"/>
      <point x="867" y="364"/>
      <point x="740" y="211"/>
      <point x="652" y="211" type="curve"/>
      <point x="601" y="213"/>
      <point x="596" y="243"/>
      <point x="596" y="264" type="curve" smooth="yes"/>
      <point x="596" y="275"/>
      <point x="595" y="285"/>
      <point x="597" y="294" type="curve"/>
      <point x="636" y="354"/>
      <point x="660" y="419"/>
      <point x="683" y="510" type="curve" smooth="yes" name="hr03"/>
      <point x="688" y="527"/>
      <point x="690" y="545"/>
      <point x="691" y="563" type="curve" smooth="yes"/>
      <point x="692" y="613"/>
      <point x="674" y="655"/>
      <point x="633" y="655" type="curve" smooth="yes"/>
      <point x="586" y="655"/>
      <point x="573" y="611"/>
      <point x="571" y="579" type="curve" smooth="yes"/>
      <point x="570" y="548"/>
      <point x="584" y="531"/>
      <point x="583" y="492" type="curve" smooth="yes"/>
      <point x="583" y="477"/>
      <point x="571" y="343"/>
      <point x="514" y="274" type="curve"/>
      <point x="416" y="99"/>
      <point x="259" y="15"/>
      <point x="130" y="15" type="curve" smooth="yes"/>
      <point x="93" y="15"/>
      <point x="55" y="31"/>
      <point x="55" y="100" type="curve" smooth="yes"/>
      <point x="55" y="188"/>
      <point x="145" y="348"/>
      <point x="454" y="727" type="curve"/>
      <point x="975" y="931"/>
      <point x="1311" y="1313"/>
      <point x="1311" y="1522" type="curve" smooth="yes"/>
      <point x="1311" y="1557"/>
      <point x="1286" y="1579"/>
      <point x="1238" y="1579" type="curve" smooth="yes"/>
      <point x="1000" y="1579"/>
      <point x="456" y="943"/>
      <point x="245" y="628" type="curve" smooth="yes"/>
      <point x="95" y="402"/>
      <point x="0" y="247"/>
      <point x="0" y="119" type="curve" smooth="yes"/>
      <point x="0" y="49"/>
      <point x="40" y="-10"/>
    </contour>
    <contour>
      <point x="487" y="767" type="curve"/>
      <point x="575" y="873" type="line" smooth="yes"/>
      <point x="856" y="1210"/>
      <point x="1112" y="1558"/>
      <point x="1238" y="1558" type="curve" smooth="yes"/>
      <point x="1262" y="1558"/>
      <point x="1277" y="1545"/>
      <point x="1277" y="1522" type="curve" smooth="yes"/>
      <point x="1277" y="1364"/>
      <point x="910" y="931"/>
    </contour>
  </outline>
</glyph>
<glyph name="c" format="1">
  <advance width="817"/>
  <unicode hex="0063"/>
  <outline>
    <contour>
      <point x="207" y="-6" type="curve" smooth="yes" name="hr00"/>
      <point x="548" y="-6"/>
      <point x="800" y="370"/>
      <point x="817" y="389" type="curve"/>
      <point x="795" y="406" type="line"/>
      <point x="779" y="388"/>
      <point x="536" y="23"/>
      <point x="213" y="23" type="curve" smooth="yes"/>
      <point x="145" y="23"/>
      <point x="97" y="71"/>
      <point x="97" y="129" type="curve" smooth="yes"/>
      <point x="97" y="187"/>
      <point x="119" y="260"/>
      <point x="192" y="357" type="curve" smooth="yes"/>
      <point x="349" y="562"/>
      <point x="474" y="659"/>
      <point x="564" y="659" type="curve" smooth="yes"/>
      <point x="618" y="659"/>
      <point x="639" y="635"/>
      <point x="640" y="601" type="curve" smooth="yes"/>
      <point x="640" y="597" type="line"/>
      <point x="625" y="604"/>
      <point x="606" y="609"/>
      <point x="589" y="608" type="curve" smooth="yes"/>
      <point x="548" y="606"/>
      <point x="513" y="578"/>
      <point x="514" y="541" type="curve" smooth="yes"/>
      <point x="515" y="502"/>
      <point x="548" y="482"/>
      <point x="579" y="482" type="curve" smooth="yes"/>
      <point x="631" y="482"/>
      <point x="688" y="535"/>
      <point x="685" y="592" type="curve" smooth="yes"/>
      <point x="683" y="635"/>
      <point x="653" y="682"/>
      <point x="564" y="685" type="curve" smooth="yes"/>
      <point x="447" y="689"/>
      <point x="269" y="629"/>
      <point x="124" y="459" type="curve" smooth="yes"/>
      <point x="40" y="359"/>
      <point x="0" y="261"/>
      <point x="0" y="174" type="curve" smooth="yes"/>
      <point x="0" y="74"/>
      <point x="65" y="-6"/>
    </contour>
  </outline>
</glyph>
<glyph name="d" format="1">
  <advance width="1554"/>
  <unicode hex="0064"/>
  <outline>
    <contour>
      <point x="127" y="-2" type="curve" smooth="yes" name="hr00"/>
      <point x="208" y="-2"/>
      <point x="336" y="70"/>
      <point x="517" y="272" type="curve"/>
      <point x="525" y="268" type="line"/>
      <point x="444" y="171"/>
      <point x="406" y="111"/>
      <point x="405" y="66" type="curve" smooth="yes"/>
      <point x="405" y="26"/>
      <point x="430" y="-2"/>
      <point x="496" y="-2" type="curve" smooth="yes"/>
      <point x="732" y="-2"/>
      <point x="993" y="347"/>
      <point x="1036" y="389" type="curve"/>
      <point x="1014" y="406" type="line"/>
      <point x="976" y="368"/>
      <point x="733" y="28"/>
      <point x="512" y="28" type="curve" smooth="yes"/>
      <point x="492" y="28"/>
      <point x="487" y="36"/>
      <point x="487" y="55" type="curve" smooth="yes"/>
      <point x="487" y="89"/>
      <point x="527" y="147"/>
      <point x="604" y="250" type="curve"/>
      <point x="1554" y="1582" type="line"/>
      <point x="1537" y="1580"/>
      <point x="1522" y="1579"/>
      <point x="1511" y="1579" type="curve" smooth="yes"/>
      <point x="1476" y="1579"/>
      <point x="1446" y="1587"/>
      <point x="1427" y="1595" type="curve"/>
      <point x="1136" y="1187"/>
      <point x="881" y="817"/>
      <point x="721" y="586" type="curve"/>
      <point x="721" y="592"/>
      <point x="722" y="597"/>
      <point x="722" y="603" type="curve" smooth="yes"/>
      <point x="722" y="658"/>
      <point x="655" y="685"/>
      <point x="600" y="685" type="curve" smooth="yes"/>
      <point x="469" y="685"/>
      <point x="305" y="632"/>
      <point x="125" y="423" type="curve"/>
      <point x="37" y="323"/>
      <point x="0" y="218"/>
      <point x="0" y="129" type="curve" smooth="yes"/>
      <point x="0" y="47"/>
      <point x="43" y="-2"/>
    </contour>
    <contour>
      <point x="134" y="28" type="curve" smooth="yes"/>
      <point x="103" y="28"/>
      <point x="84" y="42"/>
      <point x="84" y="80" type="curve" smooth="yes"/>
      <point x="84" y="144"/>
      <point x="127" y="235"/>
      <point x="227" y="356" type="curve"/>
      <point x="402" y="562"/>
      <point x="551" y="654"/>
      <point x="616" y="654" type="curve" smooth="yes"/>
      <point x="653" y="654"/>
      <point x="692" y="635"/>
      <point x="692" y="594" type="curve" smooth="yes"/>
      <point x="692" y="570"/>
      <point x="683" y="542"/>
      <point x="669" y="513" type="curve"/>
      <point x="611" y="430"/>
      <point x="571" y="373"/>
      <point x="553" y="351" type="curve" smooth="yes"/>
      <point x="492" y="277"/>
      <point x="434" y="222"/>
      <point x="382" y="173" type="curve"/>
      <point x="259" y="62"/>
      <point x="187" y="28"/>
    </contour>
  </outline>
</glyph>
<glyph name="e" format="1">
  <advance width="794"/>
  <unicode hex="0065"/>
  <outline>
    <contour>
      <point x="185" y="-6" type="curve" smooth="yes" name="hr00"/>
      <point x="516" y="-6"/>
      <point x="744" y="344"/>
      <point x="794" y="389" type="curve"/>
      <point x="773" y="406" type="line"/>
      <point x="736" y="373"/>
      <point x="509" y="23"/>
      <point x="196" y="23" type="curve" smooth="yes"/>
      <point x="139" y="23"/>
      <point x="90" y="59"/>
      <point x="90" y="122" type="curve" smooth="yes"/>
      <point x="90" y="165"/>
      <point x="102" y="216"/>
      <point x="149" y="291" type="curve"/>
      <point x="547" y="423"/>
      <point x="661" y="541"/>
      <point x="656" y="619" type="curve" smooth="yes"/>
      <point x="654" y="654"/>
      <point x="626" y="685"/>
      <point x="545" y="685" type="curve" smooth="yes"/>
      <point x="418" y="685"/>
      <point x="219" y="597"/>
      <point x="71" y="391" type="curve" smooth="yes"/>
      <point x="37" y="344"/>
      <point x="-1" y="242"/>
      <point x="1" y="170" type="curve" smooth="yes"/>
      <point x="3" y="71"/>
      <point x="54" y="-6"/>
    </contour>
    <contour>
      <point x="172" y="326" type="curve"/>
      <point x="183" y="343"/>
      <point x="196" y="361"/>
      <point x="211" y="380" type="curve" smooth="yes"/>
      <point x="350" y="562"/>
      <point x="448" y="661"/>
      <point x="538" y="661" type="curve" smooth="yes"/>
      <point x="571" y="661"/>
      <point x="590" y="644"/>
      <point x="590" y="605" type="curve" smooth="yes"/>
      <point x="590" y="517"/>
      <point x="431" y="416"/>
    </contour>
  </outline>
</glyph>
<glyph name="f" format="1">
  <advance width="1650"/>
  <unicode hex="0066"/>
  <outline>
    <contour>
      <point x="99" y="-787" type="curve" smooth="yes"/>
      <point x="333" y="-787"/>
      <point x="548" y="-322"/>
      <point x="583" y="144" type="curve" name="hr00"/>
      <point x="624" y="208" type="line"/>
      <point x="657" y="184"/>
      <point x="698" y="167"/>
      <point x="749" y="162" type="curve" smooth="yes"/>
      <point x="1026" y="133"/>
      <point x="1168" y="348"/>
      <point x="1211" y="389" type="curve"/>
      <point x="1188" y="405" type="line"/>
      <point x="1119" y="321"/>
      <point x="995" y="171"/>
      <point x="750" y="187" type="curve" smooth="yes"/>
      <point x="705" y="190"/>
      <point x="668" y="207"/>
      <point x="639" y="232" type="curve"/>
      <point x="710" y="342" type="line"/>
      <point x="1122" y="601"/>
      <point x="1661" y="1210"/>
      <point x="1649" y="1493" type="curve"/>
      <point x="1648" y="1541"/>
      <point x="1620" y="1579"/>
      <point x="1563" y="1579" type="curve" smooth="yes"/>
      <point x="1461" y="1579"/>
      <point x="1288" y="1396"/>
      <point x="1097" y="1123" type="curve" smooth="yes"/>
      <point x="1048" y="1054"/>
      <point x="961" y="905"/>
      <point x="577" y="319" type="curve"/>
      <point x="569" y="336"/>
      <point x="563" y="353"/>
      <point x="560" y="368" type="curve"/>
      <point x="593" y="385"/>
      <point x="625" y="435"/>
      <point x="625" y="465" type="curve" smooth="yes"/>
      <point x="625" y="504"/>
      <point x="601" y="526"/>
      <point x="571" y="526" type="curve" smooth="yes"/>
      <point x="537" y="526"/>
      <point x="513" y="496"/>
      <point x="506" y="453" type="curve" smooth="yes"/>
      <point x="501" y="416"/>
      <point x="514" y="346"/>
      <point x="554" y="284" type="curve"/>
      <point x="463" y="147" type="line" smooth="yes"/>
      <point x="65" y="-455"/>
      <point x="-5" y="-581"/>
      <point x="1" y="-690" type="curve"/>
      <point x="2" y="-746"/>
      <point x="44" y="-787"/>
    </contour>
    <contour>
      <point x="106" y="-762" type="curve" smooth="yes"/>
      <point x="79" y="-762"/>
      <point x="61" y="-742"/>
      <point x="61" y="-720" type="curve" smooth="yes"/>
      <point x="61" y="-634"/>
      <point x="303" y="-282"/>
      <point x="550" y="94" type="curve"/>
      <point x="503" y="-419"/>
      <point x="221" y="-762"/>
    </contour>
    <contour>
      <point x="746" y="398" type="curve"/>
      <point x="952" y="718"/>
      <point x="1103" y="952"/>
      <point x="1288" y="1245" type="curve" smooth="yes"/>
      <point x="1447" y="1496"/>
      <point x="1515" y="1556"/>
      <point x="1558" y="1556" type="curve" smooth="yes"/>
      <point x="1583" y="1556"/>
      <point x="1603" y="1536"/>
      <point x="1604" y="1499" type="curve" smooth="yes"/>
      <point x="1613" y="1240"/>
      <point x="1115" y="648"/>
    </contour>
  </outline>
</glyph>
<glyph name="g" format="1">
  <advance width="1624"/>
  <unicode hex="0067"/>
  <outline>
    <contour>
      <point x="100" y="-787" type="curve" smooth="yes"/>
      <point x="315" y="-787"/>
      <point x="448" y="-705"/>
      <point x="845" y="-214" type="curve"/>
      <point x="1143" y="-72"/>
      <point x="1391" y="110"/>
      <point x="1624" y="389" type="curve"/>
      <point x="1604" y="406" type="line"/>
      <point x="1393" y="152"/>
      <point x="1162" y="-26"/>
      <point x="883" y="-168" type="curve"/>
      <point x="975" y="-52"/>
      <point x="1082" y="84"/>
      <point x="1206" y="246" type="curve"/>
      <point x="1528" y="661" type="line"/>
      <point x="1511" y="658"/>
      <point x="1471" y="657"/>
      <point x="1454" y="657" type="curve" smooth="yes"/>
      <point x="1431" y="657"/>
      <point x="1406" y="661"/>
      <point x="1391" y="665" type="curve"/>
      <point x="1365" y="629"/>
      <point x="1338" y="595"/>
      <point x="1297" y="544" type="curve"/>
      <point x="1305" y="564"/>
      <point x="1309" y="584"/>
      <point x="1309" y="603" type="curve" smooth="yes"/>
      <point x="1308" y="654"/>
      <point x="1252" y="685"/>
      <point x="1165" y="685" type="curve" smooth="yes"/>
      <point x="1039" y="685"/>
      <point x="868" y="632"/>
      <point x="697" y="423" type="curve"/>
      <point x="612" y="323"/>
      <point x="578" y="218"/>
      <point x="578" y="129" type="curve"/>
      <point x="580" y="47"/>
      <point x="619" y="-2"/>
      <point x="703" y="-2" type="curve" smooth="yes" name="hr00"/>
      <point x="787" y="-2"/>
      <point x="930" y="73"/>
      <point x="1105" y="272" type="curve"/>
      <point x="1113" y="268" type="line"/>
      <point x="950" y="64"/>
      <point x="819" y="-100"/>
      <point x="710" y="-233" type="curve"/>
      <point x="144" y="-473"/>
      <point x="-3" y="-609"/>
      <point x="1" y="-720" type="curve"/>
      <point x="1" y="-751"/>
      <point x="44" y="-787"/>
    </contour>
    <contour>
      <point x="103" y="-760" type="curve" smooth="yes"/>
      <point x="61" y="-760"/>
      <point x="34" y="-735"/>
      <point x="34" y="-720" type="curve" smooth="yes"/>
      <point x="34" y="-604"/>
      <point x="205" y="-480"/>
      <point x="675" y="-276" type="curve"/>
      <point x="348" y="-672"/>
      <point x="239" y="-760"/>
    </contour>
    <contour>
      <point x="710" y="28" type="curve" smooth="yes"/>
      <point x="677" y="28"/>
      <point x="663" y="42"/>
      <point x="661" y="80" type="curve"/>
      <point x="660" y="144"/>
      <point x="704" y="234"/>
      <point x="802" y="356" type="curve" smooth="yes"/>
      <point x="967" y="562"/>
      <point x="1128" y="654"/>
      <point x="1191" y="654" type="curve" smooth="yes"/>
      <point x="1246" y="654"/>
      <point x="1280" y="635"/>
      <point x="1281" y="594" type="curve"/>
      <point x="1281" y="550"/>
      <point x="1250" y="493"/>
      <point x="1218" y="446" type="curve"/>
      <point x="1140" y="351" type="line"/>
      <point x="934" y="111"/>
      <point x="785" y="28"/>
    </contour>
  </outline>
</glyph>
<glyph name="p" format="1">
  <advance width="1686"/>
  <unicode hex="0070"/>
  <outline>
    <contour>
      <point x="73" y="-709" type="curve" smooth="yes"/>
      <point x="124" y="-709"/>
      <point x="153" y="-705"/>
      <point x="167" y="-701" type="curve"/>
      <point x="182" y="-674"/>
      <point x="480" y="-202"/>
      <point x="646" y="19" type="curve" name="hr00"/>
      <point x="829" y="237"/>
      <point x="1106" y="498"/>
      <point x="1278" y="597" type="curve"/>
      <point x="1347" y="638"/>
      <point x="1404" y="660"/>
      <point x="1467" y="660" type="curve" smooth="yes"/>
      <point x="1493" y="660"/>
      <point x="1508" y="644"/>
      <point x="1508" y="628" type="curve" smooth="yes"/>
      <point x="1508" y="604"/>
      <point x="1497" y="573"/>
      <point x="1379" y="488" type="curve"/>
      <point x="1140" y="311"/>
      <point x="1050" y="187"/>
      <point x="1050" y="97" type="curve" smooth="yes"/>
      <point x="1050" y="36"/>
      <point x="1087" y="-2"/>
      <point x="1166" y="-2" type="curve" smooth="yes"/>
      <point x="1369" y="-2"/>
      <point x="1607" y="299"/>
      <point x="1686" y="389" type="curve"/>
      <point x="1664" y="406" type="line"/>
      <point x="1580" y="309"/>
      <point x="1358" y="26"/>
      <point x="1172" y="26" type="curve" smooth="yes"/>
      <point x="1126" y="26"/>
      <point x="1101" y="43"/>
      <point x="1101" y="71" type="curve" smooth="yes"/>
      <point x="1101" y="100"/>
      <point x="1128" y="132"/>
      <point x="1261" y="227" type="curve" smooth="yes"/>
      <point x="1485" y="385"/>
      <point x="1562" y="500"/>
      <point x="1562" y="602" type="curve" smooth="yes"/>
      <point x="1562" y="651"/>
      <point x="1534" y="685"/>
      <point x="1467" y="685" type="curve" smooth="yes"/>
      <point x="1386" y="685"/>
      <point x="1348" y="666"/>
      <point x="1286" y="634" type="curve" smooth="yes"/>
      <point x="1184" y="581"/>
      <point x="1036" y="459"/>
      <point x="827" y="258" type="curve"/>
      <point x="820" y="266" type="line"/>
      <point x="1062" y="592"/>
      <point x="1026" y="551"/>
      <point x="1380" y="978" type="curve"/>
      <point x="1361" y="972"/>
      <point x="1342" y="971"/>
      <point x="1323" y="971" type="curve" smooth="yes"/>
      <point x="1303" y="971"/>
      <point x="1277" y="972"/>
      <point x="1229" y="977" type="curve"/>
      <point x="946" y="592"/>
      <point x="945" y="604"/>
      <point x="753" y="337" type="curve"/>
      <point x="544" y="33"/>
      <point x="204" y="-424"/>
      <point x="0" y="-700" type="curve"/>
      <point x="18" y="-706"/>
      <point x="57" y="-709"/>
    </contour>
  </outline>
</glyph>
<glyph name="s" format="1">
  <advance width="879"/>
  <unicode hex="0073"/>
  <outline>
    <contour>
      <point x="196" y="-23" type="curve" smooth="yes" name="hr01"/>
      <point x="330" y="-23"/>
      <point x="490" y="21"/>
      <point x="553" y="160" type="curve"/>
      <point x="563" y="158"/>
      <point x="574" y="158"/>
      <point x="586" y="158" type="curve" smooth="yes"/>
      <point x="689" y="158"/>
      <point x="833" y="342"/>
      <point x="879" y="389" type="curve"/>
      <point x="857" y="406" type="line"/>
      <point x="830" y="369"/>
      <point x="675" y="182"/>
      <point x="589" y="182" type="curve" smooth="yes"/>
      <point x="579" y="182"/>
      <point x="570" y="183"/>
      <point x="562" y="184" type="curve"/>
      <point x="576" y="223"/>
      <point x="582" y="268"/>
      <point x="580" y="321" type="curve" name="hr03"/>
      <point x="574" y="426"/>
      <point x="539" y="562"/>
      <point x="541" y="634" type="curve" smooth="yes"/>
      <point x="541" y="654"/>
      <point x="536" y="657"/>
      <point x="572" y="700" type="curve" smooth="yes"/>
      <point x="603" y="736"/>
      <point x="617" y="755"/>
      <point x="618" y="771" type="curve"/>
      <point x="618" y="791"/>
      <point x="601" y="804"/>
      <point x="578" y="804" type="curve" smooth="yes"/>
      <point x="548" y="804"/>
      <point x="534" y="766"/>
      <point x="526" y="726" type="curve"/>
      <point x="448" y="626"/>
      <point x="306" y="458"/>
      <point x="261" y="406" type="curve" smooth="yes" name="hr04"/>
      <point x="243" y="384"/>
      <point x="224" y="363"/>
      <point x="227" y="357" type="curve" smooth="yes"/>
      <point x="232" y="348"/>
      <point x="243" y="351"/>
      <point x="245" y="351" type="curve" smooth="yes"/>
      <point x="243" y="351"/>
      <point x="255" y="357"/>
      <point x="282" y="389" type="curve" smooth="yes"/>
      <point x="339" y="458"/>
      <point x="442" y="585"/>
      <point x="518" y="679" type="curve"/>
      <point x="518" y="676"/>
      <point x="518" y="673"/>
      <point x="517" y="670" type="curve" smooth="yes"/>
      <point x="481" y="566"/>
      <point x="482" y="438"/>
      <point x="476" y="374" type="curve"/>
      <point x="443" y="101"/>
      <point x="267" y="13"/>
      <point x="183" y="13" type="curve" smooth="yes"/>
      <point x="142" y="13"/>
      <point x="26" y="23"/>
      <point x="26" y="99" type="curve" smooth="yes"/>
      <point x="26" y="144"/>
      <point x="67" y="172"/>
      <point x="82" y="187" type="curve"/>
      <point x="91" y="182"/>
      <point x="108" y="166"/>
      <point x="124" y="166" type="curve" smooth="yes"/>
      <point x="159" y="166"/>
      <point x="192" y="188"/>
      <point x="194" y="209" type="curve"/>
      <point x="194" y="234"/>
      <point x="179" y="247"/>
      <point x="153" y="247" type="curve" smooth="yes"/>
      <point x="116" y="247"/>
      <point x="0" y="199"/>
      <point x="0" y="100" type="curve" smooth="yes"/>
      <point x="0" y="-10"/>
      <point x="143" y="-23"/>
    </contour>
  </outline>
</glyph>
<glyph name="v" format="1">
  <advance width="1017"/>
  <unicode hex="0076"/>
  <outline>
    <contour>
      <point x="112" y="-2" type="curve" smooth="yes"/>
      <point x="268" y="-2"/>
      <point x="495" y="149"/>
      <point x="643" y="274" type="curve"/>
      <point x="614" y="210"/>
      <point x="630" y="168"/>
      <point x="695" y="168" type="curve" smooth="yes"/>
      <point x="802" y="168"/>
      <point x="950" y="316"/>
      <point x="1017" y="389" type="curve"/>
      <point x="996" y="406" type="line"/>
      <point x="944" y="347"/>
      <point x="794" y="193"/>
      <point x="703" y="193" type="curve" smooth="yes"/>
      <point x="631" y="193"/>
      <point x="652" y="260"/>
      <point x="697" y="322" type="curve"/>
      <point x="724" y="347" type="line"/>
      <point x="892" y="510"/>
      <point x="923" y="598"/>
      <point x="923" y="654" type="curve" smooth="yes"/>
      <point x="923" y="694"/>
      <point x="902" y="709"/>
      <point x="867" y="709" type="curve" smooth="yes"/>
      <point x="823" y="709"/>
      <point x="788" y="674"/>
      <point x="788" y="625" type="curve" smooth="yes"/>
      <point x="788" y="512"/>
      <point x="768" y="424"/>
      <point x="623" y="295" type="curve"/>
      <point x="469" y="160"/>
      <point x="273" y="24"/>
      <point x="126" y="24" type="curve" smooth="yes" name="hr00"/>
      <point x="92" y="24"/>
      <point x="70" y="26"/>
      <point x="70" y="70" type="curve" smooth="yes"/>
      <point x="70" y="141"/>
      <point x="266" y="328"/>
      <point x="332" y="398" type="curve" smooth="yes"/>
      <point x="426" y="498"/>
      <point x="461" y="552"/>
      <point x="599" y="676" type="curve"/>
      <point x="581" y="674"/>
      <point x="558" y="673"/>
      <point x="527" y="673" type="curve" smooth="yes"/>
      <point x="496" y="673"/>
      <point x="484" y="675"/>
      <point x="442" y="679" type="curve"/>
      <point x="341" y="578"/>
      <point x="252" y="490"/>
      <point x="193" y="415" type="curve" smooth="yes"/>
      <point x="28" y="209"/>
      <point x="0" y="152"/>
      <point x="0" y="81" type="curve" smooth="yes"/>
      <point x="0" y="30"/>
      <point x="38" y="-2"/>
    </contour>
  </outline>
</glyph>
<glyph name="x" format="1">
  <advance width="1127"/>
  <unicode hex="0078"/>
  <outline>
    <contour>
      <point x="85" y="-2" type="curve" smooth="yes"/>
      <point x="175" y="-2"/>
      <point x="341" y="84"/>
      <point x="475" y="268" type="curve"/>
      <point x="459" y="217"/>
      <point x="451" y="177"/>
      <point x="451" y="149" type="curve" smooth="yes"/>
      <point x="451" y="39"/>
      <point x="522" y="-2"/>
      <point x="595" y="-2" type="curve" smooth="yes"/>
      <point x="815" y="-2"/>
      <point x="1111" y="375"/>
      <point x="1127" y="389" type="curve"/>
      <point x="1106" y="407" type="line"/>
      <point x="1094" y="393"/>
      <point x="811" y="26"/>
      <point x="608" y="26" type="curve" smooth="yes"/>
      <point x="570" y="26"/>
      <point x="542" y="41"/>
      <point x="542" y="82" type="curve" smooth="yes"/>
      <point x="542" y="122"/>
      <point x="553" y="171"/>
      <point x="592" y="254" type="curve"/>
      <point x="604" y="276"/>
      <point x="616" y="297"/>
      <point x="626" y="318" type="curve"/>
      <point x="732" y="502"/>
      <point x="884" y="636"/>
      <point x="968" y="636" type="curve" smooth="yes" name="hr03"/>
      <point x="972" y="636"/>
      <point x="978" y="636"/>
      <point x="985" y="635" type="curve"/>
      <point x="988" y="584"/>
      <point x="1013" y="553"/>
      <point x="1058" y="553" type="curve" smooth="yes"/>
      <point x="1083" y="553"/>
      <point x="1115" y="572"/>
      <point x="1115" y="613" type="curve" smooth="yes"/>
      <point x="1115" y="644"/>
      <point x="1092" y="685"/>
      <point x="1022" y="685" type="curve" smooth="yes"/>
      <point x="906" y="685"/>
      <point x="771" y="574"/>
      <point x="679" y="452" type="curve"/>
      <point x="691" y="493"/>
      <point x="697" y="526"/>
      <point x="697" y="548" type="curve" smooth="yes"/>
      <point x="697" y="634"/>
      <point x="650" y="685"/>
      <point x="574" y="685" type="curve" smooth="yes" name="hr04"/>
      <point x="488" y="685"/>
      <point x="418" y="650"/>
      <point x="200" y="406" type="curve"/>
      <point x="198" y="401"/>
      <point x="201" y="398"/>
      <point x="203" y="396" type="curve" smooth="yes"/>
      <point x="211" y="389"/>
      <point x="217" y="388"/>
      <point x="221" y="389" type="curve"/>
      <point x="426" y="622"/>
      <point x="496" y="654"/>
      <point x="563" y="654" type="curve" smooth="yes"/>
      <point x="597" y="654"/>
      <point x="610" y="634"/>
      <point x="610" y="602" type="curve" smooth="yes"/>
      <point x="610" y="561"/>
      <point x="602" y="520"/>
      <point x="543" y="435" type="curve"/>
      <point x="427" y="214"/>
      <point x="269" y="66"/>
      <point x="142" y="66" type="curve" smooth="yes" name="hr01"/>
      <point x="126" y="66"/>
      <point x="118" y="71"/>
      <point x="102" y="83" type="curve" smooth="yes"/>
      <point x="87" y="93"/>
      <point x="77" y="98"/>
      <point x="61" y="98" type="curve" smooth="yes"/>
      <point x="28" y="98"/>
      <point x="0" y="74"/>
      <point x="0" y="51" type="curve" smooth="yes"/>
      <point x="0" y="17"/>
      <point x="21" y="-2"/>
    </contour>
  </outline>
</glyph>
<glyph name="z" format="1">
  <advance width="1347"/>
  <unicode hex="007A"/>
  <outline>
    <contour>
      <point x="87" y="-787" type="curve" smooth="yes"/>
      <point x="372" y="-787"/>
      <point x="796" y="-408"/>
      <point x="796" y="-147" type="curve" smooth="yes"/>
      <point x="796" y="-133"/>
      <point x="795" y="-120"/>
      <point x="793" y="-109" type="curve"/>
      <point x="1029" y="27"/>
      <point x="1179" y="214"/>
      <point x="1321" y="389" type="curve"/>
      <point x="1300" y="406" type="line"/>
      <point x="1173" y="244"/>
      <point x="1026" y="61"/>
      <point x="788" y="-83" type="curve"/>
      <point x="773" y="-26"/>
      <point x="733" y="2"/>
      <point x="673" y="8" type="curve"/>
      <point x="792" y="75"/>
      <point x="929" y="183"/>
      <point x="1047" y="473" type="curve"/>
      <point x="1214" y="490"/>
      <point x="1347" y="586"/>
      <point x="1347" y="650" type="curve" smooth="yes"/>
      <point x="1347" y="682"/>
      <point x="1317" y="708"/>
      <point x="1255" y="708" type="curve" smooth="yes"/>
      <point x="1161" y="708"/>
      <point x="1039" y="641"/>
      <point x="924" y="495" type="curve"/>
      <point x="835" y="517"/>
      <point x="784" y="581"/>
      <point x="784" y="630" type="curve" smooth="yes"/>
      <point x="784" y="700"/>
      <point x="857" y="700"/>
      <point x="857" y="764" type="curve" smooth="yes"/>
      <point x="857" y="787"/>
      <point x="836" y="803"/>
      <point x="804" y="803" type="curve" smooth="yes"/>
      <point x="746" y="803"/>
      <point x="708" y="748"/>
      <point x="708" y="691" type="curve" smooth="yes"/>
      <point x="708" y="659"/>
      <point x="715" y="627"/>
      <point x="730" y="597" type="curve"/>
      <point x="700" y="540"/>
      <point x="681" y="496"/>
      <point x="604" y="406" type="curve"/>
      <point x="567" y="361"/>
      <point x="522" y="307"/>
      <point x="522" y="306" type="curve" smooth="yes"/>
      <point x="522" y="302"/>
      <point x="525" y="301"/>
      <point x="529" y="301" type="curve" smooth="yes"/>
      <point x="532" y="301"/>
      <point x="558" y="311"/>
      <point x="625" y="389" type="curve" smooth="yes"/>
      <point x="687" y="462"/>
      <point x="722" y="525"/>
      <point x="747" y="571" type="curve" name="hr03"/>
      <point x="779" y="527"/>
      <point x="832" y="492"/>
      <point x="910" y="477" type="curve"/>
      <point x="881" y="438"/>
      <point x="852" y="394"/>
      <point x="825" y="345" type="curve" smooth="yes"/>
      <point x="665" y="48"/>
      <point x="631" y="11"/>
      <point x="513" y="-41" type="curve" smooth="yes"/>
      <point x="473" y="-58"/>
      <point x="465" y="-70"/>
      <point x="465" y="-76" type="curve" smooth="yes"/>
      <point x="465" y="-80"/>
      <point x="485" y="-92"/>
      <point x="493" y="-92" type="curve" smooth="yes"/>
      <point x="504" y="-92"/>
      <point x="501" y="-85"/>
      <point x="532" y="-67" type="curve" smooth="yes"/>
      <point x="566" y="-46"/>
      <point x="604" y="-29"/>
      <point x="645" y="-7" type="curve" name="hr01"/>
      <point x="647" y="-7" type="line" smooth="yes"/>
      <point x="671" y="-7"/>
      <point x="696" y="-33"/>
      <point x="696" y="-90" type="curve" smooth="yes"/>
      <point x="696" y="-103"/>
      <point x="695" y="-117"/>
      <point x="693" y="-131" type="curve"/>
      <point x="275" y="-365"/>
      <point x="0" y="-566"/>
      <point x="0" y="-705" type="curve" smooth="yes"/>
      <point x="0" y="-749"/>
      <point x="25" y="-787"/>
    </contour>
    <contour>
      <point x="87" y="-762" type="curve" smooth="yes"/>
      <point x="44" y="-762"/>
      <point x="30" y="-736"/>
      <point x="30" y="-710" type="curve" smooth="yes"/>
      <point x="30" y="-561"/>
      <point x="315" y="-378"/>
      <point x="687" y="-161" type="curve"/>
      <point x="623" y="-429"/>
      <point x="241" y="-762"/>
    </contour>
    <contour>
      <point x="1055" y="493" type="curve"/>
      <point x="1115" y="633"/>
      <point x="1194" y="687"/>
      <point x="1254" y="687" type="curve" smooth="yes"/>
      <point x="1291" y="687"/>
      <point x="1313" y="671"/>
      <point x="1313" y="651" type="curve" smooth="yes"/>
      <point x="1313" y="593"/>
      <point x="1196" y="513"/>
    </contour>
  </outline>
</glyph>
<glyph name="bar" format="1">
  <advance width="1387"/>
  <unicode hex="007C"/>
  <outline>
    <contour>
      <point x="0" y="-423" type="line"/>
      <point x="20" y="-421"/>
      <point x="27" y="-421"/>
      <point x="38" y="-421" type="curve" smooth="yes" name="hr00"/>
      <point x="47" y="-421"/>
      <point x="58" y="-422"/>
      <point x="62" y="-423" type="curve"/>
      <point x="1387" y="1582" type="line"/>
      <point x="1370" y="1580"/>
      <point x="1360" y="1579"/>
      <point x="1347" y="1579" type="curve" smooth="yes"/>
      <point x="1338" y="1579"/>
      <point x="1325" y="1581"/>
      <point x="1323" y="1583" type="curve"/>
    </contour>
  </outline>
</glyph>
<glyph name="braceright" format="1">
  <advance width="1065"/>
  <unicode hex="007D"/>
  <outline>
    <contour>
      <point x="20" y="-197" type="curve" smooth="yes"/>
      <point x="111" y="-197"/>
      <point x="225" y="-165"/>
      <point x="307" y="-105" type="curve"/>
      <point x="437" y="-7"/>
      <point x="516" y="95"/>
      <point x="729" y="402" type="curve"/>
      <point x="802" y="510"/>
      <point x="829" y="530"/>
      <point x="908" y="530" type="curve" smooth="yes"/>
      <point x="925" y="530"/>
      <point x="931" y="535"/>
      <point x="931" y="540" type="curve" smooth="yes"/>
      <point x="931" y="546"/>
      <point x="925" y="552"/>
      <point x="917" y="555" type="curve" smooth="yes"/>
      <point x="892" y="567"/>
      <point x="880" y="585"/>
      <point x="880" y="619" type="curve" smooth="yes"/>
      <point x="880" y="650"/>
      <point x="892" y="686"/>
      <point x="966" y="842" type="curve"/>
      <point x="1017" y="953"/>
      <point x="1065" y="1038"/>
      <point x="1065" y="1140" type="curve" smooth="yes"/>
      <point x="1065" y="1239"/>
      <point x="1035" y="1307"/>
      <point x="958" y="1399" type="curve"/>
      <point x="947" y="1415"/>
      <point x="936" y="1418"/>
      <point x="928" y="1418" type="curve" smooth="yes"/>
      <point x="921" y="1418"/>
      <point x="916" y="1415"/>
      <point x="916" y="1406" type="curve" smooth="yes"/>
      <point x="916" y="1400"/>
      <point x="918" y="1395"/>
      <point x="925" y="1390" type="curve" smooth="yes"/>
      <point x="961" y="1359"/>
      <point x="975" y="1322"/>
      <point x="975" y="1250" type="curve" smooth="yes"/>
      <point x="975" y="1138"/>
      <point x="928" y="1028"/>
      <point x="847" y="862" type="curve" smooth="yes"/>
      <point x="801" y="768"/>
      <point x="776" y="707"/>
      <point x="776" y="653" type="curve" smooth="yes"/>
      <point x="776" y="623"/>
      <point x="788" y="589"/>
      <point x="815" y="566" type="curve"/>
      <point x="732" y="539"/>
      <point x="643" y="472"/>
      <point x="584" y="399" type="curve"/>
      <point x="487" y="275"/>
      <point x="426" y="175"/>
      <point x="379" y="98" type="curve" smooth="yes"/>
      <point x="315" y="-9"/>
      <point x="288" y="-49"/>
      <point x="239" y="-92" type="curve" smooth="yes"/>
      <point x="187" y="-138"/>
      <point x="144" y="-164"/>
      <point x="31" y="-174" type="curve" smooth="yes"/>
      <point x="9" y="-176"/>
      <point x="0" y="-177"/>
      <point x="0" y="-186" type="curve" smooth="yes" name="hr00"/>
      <point x="0" y="-192"/>
      <point x="4" y="-197"/>
    </contour>
  </outline>
</glyph>
<glyph name="asciitilde" format="1">
  <advance width="829"/>
  <unicode hex="007E"/>
  <outline>
    <contour>
      <point x="610" y="283" type="curve" smooth="yes"/>
      <point x="704" y="283"/>
      <point x="793" y="359"/>
      <point x="829" y="461" type="curve"/>
      <point x="784" y="475" type="line"/>
      <point x="742" y="381"/>
      <point x="679" y="331"/>
      <point x="609" y="331" type="curve" smooth="yes"/>
      <point x="553" y="331"/>
      <point x="507" y="350"/>
      <point x="423" y="400" type="curve" smooth="yes"/>
      <point x="316" y="465"/>
      <point x="274" y="488"/>
      <point x="212" y="488" type="curve" smooth="yes"/>
      <point x="118" y="488"/>
      <point x="37" y="412"/>
      <point x="0" y="319" type="curve" name="hr00"/>
      <point x="45" y="300" type="line"/>
      <point x="77" y="380"/>
      <point x="141" y="438"/>
      <point x="211" y="438" type="curve" smooth="yes"/>
      <point x="263" y="438"/>
      <point x="308" y="412"/>
      <point x="393" y="359" type="curve"/>
      <point x="500" y="295"/>
      <point x="548" y="283"/>
    </contour>
  </outline>
</glyph>
<glyph name="sterling" format="1">
  <advance width="2016"/>
  <unicode hex="00A3"/>
  <outline>
    <contour>
      <point x="1092" y="-50" type="curve" smooth="yes"/>
      <point x="1276" y="-50"/>
      <point x="1429" y="48"/>
      <point x="1478" y="109" type="curve" smooth="yes"/>
      <point x="1480" y="112"/>
      <point x="1487" y="121"/>
      <point x="1487" y="129" type="curve" smooth="yes"/>
      <point x="1487" y="135"/>
      <point x="1483" y="139"/>
      <point x="1477" y="139" type="curve"/>
      <point x="1361" y="44"/>
      <point x="1266" y="19"/>
      <point x="1097" y="19" type="curve" smooth="yes" name="hr03"/>
      <point x="1016" y="19"/>
      <point x="815" y="38"/>
      <point x="594" y="121" type="curve"/>
      <point x="727" y="206"/>
      <point x="859" y="337"/>
      <point x="999" y="526" type="curve"/>
      <point x="1380" y="526" type="line"/>
      <point x="1381" y="534"/>
      <point x="1385" y="547"/>
      <point x="1392" y="555" type="curve"/>
      <point x="1020" y="555" type="line"/>
      <point x="1084" y="643"/>
      <point x="1150" y="742"/>
      <point x="1219" y="855" type="curve" smooth="yes"/>
      <point x="1242" y="892" type="line"/>
      <point x="1696" y="907"/>
      <point x="2016" y="1107"/>
      <point x="2016" y="1311" type="curve" smooth="yes"/>
      <point x="2016" y="1370"/>
      <point x="1968" y="1409"/>
      <point x="1870" y="1409" type="curve" smooth="yes"/>
      <point x="1682" y="1409"/>
      <point x="1405" y="1256"/>
      <point x="1125" y="915" type="curve"/>
      <point x="840" y="928"/>
      <point x="701" y="1028"/>
      <point x="701" y="1153" type="curve" smooth="yes"/>
      <point x="701" y="1296"/>
      <point x="873" y="1394"/>
      <point x="1044" y="1416" type="curve" smooth="yes"/>
      <point x="1070" y="1419"/>
      <point x="1077" y="1422"/>
      <point x="1077" y="1427" type="curve" smooth="yes"/>
      <point x="1077" y="1432"/>
      <point x="1073" y="1435"/>
      <point x="1055" y="1435" type="curve" smooth="yes"/>
      <point x="996" y="1435"/>
      <point x="897" y="1409"/>
      <point x="824" y="1371" type="curve"/>
      <point x="719" y="1314"/>
      <point x="637" y="1232"/>
      <point x="637" y="1137" type="curve" smooth="yes"/>
      <point x="637" y="1010"/>
      <point x="803" y="908"/>
      <point x="1107" y="893" type="curve"/>
      <point x="1059" y="832"/>
      <point x="1010" y="766"/>
      <point x="962" y="694" type="curve" smooth="yes"/>
      <point x="928" y="644"/>
      <point x="897" y="598"/>
      <point x="867" y="555" type="curve"/>
      <point x="686" y="555" type="line"/>
      <point x="680" y="547"/>
      <point x="671" y="534"/>
      <point x="660" y="526" type="curve"/>
      <point x="847" y="526" type="line"/>
      <point x="716" y="338"/>
      <point x="619" y="219"/>
      <point x="532" y="144" type="curve"/>
      <point x="365" y="204"/>
      <point x="291" y="204"/>
      <point x="231" y="204" type="curve" smooth="yes"/>
      <point x="81" y="204"/>
      <point x="0" y="146"/>
      <point x="0" y="96" type="curve" smooth="yes" name="hr01"/>
      <point x="0" y="49"/>
      <point x="65" y="-2"/>
      <point x="182" y="-2" type="curve" smooth="yes"/>
      <point x="304" y="-2"/>
      <point x="420" y="25"/>
      <point x="533" y="85" type="curve"/>
      <point x="534" y="85"/>
      <point x="536" y="84"/>
      <point x="537" y="84" type="curve" smooth="yes"/>
      <point x="770" y="-19"/>
      <point x="969" y="-50"/>
    </contour>
    <contour>
      <point x="209" y="27" type="curve" smooth="yes"/>
      <point x="82" y="27"/>
      <point x="36" y="68"/>
      <point x="36" y="98" type="curve" smooth="yes"/>
      <point x="36" y="136"/>
      <point x="97" y="169"/>
      <point x="205" y="169" type="curve" smooth="yes"/>
      <point x="322" y="169"/>
      <point x="373" y="157"/>
      <point x="485" y="107" type="curve"/>
      <point x="396" y="44"/>
      <point x="313" y="27"/>
    </contour>
    <contour>
      <point x="1257" y="915" type="curve"/>
      <point x="1445" y="1200"/>
      <point x="1661" y="1386"/>
      <point x="1862" y="1386" type="curve" smooth="yes"/>
      <point x="1922" y="1386"/>
      <point x="1946" y="1345"/>
      <point x="1946" y="1310" type="curve" smooth="yes"/>
      <point x="1946" y="1119"/>
      <point x="1668" y="934"/>
    </contour>
  </outline>
</glyph>
<glyph name="currency" format="1">
  <advance width="865"/>
  <unicode hex="00A4"/>
  <outline>
    <contour>
      <point x="23" y="8" type="curve"/>
      <point x="189" y="133" type="line"/>
      <point x="223" y="99"/>
      <point x="274" y="80"/>
      <point x="334" y="80" type="curve" smooth="yes"/>
      <point x="402" y="80"/>
      <point x="470" y="102"/>
      <point x="528" y="138" type="curve"/>
      <point x="606" y="15" type="line"/>
      <point x="615" y="22"/>
      <point x="620" y="28"/>
      <point x="633" y="34" type="curve"/>
      <point x="552" y="155" type="line"/>
      <point x="646" y="222"/>
      <point x="711" y="327"/>
      <point x="711" y="432" type="curve" smooth="yes"/>
      <point x="711" y="466"/>
      <point x="703" y="494"/>
      <point x="688" y="518" type="curve"/>
      <point x="865" y="648" type="line"/>
      <point x="858" y="654"/>
      <point x="845" y="662"/>
      <point x="842" y="673" type="curve"/>
      <point x="669" y="543" type="line"/>
      <point x="636" y="575"/>
      <point x="587" y="593"/>
      <point x="525" y="593" type="curve" smooth="yes"/>
      <point x="468" y="593"/>
      <point x="408" y="575"/>
      <point x="354" y="546" type="curve"/>
      <point x="277" y="669" type="line"/>
      <point x="267" y="661"/>
      <point x="263" y="654"/>
      <point x="250" y="649" type="curve"/>
      <point x="327" y="531" type="line"/>
      <point x="224" y="466"/>
      <point x="144" y="359"/>
      <point x="144" y="247" type="curve" smooth="yes"/>
      <point x="144" y="211"/>
      <point x="153" y="181"/>
      <point x="170" y="156" type="curve"/>
      <point x="0" y="31" type="line" name="hr00"/>
      <point x="6" y="24"/>
      <point x="21" y="18"/>
    </contour>
    <contour>
      <point x="340" y="112" type="curve" smooth="yes"/>
      <point x="254" y="112"/>
      <point x="197" y="164"/>
      <point x="197" y="258" type="curve" smooth="yes"/>
      <point x="197" y="404"/>
      <point x="356" y="560"/>
      <point x="516" y="560" type="curve" smooth="yes"/>
      <point x="608" y="560"/>
      <point x="666" y="505"/>
      <point x="666" y="410" type="curve" smooth="yes"/>
      <point x="666" y="254"/>
      <point x="502" y="112"/>
    </contour>
  </outline>
</glyph>
<glyph name="yen" format="1">
  <advance width="1589"/>
  <unicode hex="00A5"/>
  <outline>
    <contour>
      <point x="264" y="-2" type="curve" smooth="yes"/>
      <point x="459" y="-2"/>
      <point x="656" y="93"/>
      <point x="826" y="285" type="curve"/>
      <point x="1076" y="285" type="line"/>
      <point x="1078" y="293"/>
      <point x="1081" y="303"/>
      <point x="1089" y="312" type="curve" name="hr03"/>
      <point x="849" y="312" type="line"/>
      <point x="872" y="339"/>
      <point x="893" y="367"/>
      <point x="915" y="398" type="curve"/>
      <point x="1135" y="398" type="line"/>
      <point x="1135" y="407"/>
      <point x="1138" y="417"/>
      <point x="1145" y="426" type="curve"/>
      <point x="934" y="426" type="line" name="hr04"/>
      <point x="960" y="466"/>
      <point x="986" y="508"/>
      <point x="1011" y="554" type="curve" smooth="yes"/>
      <point x="1269" y="1031"/>
      <point x="1399" y="1161"/>
      <point x="1545" y="1219" type="curve"/>
      <point x="1575" y="1229" type="line"/>
      <point x="1587" y="1232"/>
      <point x="1589" y="1237"/>
      <point x="1589" y="1241" type="curve" smooth="yes"/>
      <point x="1589" y="1248"/>
      <point x="1586" y="1253"/>
      <point x="1572" y="1253" type="curve" smooth="yes"/>
      <point x="1520" y="1253"/>
      <point x="1394" y="1178"/>
      <point x="1247" y="1018" type="curve" smooth="yes"/>
      <point x="880" y="621"/>
      <point x="725" y="571"/>
      <point x="633" y="571" type="curve" smooth="yes"/>
      <point x="576" y="571"/>
      <point x="550" y="603"/>
      <point x="550" y="629" type="curve" smooth="yes"/>
      <point x="550" y="669"/>
      <point x="563" y="693"/>
      <point x="737" y="852" type="curve" smooth="yes"/>
      <point x="904" y="1004"/>
      <point x="960" y="1157"/>
      <point x="960" y="1260" type="curve" smooth="yes"/>
      <point x="960" y="1334"/>
      <point x="904" y="1379"/>
      <point x="819" y="1379" type="curve" smooth="yes"/>
      <point x="673" y="1379"/>
      <point x="465" y="1170"/>
      <point x="373" y="952" type="curve"/>
      <point x="365" y="935"/>
      <point x="363" y="930"/>
      <point x="363" y="921" type="curve" smooth="yes"/>
      <point x="363" y="915"/>
      <point x="367" y="910"/>
      <point x="375" y="910" type="curve" smooth="yes"/>
      <point x="382" y="910"/>
      <point x="389" y="918"/>
      <point x="391" y="922" type="curve" smooth="yes"/>
      <point x="480" y="1165"/>
      <point x="699" y="1355"/>
      <point x="816" y="1355" type="curve" smooth="yes"/>
      <point x="869" y="1355"/>
      <point x="909" y="1328"/>
      <point x="909" y="1282" type="curve" smooth="yes"/>
      <point x="909" y="1236"/>
      <point x="860" y="1140"/>
      <point x="648" y="931" type="curve"/>
      <point x="566" y="852"/>
      <point x="504" y="766"/>
      <point x="504" y="666" type="curve" smooth="yes"/>
      <point x="504" y="603"/>
      <point x="547" y="548"/>
      <point x="633" y="548" type="curve" smooth="yes"/>
      <point x="743" y="548"/>
      <point x="880" y="618"/>
      <point x="1093" y="829" type="curve"/>
      <point x="998" y="717"/>
      <point x="884" y="580"/>
      <point x="786" y="426" type="curve"/>
      <point x="569" y="426" type="line"/>
      <point x="565" y="417"/>
      <point x="554" y="407"/>
      <point x="544" y="398" type="curve"/>
      <point x="768" y="398" type="line"/>
      <point x="749" y="367"/>
      <point x="730" y="338"/>
      <point x="711" y="312" type="curve"/>
      <point x="511" y="312" type="line"/>
      <point x="508" y="303"/>
      <point x="497" y="293"/>
      <point x="487" y="285" type="curve"/>
      <point x="691" y="285" type="line"/>
      <point x="545" y="93"/>
      <point x="392" y="19"/>
      <point x="273" y="19" type="curve" smooth="yes"/>
      <point x="129" y="19"/>
      <point x="46" y="82"/>
      <point x="46" y="156" type="curve" smooth="yes" name="hr01"/>
      <point x="46" y="160"/>
      <point x="46" y="165"/>
      <point x="47" y="170" type="curve"/>
      <point x="88" y="174"/>
      <point x="110" y="199"/>
      <point x="110" y="220" type="curve" smooth="yes"/>
      <point x="110" y="246"/>
      <point x="95" y="263"/>
      <point x="68" y="263" type="curve" smooth="yes"/>
      <point x="31" y="263"/>
      <point x="0" y="231"/>
      <point x="0" y="184" type="curve" smooth="yes"/>
      <point x="0" y="75"/>
      <point x="114" y="-2"/>
    </contour>
  </outline>
</glyph>
<glyph name="dieresis" format="1">
  <advance width="460"/>
  <unicode hex="00A8"/>
  <outline>
    <contour>
      <point x="359" y="876" type="curve" smooth="yes" name="hr01"/>
      <point x="408" y="876"/>
      <point x="460" y="920"/>
      <point x="460" y="969" type="curve" smooth="yes"/>
      <point x="460" y="1004"/>
      <point x="436" y="1032"/>
      <point x="399" y="1032" type="curve" smooth="yes"/>
      <point x="344" y="1032"/>
      <point x="298" y="984"/>
      <point x="298" y="938" type="curve" smooth="yes"/>
      <point x="298" y="902"/>
      <point x="323" y="876"/>
    </contour>
    <contour>
      <point x="60" y="876" type="curve" smooth="yes"/>
      <point x="109" y="876"/>
      <point x="159" y="920"/>
      <point x="159" y="969" type="curve" smooth="yes"/>
      <point x="159" y="1004"/>
      <point x="138" y="1032"/>
      <point x="99" y="1032" type="curve" smooth="yes"/>
      <point x="45" y="1032"/>
      <point x="0" y="984"/>
      <point x="0" y="938" type="curve" smooth="yes"/>
      <point x="0" y="902"/>
      <point x="25" y="876"/>
    </contour>
  </outline>
</glyph>
<glyph name="guillemetleft" format="1">
  <advance width="658"/>
  <unicode hex="00AB"/>
  <outline>
    <contour>
      <point x="467" y="141" type="curve" smooth="yes"/>
      <point x="472" y="141"/>
      <point x="477" y="144"/>
      <point x="477" y="154" type="curve" smooth="yes"/>
      <point x="477" y="163"/>
      <point x="473" y="178"/>
      <point x="470" y="188" type="curve" smooth="yes"/>
      <point x="456" y="233"/>
      <point x="435" y="295"/>
      <point x="407" y="366" type="curve"/>
      <point x="509" y="455"/>
      <point x="596" y="559"/>
      <point x="638" y="609" type="curve" smooth="yes"/>
      <point x="655" y="629"/>
      <point x="658" y="634"/>
      <point x="658" y="643" type="curve" smooth="yes"/>
      <point x="658" y="648"/>
      <point x="653" y="652"/>
      <point x="649" y="652" type="curve" smooth="yes"/>
      <point x="641" y="652"/>
      <point x="633" y="646"/>
      <point x="616" y="628" type="curve"/>
      <point x="536" y="552"/>
      <point x="410" y="467"/>
      <point x="325" y="422" type="curve" smooth="yes"/>
      <point x="302" y="409"/>
      <point x="294" y="402"/>
      <point x="294" y="394" type="curve" smooth="yes" name="hr00"/>
      <point x="294" y="385"/>
      <point x="301" y="376"/>
      <point x="313" y="361" type="curve" smooth="yes"/>
      <point x="345" y="321"/>
      <point x="415" y="217"/>
      <point x="448" y="158" type="curve" smooth="yes"/>
      <point x="455" y="145"/>
      <point x="460" y="141"/>
    </contour>
    <contour>
      <point x="171" y="141" type="curve" smooth="yes"/>
      <point x="178" y="141"/>
      <point x="182" y="144"/>
      <point x="182" y="154" type="curve" smooth="yes"/>
      <point x="182" y="163"/>
      <point x="179" y="178"/>
      <point x="176" y="188" type="curve" smooth="yes"/>
      <point x="161" y="233"/>
      <point x="141" y="295"/>
      <point x="113" y="367" type="curve"/>
      <point x="216" y="456"/>
      <point x="302" y="559"/>
      <point x="343" y="609" type="curve"/>
      <point x="361" y="629"/>
      <point x="364" y="634"/>
      <point x="364" y="643" type="curve" smooth="yes"/>
      <point x="364" y="648"/>
      <point x="359" y="652"/>
      <point x="354" y="652" type="curve" smooth="yes"/>
      <point x="347" y="652"/>
      <point x="339" y="646"/>
      <point x="322" y="628" type="curve"/>
      <point x="241" y="552"/>
      <point x="115" y="467"/>
      <point x="31" y="422" type="curve" smooth="yes"/>
      <point x="8" y="409"/>
      <point x="0" y="402"/>
      <point x="0" y="394" type="curve" smooth="yes"/>
      <point x="0" y="385"/>
      <point x="6" y="376"/>
      <point x="19" y="361" type="curve"/>
      <point x="50" y="321"/>
      <point x="121" y="217"/>
      <point x="154" y="158" type="curve"/>
      <point x="160" y="145"/>
      <point x="166" y="141"/>
    </contour>
  </outline>
</glyph>
<glyph name="degree" format="1">
  <advance width="323"/>
  <unicode hex="00B0"/>
  <outline>
    <contour>
      <point x="159" y="1067" type="curve" smooth="yes" name="hr00"/>
      <point x="247" y="1067"/>
      <point x="323" y="1130"/>
      <point x="323" y="1228" type="curve" smooth="yes"/>
      <point x="323" y="1317"/>
      <point x="261" y="1384"/>
      <point x="169" y="1384" type="curve" smooth="yes"/>
      <point x="72" y="1384"/>
      <point x="0" y="1310"/>
      <point x="0" y="1219" type="curve" smooth="yes"/>
      <point x="0" y="1133"/>
      <point x="66" y="1067"/>
    </contour>
    <contour>
      <point x="163" y="1104" type="curve" smooth="yes"/>
      <point x="97" y="1104"/>
      <point x="42" y="1151"/>
      <point x="42" y="1221" type="curve" smooth="yes"/>
      <point x="42" y="1288"/>
      <point x="92" y="1347"/>
      <point x="164" y="1347" type="curve" smooth="yes"/>
      <point x="233" y="1347"/>
      <point x="282" y="1297"/>
      <point x="282" y="1225" type="curve" smooth="yes"/>
      <point x="282" y="1149"/>
      <point x="226" y="1104"/>
    </contour>
  </outline>
</glyph>
<glyph name="acute" format="1">
  <advance width="286"/>
  <unicode hex="00B4"/>
  <outline>
    <contour>
      <point x="12" y="788" type="curve" smooth="yes" name="hr00"/>
      <point x="22" y="788"/>
      <point x="37" y="796"/>
      <point x="61" y="811" type="curve" smooth="yes"/>
      <point x="190" y="889"/>
      <point x="286" y="1020"/>
      <point x="286" y="1094" type="curve" smooth="yes"/>
      <point x="286" y="1132"/>
      <point x="268" y="1149"/>
      <point x="243" y="1149" type="curve" smooth="yes"/>
      <point x="212" y="1149"/>
      <point x="196" y="1126"/>
      <point x="190" y="1078" type="curve"/>
      <point x="179" y="1003"/>
      <point x="169" y="966"/>
      <point x="150" y="934" type="curve" smooth="yes"/>
      <point x="118" y="883"/>
      <point x="64" y="842"/>
      <point x="25" y="820" type="curve"/>
      <point x="8" y="808"/>
      <point x="0" y="806"/>
      <point x="0" y="798" type="curve" smooth="yes"/>
      <point x="0" y="793"/>
      <point x="4" y="788"/>
    </contour>
  </outline>
</glyph>
<glyph name="periodcentered" format="1">
  <advance width="191"/>
  <unicode hex="00B7"/>
  <outline>
    <contour>
      <point x="71" y="371" type="curve" smooth="yes" name="hr00"/>
      <point x="130" y="371"/>
      <point x="191" y="424"/>
      <point x="191" y="481" type="curve" smooth="yes"/>
      <point x="191" y="525"/>
      <point x="164" y="555"/>
      <point x="119" y="555" type="curve" smooth="yes"/>
      <point x="54" y="555"/>
      <point x="0" y="500"/>
      <point x="0" y="445" type="curve" smooth="yes"/>
      <point x="0" y="401"/>
      <point x="30" y="371"/>
    </contour>
  </outline>
</glyph>
<glyph name="cedilla" format="1">
  <advance width="290"/>
  <unicode hex="00B8"/>
  <outline>
    <contour>
      <point x="17" y="-359" type="curve" smooth="yes"/>
      <point x="41" y="-359"/>
      <point x="122" y="-329"/>
      <point x="193" y="-279" type="curve" smooth="yes"/>
      <point x="243" y="-243"/>
      <point x="290" y="-196"/>
      <point x="290" y="-140" type="curve" smooth="yes"/>
      <point x="290" y="-96"/>
      <point x="254" y="-60"/>
      <point x="198" y="-60" type="curve" smooth="yes"/>
      <point x="185" y="-60"/>
      <point x="173" y="-62"/>
      <point x="163" y="-65" type="curve"/>
      <point x="213" y="10" type="line"/>
      <point x="185" y="18" type="line" name="hr00"/>
      <point x="87" y="-132" type="line"/>
      <point x="103" y="-127"/>
      <point x="114" y="-125"/>
      <point x="130" y="-125" type="curve" smooth="yes"/>
      <point x="178" y="-125"/>
      <point x="198" y="-143"/>
      <point x="198" y="-169" type="curve" smooth="yes"/>
      <point x="198" y="-242"/>
      <point x="136" y="-291"/>
      <point x="21" y="-328" type="curve" smooth="yes"/>
      <point x="3" y="-334"/>
      <point x="0" y="-340"/>
      <point x="0" y="-345" type="curve" smooth="yes"/>
      <point x="0" y="-357"/>
      <point x="7" y="-359"/>
    </contour>
  </outline>
</glyph>
<glyph name="onesuperior" format="1">
  <advance width="597"/>
  <unicode hex="00B9"/>
  <outline>
    <contour>
      <point x="0" y="572" type="line" name="hr00"/>
      <point x="12" y="576"/>
      <point x="46" y="579"/>
      <point x="70" y="579" type="curve" smooth="yes"/>
      <point x="88" y="579"/>
      <point x="128" y="576"/>
      <point x="141" y="575" type="curve"/>
      <point x="303" y="921"/>
      <point x="483" y="1243"/>
      <point x="564" y="1352" type="curve" smooth="yes"/>
      <point x="594" y="1393"/>
      <point x="597" y="1401"/>
      <point x="597" y="1409" type="curve" smooth="yes"/>
      <point x="597" y="1415"/>
      <point x="593" y="1422"/>
      <point x="584" y="1422" type="curve" smooth="yes"/>
      <point x="577" y="1422"/>
      <point x="568" y="1416"/>
      <point x="550" y="1391" type="curve"/>
      <point x="448" y="1238"/>
      <point x="219" y="1021"/>
      <point x="100" y="952" type="curve"/>
      <point x="94" y="947"/>
      <point x="78" y="939"/>
      <point x="70" y="937" type="curve"/>
      <point x="55" y="930"/>
      <point x="49" y="922"/>
      <point x="49" y="913" type="curve" smooth="yes"/>
      <point x="49" y="906"/>
      <point x="56" y="895"/>
      <point x="70" y="895" type="curve" smooth="yes"/>
      <point x="83" y="895"/>
      <point x="113" y="913"/>
      <point x="184" y="971" type="curve" smooth="yes"/>
      <point x="252" y="1026"/>
      <point x="326" y="1095"/>
      <point x="402" y="1174" type="curve"/>
    </contour>
  </outline>
</glyph>
<glyph name="onequarter" format="1">
  <advance width="1710"/>
  <unicode hex="00BC"/>
  <outline>
    <contour>
      <point x="246" y="22" type="line" name="hr00"/>
      <point x="265" y="23"/>
      <point x="279" y="24"/>
      <point x="292" y="24" type="curve" smooth="yes"/>
      <point x="301" y="24"/>
      <point x="310" y="23"/>
      <point x="317" y="22" type="curve"/>
      <point x="1279" y="1371" type="line"/>
      <point x="1275" y="1370"/>
      <point x="1255" y="1368"/>
      <point x="1244" y="1368" type="curve" smooth="yes"/>
      <point x="1232" y="1368"/>
      <point x="1220" y="1370"/>
      <point x="1211" y="1373" type="curve"/>
    </contour>
    <contour>
      <point x="0" y="391" type="line"/>
      <point x="12" y="395"/>
      <point x="46" y="398"/>
      <point x="70" y="398" type="curve" smooth="yes"/>
      <point x="88" y="398"/>
      <point x="128" y="395"/>
      <point x="141" y="394" type="curve"/>
      <point x="303" y="740"/>
      <point x="483" y="1062"/>
      <point x="564" y="1171" type="curve" smooth="yes"/>
      <point x="594" y="1212"/>
      <point x="597" y="1220"/>
      <point x="597" y="1228" type="curve" smooth="yes"/>
      <point x="597" y="1234"/>
      <point x="593" y="1241"/>
      <point x="584" y="1241" type="curve" smooth="yes"/>
      <point x="577" y="1241"/>
      <point x="568" y="1235"/>
      <point x="550" y="1210" type="curve"/>
      <point x="448" y="1057"/>
      <point x="219" y="840"/>
      <point x="100" y="771" type="curve"/>
      <point x="94" y="766"/>
      <point x="78" y="758"/>
      <point x="70" y="756" type="curve"/>
      <point x="55" y="749"/>
      <point x="49" y="741"/>
      <point x="49" y="732" type="curve" smooth="yes"/>
      <point x="49" y="725"/>
      <point x="56" y="714"/>
      <point x="70" y="714" type="curve" smooth="yes"/>
      <point x="83" y="714"/>
      <point x="113" y="732"/>
      <point x="184" y="790" type="curve" smooth="yes"/>
      <point x="252" y="845"/>
      <point x="326" y="914"/>
      <point x="402" y="993" type="curve"/>
    </contour>
    <contour>
      <point x="901" y="299" type="curve" smooth="yes"/>
      <point x="884" y="299"/>
      <point x="873" y="309"/>
      <point x="873" y="325" type="curve" smooth="yes"/>
      <point x="873" y="357"/>
      <point x="938" y="409"/>
      <point x="986" y="409" type="curve" smooth="yes"/>
      <point x="1006" y="409"/>
      <point x="1028" y="405"/>
      <point x="1058" y="397" type="curve"/>
      <point x="1045" y="385"/>
      <point x="1033" y="375"/>
      <point x="1022" y="366" type="curve" smooth="yes"/>
      <point x="947" y="306"/>
      <point x="925" y="299"/>
    </contour>
    <contour>
      <point x="1049" y="19" type="curve"/>
      <point x="1058" y="22"/>
      <point x="1082" y="24"/>
      <point x="1091" y="24" type="curve" smooth="yes"/>
      <point x="1109" y="24"/>
      <point x="1157" y="22"/>
      <point x="1175" y="19" type="curve"/>
      <point x="1230" y="109"/>
      <point x="1302" y="210"/>
      <point x="1377" y="305" type="curve"/>
      <point x="1422" y="297"/>
      <point x="1462" y="293"/>
      <point x="1497" y="293" type="curve" smooth="yes"/>
      <point x="1572" y="293"/>
      <point x="1646" y="312"/>
      <point x="1694" y="342" type="curve" smooth="yes"/>
      <point x="1709" y="351"/>
      <point x="1710" y="358"/>
      <point x="1710" y="363" type="curve" smooth="yes"/>
      <point x="1710" y="367"/>
      <point x="1707" y="372"/>
      <point x="1700" y="372" type="curve" smooth="yes"/>
      <point x="1694" y="372"/>
      <point x="1690" y="369"/>
      <point x="1661" y="356" type="curve"/>
      <point x="1628" y="336"/>
      <point x="1570" y="323"/>
      <point x="1520" y="323" type="curve" smooth="yes"/>
      <point x="1493" y="323"/>
      <point x="1450" y="327"/>
      <point x="1402" y="336" type="curve"/>
      <point x="1504" y="463"/>
      <point x="1606" y="573"/>
      <point x="1669" y="617" type="curve"/>
      <point x="1682" y="625"/>
      <point x="1686" y="630"/>
      <point x="1686" y="636" type="curve" smooth="yes"/>
      <point x="1686" y="641"/>
      <point x="1683" y="645"/>
      <point x="1675" y="645" type="curve" smooth="yes"/>
      <point x="1667" y="645"/>
      <point x="1662" y="644"/>
      <point x="1647" y="635" type="curve" smooth="yes"/>
      <point x="1567" y="586"/>
      <point x="1466" y="506"/>
      <point x="1326" y="353" type="curve"/>
      <point x="1305" y="358"/>
      <point x="1285" y="364"/>
      <point x="1265" y="370" type="curve" smooth="yes"/>
      <point x="1212" y="386"/>
      <point x="1172" y="399"/>
      <point x="1140" y="408" type="curve"/>
      <point x="1149" y="417" type="line" smooth="yes"/>
      <point x="1276" y="534"/>
      <point x="1366" y="628"/>
      <point x="1478" y="748" type="curve"/>
      <point x="1524" y="799"/>
      <point x="1560" y="826"/>
      <point x="1590" y="846" type="curve"/>
      <point x="1604" y="854"/>
      <point x="1611" y="856"/>
      <point x="1611" y="860" type="curve" smooth="yes"/>
      <point x="1611" y="865"/>
      <point x="1605" y="869"/>
      <point x="1588" y="869" type="curve" smooth="yes"/>
      <point x="1581" y="869"/>
      <point x="1520" y="864"/>
      <point x="1447" y="857" type="curve"/>
      <point x="1363" y="726"/>
      <point x="1200" y="534"/>
      <point x="1085" y="423" type="curve"/>
      <point x="1047" y="432"/>
      <point x="1022" y="435"/>
      <point x="994" y="435" type="curve" smooth="yes"/>
      <point x="902" y="435"/>
      <point x="833" y="384"/>
      <point x="833" y="334" type="curve" smooth="yes"/>
      <point x="833" y="301"/>
      <point x="854" y="274"/>
      <point x="903" y="274" type="curve" smooth="yes"/>
      <point x="958" y="274"/>
      <point x="1016" y="302"/>
      <point x="1109" y="382" type="curve"/>
      <point x="1181" y="358" type="line" smooth="yes"/>
      <point x="1223" y="343"/>
      <point x="1262" y="332"/>
      <point x="1298" y="322" type="curve"/>
      <point x="1226" y="242"/>
      <point x="1144" y="142"/>
    </contour>
  </outline>
</glyph>
<glyph name="onehalf" format="1">
  <advance width="1677"/>
  <unicode hex="00BD"/>
  <outline>
    <contour>
      <point x="246" y="22" type="line" name="hr01"/>
      <point x="265" y="23"/>
      <point x="279" y="24"/>
      <point x="292" y="24" type="curve" smooth="yes"/>
      <point x="301" y="24"/>
      <point x="310" y="23"/>
      <point x="317" y="22" type="curve"/>
      <point x="1279" y="1371" type="line"/>
      <point x="1275" y="1370"/>
      <point x="1255" y="1368"/>
      <point x="1244" y="1368" type="curve" smooth="yes"/>
      <point x="1232" y="1368"/>
      <point x="1220" y="1370"/>
      <point x="1211" y="1373" type="curve" name="hr03"/>
    </contour>
    <contour>
      <point x="0" y="391" type="line"/>
      <point x="12" y="395"/>
      <point x="46" y="398"/>
      <point x="70" y="398" type="curve" smooth="yes"/>
      <point x="88" y="398"/>
      <point x="128" y="395"/>
      <point x="141" y="394" type="curve"/>
      <point x="303" y="740"/>
      <point x="483" y="1062"/>
      <point x="564" y="1171" type="curve" smooth="yes"/>
      <point x="594" y="1212"/>
      <point x="597" y="1220"/>
      <point x="597" y="1228" type="curve" smooth="yes"/>
      <point x="597" y="1234"/>
      <point x="593" y="1241"/>
      <point x="584" y="1241" type="curve" smooth="yes" name="hr04"/>
      <point x="577" y="1241"/>
      <point x="568" y="1235"/>
      <point x="550" y="1210" type="curve"/>
      <point x="448" y="1057"/>
      <point x="219" y="840"/>
      <point x="100" y="771" type="curve"/>
      <point x="94" y="766"/>
      <point x="78" y="758"/>
      <point x="70" y="756" type="curve"/>
      <point x="55" y="749"/>
      <point x="49" y="741"/>
      <point x="49" y="732" type="curve" smooth="yes"/>
      <point x="49" y="725"/>
      <point x="56" y="714"/>
      <point x="70" y="714" type="curve" smooth="yes"/>
      <point x="83" y="714"/>
      <point x="113" y="732"/>
      <point x="184" y="790" type="curve" smooth="yes"/>
      <point x="252" y="845"/>
      <point x="326" y="914"/>
      <point x="402" y="993" type="curve"/>
    </contour>
    <contour>
      <point x="854" y="54" type="curve" smooth="yes"/>
      <point x="863" y="54"/>
      <point x="871" y="59"/>
      <point x="881" y="68" type="curve" smooth="yes"/>
      <point x="952" y="129"/>
      <point x="1031" y="160"/>
      <point x="1085" y="160" type="curve" smooth="yes"/>
      <point x="1131" y="160"/>
      <point x="1173" y="148"/>
      <point x="1230" y="100" type="curve"/>
      <point x="1272" y="67"/>
      <point x="1309" y="54"/>
      <point x="1353" y="54" type="curve" smooth="yes"/>
      <point x="1462" y="54"/>
      <point x="1579" y="166"/>
      <point x="1579" y="252" type="curve" smooth="yes"/>
      <point x="1579" y="266"/>
      <point x="1573" y="274"/>
      <point x="1565" y="274" type="curve" smooth="yes"/>
      <point x="1558" y="274"/>
      <point x="1554" y="266"/>
      <point x="1553" y="255" type="curve" smooth="yes"/>
      <point x="1545" y="196"/>
      <point x="1482" y="135"/>
      <point x="1410" y="135" type="curve" smooth="yes"/>
      <point x="1383" y="135"/>
      <point x="1357" y="146"/>
      <point x="1320" y="171" type="curve" smooth="yes"/>
      <point x="1275" y="201"/>
      <point x="1232" y="213"/>
      <point x="1173" y="213" type="curve" smooth="yes"/>
      <point x="1116" y="213"/>
      <point x="1044" y="198"/>
      <point x="956" y="151" type="curve"/>
      <point x="1012" y="197"/>
      <point x="1070" y="228"/>
      <point x="1232" y="301" type="curve"/>
      <point x="1509" y="423"/>
      <point x="1677" y="575"/>
      <point x="1677" y="739" type="curve" smooth="yes"/>
      <point x="1677" y="836"/>
      <point x="1611" y="913"/>
      <point x="1486" y="913" type="curve" smooth="yes"/>
      <point x="1288" y="913"/>
      <point x="1076" y="690"/>
      <point x="1076" y="539" type="curve" smooth="yes"/>
      <point x="1076" y="502"/>
      <point x="1099" y="439"/>
      <point x="1182" y="439" type="curve" smooth="yes"/>
      <point x="1222" y="439"/>
      <point x="1278" y="461"/>
      <point x="1318" y="492" type="curve"/>
      <point x="1377" y="541"/>
      <point x="1410" y="588"/>
      <point x="1410" y="603" type="curve" smooth="yes"/>
      <point x="1410" y="609"/>
      <point x="1407" y="613"/>
      <point x="1400" y="613" type="curve" smooth="yes"/>
      <point x="1395" y="613"/>
      <point x="1390" y="610"/>
      <point x="1382" y="601" type="curve"/>
      <point x="1320" y="519"/>
      <point x="1250" y="464"/>
      <point x="1187" y="464" type="curve" smooth="yes"/>
      <point x="1150" y="464"/>
      <point x="1137" y="486"/>
      <point x="1137" y="521" type="curve" smooth="yes"/>
      <point x="1137" y="627"/>
      <point x="1343" y="885"/>
      <point x="1481" y="885" type="curve" smooth="yes"/>
      <point x="1541" y="885"/>
      <point x="1580" y="839"/>
      <point x="1580" y="767" type="curve" smooth="yes"/>
      <point x="1580" y="572"/>
      <point x="1443" y="455"/>
      <point x="1196" y="326" type="curve" smooth="yes"/>
      <point x="925" y="185"/>
      <point x="843" y="103"/>
      <point x="843" y="67" type="curve" smooth="yes"/>
      <point x="843" y="59"/>
      <point x="848" y="54"/>
    </contour>
  </outline>
</glyph>
<glyph name="questiondown" format="1">
  <advance width="917"/>
  <unicode hex="00BF"/>
  <outline>
    <contour>
      <point x="230" y="-158" type="curve" smooth="yes"/>
      <point x="417" y="-158"/>
      <point x="588" y="3"/>
      <point x="588" y="86" type="curve" smooth="yes"/>
      <point x="588" y="116"/>
      <point x="568" y="142"/>
      <point x="537" y="142" type="curve" smooth="yes"/>
      <point x="496" y="142"/>
      <point x="468" y="110"/>
      <point x="466" y="66" type="curve"/>
      <point x="464" y="41"/>
      <point x="464" y="6"/>
      <point x="433" y="-40" type="curve" smooth="yes"/>
      <point x="403" y="-86"/>
      <point x="338" y="-133"/>
      <point x="251" y="-133" type="curve" smooth="yes"/>
      <point x="178" y="-133"/>
      <point x="125" y="-84"/>
      <point x="125" y="2" type="curve" smooth="yes"/>
      <point x="125" y="120"/>
      <point x="181" y="209"/>
      <point x="341" y="368" type="curve" smooth="yes"/>
      <point x="476" y="501"/>
      <point x="548" y="583"/>
      <point x="665" y="731" type="curve" smooth="yes"/>
      <point x="694" y="767"/>
      <point x="711" y="786"/>
      <point x="711" y="803" type="curve" smooth="yes"/>
      <point x="711" y="812"/>
      <point x="706" y="820"/>
      <point x="697" y="820" type="curve" smooth="yes"/>
      <point x="683" y="820"/>
      <point x="677" y="812"/>
      <point x="669" y="801" type="curve"/>
      <point x="661" y="787"/>
      <point x="661" y="776"/>
      <point x="643" y="751" type="curve" smooth="yes"/>
      <point x="585" y="671"/>
      <point x="443" y="518"/>
      <point x="297" y="403" type="curve" smooth="yes"/>
      <point x="24" y="188"/>
      <point x="0" y="110"/>
      <point x="0" y="28" type="curve" smooth="yes"/>
      <point x="0" y="-87"/>
      <point x="121" y="-158"/>
    </contour>
    <contour>
      <point x="814" y="973" type="curve" smooth="yes"/>
      <point x="871" y="973"/>
      <point x="917" y="1019"/>
      <point x="917" y="1065" type="curve" smooth="yes"/>
      <point x="917" y="1102"/>
      <point x="891" y="1129"/>
      <point x="855" y="1129" type="curve" smooth="yes"/>
      <point x="805" y="1129"/>
      <point x="753" y="1084"/>
      <point x="753" y="1036" type="curve" smooth="yes" name="hr00"/>
      <point x="753" y="998"/>
      <point x="777" y="973"/>
    </contour>
  </outline>
</glyph>
<glyph name="AE" format="1">
  <advance width="2710"/>
  <unicode hex="00C6"/>
  <outline>
    <contour>
      <point x="1591" y="-290" type="curve" smooth="yes"/>
      <point x="1597" y="-290"/>
      <point x="1604" y="-285"/>
      <point x="1604" y="-279" type="curve" smooth="yes"/>
      <point x="1604" y="-276"/>
      <point x="1601" y="-272"/>
      <point x="1593" y="-266" type="curve" smooth="yes"/>
      <point x="1547" y="-228"/>
      <point x="1515" y="-158"/>
      <point x="1515" y="-54" type="curve" smooth="yes"/>
      <point x="1515" y="-39"/>
      <point x="1516" y="-23"/>
      <point x="1518" y="-7" type="curve"/>
      <point x="1533" y="-8"/>
      <point x="1548" y="-9"/>
      <point x="1564" y="-9" type="curve" smooth="yes" name="hr02"/>
      <point x="1839" y="-9"/>
      <point x="2080" y="187"/>
      <point x="2080" y="381" type="curve" smooth="yes"/>
      <point x="2080" y="456"/>
      <point x="2037" y="505"/>
      <point x="1945" y="505" type="curve" smooth="yes"/>
      <point x="1775" y="505"/>
      <point x="1626" y="375"/>
      <point x="1540" y="182" type="curve" smooth="yes"/>
      <point x="1517" y="131"/>
      <point x="1503" y="76"/>
      <point x="1495" y="24" type="curve"/>
      <point x="1374" y="45"/>
      <point x="1309" y="118"/>
      <point x="1309" y="223" type="curve" smooth="yes"/>
      <point x="1309" y="392"/>
      <point x="1646" y="714"/>
      <point x="1881" y="714" type="curve" smooth="yes"/>
      <point x="1888" y="714" type="line"/>
      <point x="1920" y="646"/>
      <point x="1979" y="613"/>
      <point x="2037" y="613" type="curve" smooth="yes"/>
      <point x="2078" y="613"/>
      <point x="2091" y="629"/>
      <point x="2091" y="645" type="curve" smooth="yes"/>
      <point x="2091" y="682"/>
      <point x="2041" y="722"/>
      <point x="1937" y="740" type="curve" name="hr03"/>
      <point x="1937" y="760" type="line" smooth="yes"/>
      <point x="1937" y="906"/>
      <point x="2080" y="1137"/>
      <point x="2312" y="1285" type="curve"/>
      <point x="2372" y="1322"/>
      <point x="2456" y="1350"/>
      <point x="2522" y="1350" type="curve" smooth="yes"/>
      <point x="2620" y="1350"/>
      <point x="2668" y="1304"/>
      <point x="2668" y="1232" type="curve" smooth="yes"/>
      <point x="2668" y="1040"/>
      <point x="2369" y="807"/>
      <point x="2188" y="807" type="curve" smooth="yes"/>
      <point x="2129" y="807"/>
      <point x="2101" y="832"/>
      <point x="2101" y="870" type="curve" smooth="yes"/>
      <point x="2101" y="994"/>
      <point x="2314" y="1197"/>
      <point x="2523" y="1197" type="curve" smooth="yes"/>
      <point x="2541" y="1197"/>
      <point x="2555" y="1199"/>
      <point x="2555" y="1211" type="curve" smooth="yes"/>
      <point x="2555" y="1216"/>
      <point x="2547" y="1222"/>
      <point x="2532" y="1222" type="curve" smooth="yes" name="hr04"/>
      <point x="2283" y="1222"/>
      <point x="2069" y="1001"/>
      <point x="2069" y="872" type="curve" smooth="yes"/>
      <point x="2069" y="819"/>
      <point x="2111" y="779"/>
      <point x="2185" y="779" type="curve" smooth="yes"/>
      <point x="2464" y="779"/>
      <point x="2710" y="1034"/>
      <point x="2710" y="1230" type="curve" smooth="yes"/>
      <point x="2710" y="1303"/>
      <point x="2658" y="1378"/>
      <point x="2501" y="1378" type="curve" smooth="yes" name="hr05"/>
      <point x="2208" y="1378"/>
      <point x="1864" y="1085"/>
      <point x="1864" y="832" type="curve" smooth="yes"/>
      <point x="1864" y="800"/>
      <point x="1868" y="772"/>
      <point x="1875" y="747" type="curve"/>
      <point x="1858" y="748"/>
      <point x="1839" y="749"/>
      <point x="1819" y="749" type="curve" smooth="yes"/>
      <point x="1714" y="749"/>
      <point x="1613" y="722"/>
      <point x="1525" y="677" type="curve"/>
      <point x="1965" y="1248"/>
      <point x="2075" y="1370"/>
      <point x="2117" y="1383" type="curve"/>
      <point x="2133" y="1389"/>
      <point x="2137" y="1393"/>
      <point x="2137" y="1395" type="curve" smooth="yes"/>
      <point x="2137" y="1403"/>
      <point x="2132" y="1404"/>
      <point x="2119" y="1404" type="curve" smooth="yes"/>
      <point x="2085" y="1404"/>
      <point x="2022" y="1389"/>
      <point x="1924" y="1337" type="curve" smooth="yes"/>
      <point x="1776" y="1259"/>
      <point x="1573" y="1105"/>
      <point x="1073" y="620" type="curve" smooth="yes"/>
      <point x="1037" y="585"/>
      <point x="1003" y="552"/>
      <point x="971" y="522" type="curve"/>
      <point x="891" y="677"/>
      <point x="740" y="797"/>
      <point x="561" y="797" type="curve" smooth="yes"/>
      <point x="391" y="797"/>
      <point x="299" y="669"/>
      <point x="299" y="561" type="curve" smooth="yes"/>
      <point x="299" y="411"/>
      <point x="411" y="271"/>
      <point x="603" y="194" type="curve"/>
      <point x="576" y="172"/>
      <point x="549" y="152"/>
      <point x="522" y="132" type="curve"/>
      <point x="421" y="62"/>
      <point x="331" y="26"/>
      <point x="242" y="26" type="curve" smooth="yes"/>
      <point x="132" y="26"/>
      <point x="61" y="83"/>
      <point x="48" y="147" type="curve"/>
      <point x="56" y="143"/>
      <point x="65" y="142"/>
      <point x="71" y="142" type="curve" smooth="yes"/>
      <point x="104" y="142"/>
      <point x="125" y="161"/>
      <point x="125" y="189" type="curve" smooth="yes"/>
      <point x="125" y="217"/>
      <point x="99" y="242"/>
      <point x="67" y="242" type="curve" smooth="yes"/>
      <point x="27" y="242"/>
      <point x="0" y="212"/>
      <point x="0" y="172" type="curve" smooth="yes"/>
      <point x="0" y="93"/>
      <point x="83" y="-5"/>
      <point x="231" y="-5" type="curve" smooth="yes" name="hr01"/>
      <point x="319" y="-5"/>
      <point x="404" y="19"/>
      <point x="489" y="73" type="curve" smooth="yes"/>
      <point x="528" y="97"/>
      <point x="577" y="132"/>
      <point x="638" y="181" type="curve"/>
      <point x="728" y="150"/>
      <point x="835" y="132"/>
      <point x="954" y="132" type="curve"/>
      <point x="918" y="89"/>
      <point x="882" y="44"/>
      <point x="844" y="-1" type="curve"/>
      <point x="862" y="1"/>
      <point x="878" y="5"/>
      <point x="902" y="5" type="curve" smooth="yes"/>
      <point x="927" y="5"/>
      <point x="966" y="1"/>
      <point x="1007" y="-1" type="curve"/>
      <point x="1238" y="302" type="line"/>
      <point x="1236" y="286"/>
      <point x="1235" y="270"/>
      <point x="1235" y="254" type="curve" smooth="yes"/>
      <point x="1235" y="131"/>
      <point x="1330" y="22"/>
      <point x="1491" y="-3" type="curve"/>
      <point x="1488" y="-24"/>
      <point x="1488" y="-44"/>
      <point x="1488" y="-63" type="curve" smooth="yes"/>
      <point x="1488" y="-164"/>
      <point x="1518" y="-231"/>
      <point x="1566" y="-276" type="curve" smooth="yes"/>
      <point x="1580" y="-288"/>
      <point x="1586" y="-290"/>
    </contour>
    <contour>
      <point x="640" y="223" type="curve"/>
      <point x="473" y="290"/>
      <point x="369" y="408"/>
      <point x="369" y="549" type="curve" smooth="yes"/>
      <point x="369" y="674"/>
      <point x="435" y="763"/>
      <point x="572" y="763" type="curve" smooth="yes"/>
      <point x="719" y="763"/>
      <point x="870" y="656"/>
      <point x="948" y="499" type="curve"/>
      <point x="825" y="382"/>
      <point x="728" y="296"/>
    </contour>
    <contour>
      <point x="980" y="163" type="curve" smooth="yes"/>
      <point x="866" y="163"/>
      <point x="762" y="180"/>
      <point x="674" y="210" type="curve"/>
      <point x="751" y="274"/>
      <point x="845" y="359"/>
      <point x="962" y="469" type="curve"/>
      <point x="987" y="409"/>
      <point x="1001" y="344"/>
      <point x="1001" y="275" type="curve" smooth="yes"/>
      <point x="1001" y="247"/>
      <point x="995" y="203"/>
      <point x="981" y="164" type="curve"/>
      <point x="981" y="163"/>
      <point x="981" y="163"/>
    </contour>
    <contour>
      <point x="1567" y="19" type="curve" smooth="yes"/>
      <point x="1552" y="19"/>
      <point x="1537" y="19"/>
      <point x="1523" y="21" type="curve"/>
      <point x="1534" y="70"/>
      <point x="1554" y="124"/>
      <point x="1582" y="178" type="curve" smooth="yes"/>
      <point x="1675" y="357"/>
      <point x="1851" y="474"/>
      <point x="1951" y="474" type="curve" smooth="yes"/>
      <point x="2020" y="474"/>
      <point x="2046" y="453"/>
      <point x="2046" y="406" type="curve" smooth="yes"/>
      <point x="2046" y="295"/>
      <point x="1759" y="19"/>
    </contour>
    <contour>
      <point x="1030" y="222" type="curve"/>
      <point x="1033" y="239"/>
      <point x="1034" y="257"/>
      <point x="1034" y="275" type="curve" smooth="yes"/>
      <point x="1034" y="348"/>
      <point x="1017" y="422"/>
      <point x="986" y="491" type="curve"/>
      <point x="1029" y="532"/>
      <point x="1075" y="576"/>
      <point x="1124" y="624" type="curve" smooth="yes"/>
      <point x="1505" y="996"/>
      <point x="1734" y="1195"/>
      <point x="1896" y="1294" type="curve" smooth="yes"/>
      <point x="1955" y="1329"/>
      <point x="1995" y="1341"/>
      <point x="2035" y="1355" type="curve"/>
      <point x="1920" y="1241"/>
      <point x="1617" y="922"/>
    </contour>
    <contour>
      <point x="2037" y="642" type="curve" smooth="yes" name="hr06"/>
      <point x="1987" y="642"/>
      <point x="1955" y="662"/>
      <point x="1942" y="709" type="curve"/>
      <point x="2010" y="699"/>
      <point x="2050" y="672"/>
      <point x="2050" y="654" type="curve" smooth="yes"/>
      <point x="2050" y="645"/>
      <point x="2045" y="642"/>
    </contour>
  </outline>
</glyph>
<glyph name="Ccedilla" format="1">
  <advance width="1416"/>
  <unicode hex="00C7"/>
  <outline>
    <contour>
      <point x="148" y="-359" type="curve" smooth="yes"/>
      <point x="172" y="-359"/>
      <point x="253" y="-329"/>
      <point x="324" y="-279" type="curve" smooth="yes"/>
      <point x="374" y="-243"/>
      <point x="420" y="-196"/>
      <point x="420" y="-140" type="curve" smooth="yes"/>
      <point x="420" y="-96"/>
      <point x="385" y="-60"/>
      <point x="329" y="-60" type="curve" smooth="yes"/>
      <point x="316" y="-60"/>
      <point x="304" y="-62"/>
      <point x="294" y="-65" type="curve"/>
      <point x="338" y="1" type="line"/>
      <point x="709" y="36"/>
      <point x="994" y="376"/>
      <point x="994" y="593" type="curve" smooth="yes"/>
      <point x="994" y="677"/>
      <point x="933" y="733"/>
      <point x="821" y="733" type="curve" smooth="yes"/>
      <point x="598" y="733"/>
      <point x="383" y="540"/>
      <point x="286" y="288" type="curve" smooth="yes"/>
      <point x="276" y="262"/>
      <point x="295" y="247"/>
      <point x="301" y="262" type="curve" smooth="yes"/>
      <point x="396" y="522"/>
      <point x="634" y="706"/>
      <point x="810" y="706" type="curve" smooth="yes"/>
      <point x="873" y="706"/>
      <point x="902" y="683"/>
      <point x="902" y="628" type="curve" smooth="yes"/>
      <point x="902" y="440"/>
      <point x="556" y="24"/>
      <point x="286" y="24" type="curve" smooth="yes" name="hr02"/>
      <point x="163" y="24"/>
      <point x="82" y="87"/>
      <point x="82" y="213" type="curve" smooth="yes"/>
      <point x="82" y="351"/>
      <point x="212" y="552"/>
      <point x="391" y="748" type="curve"/>
      <point x="822" y="769"/>
      <point x="1416" y="1099"/>
      <point x="1416" y="1327" type="curve" smooth="yes"/>
      <point x="1416" y="1381"/>
      <point x="1373" y="1401"/>
      <point x="1316" y="1401" type="curve" smooth="yes"/>
      <point x="975" y="1401"/>
      <point x="518" y="1118"/>
      <point x="246" y="782" type="curve"/>
      <point x="115" y="811"/>
      <point x="43" y="894"/>
      <point x="43" y="979" type="curve" smooth="yes" name="hr03"/>
      <point x="43" y="1225"/>
      <point x="422" y="1446"/>
      <point x="688" y="1446" type="curve" smooth="yes"/>
      <point x="721" y="1446"/>
      <point x="746" y="1442"/>
      <point x="761" y="1442" type="curve" smooth="yes"/>
      <point x="769" y="1442"/>
      <point x="774" y="1444"/>
      <point x="774" y="1450" type="curve" smooth="yes"/>
      <point x="774" y="1460"/>
      <point x="737" y="1467"/>
      <point x="693" y="1467" type="curve" smooth="yes"/>
      <point x="328" y="1467"/>
      <point x="0" y="1219"/>
      <point x="0" y="1020" type="curve" smooth="yes"/>
      <point x="0" y="897"/>
      <point x="75" y="794"/>
      <point x="228" y="759" type="curve"/>
      <point x="98" y="592"/>
      <point x="15" y="414"/>
      <point x="15" y="251" type="curve" smooth="yes" name="hr01"/>
      <point x="15" y="84"/>
      <point x="131" y="-2"/>
      <point x="275" y="-2" type="curve" smooth="yes"/>
      <point x="284" y="-2"/>
      <point x="293" y="-2"/>
      <point x="303" y="-1" type="curve"/>
      <point x="218" y="-132" type="line"/>
      <point x="233" y="-127"/>
      <point x="245" y="-125"/>
      <point x="261" y="-125" type="curve" smooth="yes"/>
      <point x="309" y="-125"/>
      <point x="329" y="-143"/>
      <point x="329" y="-169" type="curve" smooth="yes"/>
      <point x="329" y="-242"/>
      <point x="267" y="-291"/>
      <point x="151" y="-328" type="curve" smooth="yes"/>
      <point x="134" y="-334"/>
      <point x="131" y="-340"/>
      <point x="131" y="-345" type="curve" smooth="yes"/>
      <point x="131" y="-357"/>
      <point x="138" y="-359"/>
    </contour>
    <contour>
      <point x="416" y="775" type="curve"/>
      <point x="708" y="1086"/>
      <point x="1116" y="1377"/>
      <point x="1314" y="1377" type="curve" smooth="yes"/>
      <point x="1361" y="1377"/>
      <point x="1392" y="1362"/>
      <point x="1392" y="1324" type="curve" smooth="yes"/>
      <point x="1392" y="1160"/>
      <point x="783" y="813"/>
    </contour>
  </outline>
</glyph>
<glyph name="Egrave" format="1">
  <advance width="1514"/>
  <unicode hex="00C8"/>
  <outline>
    <contour>
      <point x="384" y="-285" type="curve" smooth="yes"/>
      <point x="390" y="-285"/>
      <point x="396" y="-280"/>
      <point x="396" y="-276" type="curve" smooth="yes"/>
      <point x="396" y="-271"/>
      <point x="393" y="-269"/>
      <point x="386" y="-261" type="curve" smooth="yes"/>
      <point x="351" y="-222"/>
      <point x="329" y="-105"/>
      <point x="329" y="-31" type="curve" smooth="yes"/>
      <point x="329" y="-21"/>
      <point x="329" y="-11"/>
      <point x="330" y="-1" type="curve"/>
      <point x="342" y="-1"/>
      <point x="353" y="-2"/>
      <point x="366" y="-2" type="curve" smooth="yes" name="hr03"/>
      <point x="664" y="-2"/>
      <point x="898" y="158"/>
      <point x="898" y="367" type="curve" smooth="yes"/>
      <point x="898" y="441"/>
      <point x="825" y="505"/>
      <point x="742" y="505" type="curve" smooth="yes"/>
      <point x="523" y="505"/>
      <point x="324" y="267"/>
      <point x="302" y="27" type="curve"/>
      <point x="175" y="47"/>
      <point x="107" y="123"/>
      <point x="105" y="230" type="curve" smooth="yes"/>
      <point x="102" y="436"/>
      <point x="376" y="687"/>
      <point x="637" y="716" type="curve"/>
      <point x="695" y="654"/>
      <point x="775" y="617"/>
      <point x="834" y="617" type="curve" smooth="yes"/>
      <point x="867" y="617"/>
      <point x="886" y="626"/>
      <point x="886" y="649" type="curve" smooth="yes"/>
      <point x="885" y="690"/>
      <point x="816" y="734"/>
      <point x="686" y="748" type="curve"/>
      <point x="671" y="771"/>
      <point x="659" y="796"/>
      <point x="653" y="823" type="curve"/>
      <point x="704" y="816"/>
      <point x="758" y="813"/>
      <point x="817" y="813" type="curve" smooth="yes"/>
      <point x="1193" y="813"/>
      <point x="1514" y="977"/>
      <point x="1514" y="1183" type="curve" smooth="yes"/>
      <point x="1514" y="1320"/>
      <point x="1388" y="1401"/>
      <point x="1172" y="1401" type="curve" smooth="yes"/>
      <point x="894" y="1401"/>
      <point x="559" y="1199"/>
      <point x="563" y="887" type="curve" smooth="yes"/>
      <point x="563" y="879"/>
      <point x="563" y="871"/>
      <point x="564" y="864" type="curve"/>
      <point x="378" y="902"/>
      <point x="254" y="992"/>
      <point x="195" y="1126" type="curve" smooth="yes"/>
      <point x="188" y="1143"/>
      <point x="181" y="1150"/>
      <point x="174" y="1150" type="curve" smooth="yes"/>
      <point x="169" y="1150"/>
      <point x="166" y="1147"/>
      <point x="166" y="1138" type="curve" smooth="yes"/>
      <point x="166" y="1134"/>
      <point x="167" y="1122"/>
      <point x="172" y="1113" type="curve"/>
      <point x="229" y="985"/>
      <point x="361" y="882"/>
      <point x="569" y="837" type="curve"/>
      <point x="577" y="806"/>
      <point x="590" y="777"/>
      <point x="608" y="752" type="curve" name="hr02"/>
      <point x="602" y="752" type="line" smooth="yes"/>
      <point x="259" y="752"/>
      <point x="-5" y="521"/>
      <point x="1" y="262" type="curve"/>
      <point x="3" y="126"/>
      <point x="117" y="21"/>
      <point x="300" y="1" type="curve"/>
      <point x="300" y="-28" type="line"/>
      <point x="303" y="-105"/>
      <point x="321" y="-228"/>
      <point x="360" y="-271" type="curve" smooth="yes"/>
      <point x="372" y="-284"/>
      <point x="378" y="-285"/>
    </contour>
    <contour>
      <point x="372" y="22" type="curve" smooth="yes"/>
      <point x="358" y="22"/>
      <point x="344" y="23"/>
      <point x="331" y="24" type="curve"/>
      <point x="358" y="299"/>
      <point x="578" y="480"/>
      <point x="744" y="480" type="curve" smooth="yes"/>
      <point x="805" y="480"/>
      <point x="852" y="449"/>
      <point x="852" y="394" type="curve" smooth="yes"/>
      <point x="852" y="254"/>
      <point x="583" y="22"/>
    </contour>
    <contour>
      <point x="849" y="640" type="curve" smooth="yes" name="hr04"/>
      <point x="803" y="640"/>
      <point x="749" y="671"/>
      <point x="708" y="718" type="curve"/>
      <point x="796" y="712"/>
      <point x="864" y="674"/>
      <point x="865" y="652" type="curve" smooth="yes"/>
      <point x="865" y="644"/>
      <point x="859" y="640"/>
    </contour>
    <contour>
      <point x="799" y="842" type="curve" smooth="yes"/>
      <point x="746" y="842"/>
      <point x="696" y="844"/>
      <point x="649" y="850" type="curve"/>
      <point x="649" y="864" type="line" smooth="yes"/>
      <point x="649" y="1067"/>
      <point x="932" y="1376"/>
      <point x="1208" y="1376" type="curve" smooth="yes"/>
      <point x="1375" y="1376"/>
      <point x="1477" y="1304"/>
      <point x="1477" y="1213" type="curve" smooth="yes"/>
      <point x="1477" y="983"/>
      <point x="1098" y="842"/>
    </contour>
    <contour>
      <point x="1417" y="1459" type="curve" smooth="yes"/>
      <point x="1427" y="1459"/>
      <point x="1429" y="1471"/>
      <point x="1429" y="1471" type="curve"/>
      <point x="1429" y="1477"/>
      <point x="1421" y="1482"/>
      <point x="1404" y="1495" type="curve"/>
      <point x="1365" y="1516"/>
      <point x="1318" y="1552"/>
      <point x="1291" y="1595" type="curve"/>
      <point x="1273" y="1620"/>
      <point x="1261" y="1644"/>
      <point x="1251" y="1697" type="curve" smooth="yes"/>
      <point x="1243" y="1744"/>
      <point x="1227" y="1768"/>
      <point x="1196" y="1768" type="curve" smooth="yes"/>
      <point x="1171" y="1768"/>
      <point x="1153" y="1751"/>
      <point x="1153" y="1713" type="curve" smooth="yes"/>
      <point x="1153" y="1651"/>
      <point x="1252" y="1547"/>
      <point x="1365" y="1482" type="curve" smooth="yes" name="hr01"/>
      <point x="1391" y="1467"/>
      <point x="1406" y="1459"/>
    </contour>
  </outline>
</glyph>
<glyph name="Icircumflex" format="1">
  <advance width="2034"/>
  <unicode hex="00CE"/>
  <outline>
    <contour>
      <point x="227" y="-2" type="curve" smooth="yes"/>
      <point x="406" y="-2"/>
      <point x="636" y="127"/>
      <point x="851" y="337" type="curve"/>
      <point x="874" y="337" type="line" smooth="yes"/>
      <point x="1196" y="337"/>
      <point x="1578" y="634"/>
      <point x="1578" y="1017" type="curve" smooth="yes"/>
      <point x="1578" y="1048"/>
      <point x="1577" y="1066"/>
      <point x="1566" y="1066" type="curve" smooth="yes"/>
      <point x="1562" y="1066"/>
      <point x="1555" y="1067"/>
      <point x="1555" y="1036" type="curve" smooth="yes"/>
      <point x="1555" y="663"/>
      <point x="1168" y="365"/>
      <point x="886" y="365" type="curve" smooth="yes"/>
      <point x="878" y="365" type="line"/>
      <point x="967" y="455"/>
      <point x="1052" y="559"/>
      <point x="1131" y="673" type="curve" smooth="yes"/>
      <point x="1368" y="1017"/>
      <point x="1579" y="1229"/>
      <point x="1784" y="1320" type="curve"/>
      <point x="1814" y="1332"/>
      <point x="1839" y="1342"/>
      <point x="1878" y="1351" type="curve"/>
      <point x="1912" y="1351"/>
      <point x="1950" y="1349"/>
      <point x="2001" y="1352" type="curve" smooth="yes"/>
      <point x="2026" y="1353"/>
      <point x="2034" y="1362"/>
      <point x="2034" y="1371" type="curve" smooth="yes"/>
      <point x="2034" y="1379"/>
      <point x="2023" y="1385"/>
      <point x="1997" y="1385" type="curve" smooth="yes"/>
      <point x="1961" y="1385"/>
      <point x="1928" y="1378"/>
      <point x="1895" y="1378" type="curve" smooth="yes"/>
      <point x="1866" y="1378"/>
      <point x="1838" y="1383"/>
      <point x="1807" y="1385" type="curve"/>
      <point x="1779" y="1389"/>
      <point x="1751" y="1392"/>
      <point x="1720" y="1392" type="curve" smooth="yes"/>
      <point x="1113" y="1392"/>
      <point x="606" y="984"/>
      <point x="606" y="608" type="curve" smooth="yes"/>
      <point x="606" y="471"/>
      <point x="664" y="398"/>
      <point x="739" y="363" type="curve"/>
      <point x="524" y="106"/>
      <point x="379" y="24"/>
      <point x="225" y="24" type="curve" smooth="yes"/>
      <point x="114" y="24"/>
      <point x="48" y="75"/>
      <point x="42" y="139" type="curve" smooth="yes"/>
      <point x="42" y="145" type="line"/>
      <point x="55" y="138"/>
      <point x="72" y="138"/>
      <point x="89" y="140" type="curve"/>
      <point x="119" y="142"/>
      <point x="144" y="169"/>
      <point x="140" y="194" type="curve"/>
      <point x="137" y="227"/>
      <point x="107" y="237"/>
      <point x="85" y="235" type="curve" smooth="yes"/>
      <point x="44" y="231"/>
      <point x="-5" y="203"/>
      <point x="1" y="142" type="curve" smooth="yes"/>
      <point x="9" y="64"/>
      <point x="88" y="-2"/>
    </contour>
    <contour>
      <point x="757" y="384" type="curve"/>
      <point x="696" y="410"/>
      <point x="654" y="465"/>
      <point x="654" y="583" type="curve" smooth="yes"/>
      <point x="654" y="899"/>
      <point x="1309" y="1366"/>
      <point x="1722" y="1366" type="curve" smooth="yes"/>
      <point x="1749" y="1366"/>
      <point x="1793" y="1363"/>
      <point x="1827" y="1358" type="curve"/>
      <point x="1606" y="1316"/>
      <point x="1298" y="1117"/>
      <point x="916" y="592" type="curve" smooth="yes"/>
      <point x="859" y="513"/>
      <point x="806" y="444"/>
    </contour>
    <contour>
      <point x="1964" y="1436" type="curve" smooth="yes"/>
      <point x="1974" y="1436"/>
      <point x="1981" y="1446"/>
      <point x="1981" y="1450" type="curve" smooth="yes"/>
      <point x="1981" y="1456"/>
      <point x="1974" y="1460"/>
      <point x="1966" y="1472" type="curve"/>
      <point x="1946" y="1492"/>
      <point x="1933" y="1532"/>
      <point x="1933" y="1581" type="curve" smooth="yes"/>
      <point x="1933" y="1660"/>
      <point x="1947" y="1708"/>
      <point x="1958" y="1734" type="curve" smooth="yes"/>
      <point x="1963" y="1746"/>
      <point x="1964" y="1752"/>
      <point x="1964" y="1760" type="curve" smooth="yes"/>
      <point x="1964" y="1765"/>
      <point x="1960" y="1768"/>
      <point x="1956" y="1768" type="curve" smooth="yes"/>
      <point x="1945" y="1768"/>
      <point x="1935" y="1761"/>
      <point x="1897" y="1719" type="curve"/>
      <point x="1805" y="1632"/>
      <point x="1720" y="1565"/>
      <point x="1616" y="1487" type="curve" smooth="yes"/>
      <point x="1574" y="1455"/>
      <point x="1573" y="1450"/>
      <point x="1573" y="1442" type="curve" smooth="yes" name="hr00"/>
      <point x="1573" y="1438"/>
      <point x="1580" y="1438"/>
      <point x="1583" y="1438" type="curve" smooth="yes"/>
      <point x="1591" y="1438"/>
      <point x="1599" y="1442"/>
      <point x="1621" y="1456" type="curve" smooth="yes"/>
      <point x="1688" y="1499"/>
      <point x="1768" y="1550"/>
      <point x="1857" y="1619" type="curve"/>
      <point x="1859" y="1601"/>
      <point x="1862" y="1582"/>
      <point x="1868" y="1562" type="curve" smooth="yes"/>
      <point x="1891" y="1479"/>
      <point x="1942" y="1436"/>
    </contour>
  </outline>
</glyph>
<glyph name="Idieresis" format="1">
  <advance width="2067"/>
  <unicode hex="00CF"/>
  <outline>
    <contour>
      <point x="227" y="-2" type="curve" smooth="yes"/>
      <point x="406" y="-2"/>
      <point x="636" y="127"/>
      <point x="851" y="337" type="curve"/>
      <point x="874" y="337" type="line" smooth="yes"/>
      <point x="1196" y="337"/>
      <point x="1578" y="634"/>
      <point x="1578" y="1017" type="curve" smooth="yes"/>
      <point x="1578" y="1048"/>
      <point x="1577" y="1066"/>
      <point x="1566" y="1066" type="curve" smooth="yes"/>
      <point x="1562" y="1066"/>
      <point x="1555" y="1067"/>
      <point x="1555" y="1036" type="curve" smooth="yes"/>
      <point x="1555" y="663"/>
      <point x="1168" y="365"/>
      <point x="886" y="365" type="curve" smooth="yes"/>
      <point x="878" y="365" type="line"/>
      <point x="967" y="455"/>
      <point x="1052" y="559"/>
      <point x="1131" y="673" type="curve" smooth="yes"/>
      <point x="1368" y="1017"/>
      <point x="1579" y="1229"/>
      <point x="1784" y="1320" type="curve"/>
      <point x="1814" y="1332"/>
      <point x="1839" y="1342"/>
      <point x="1878" y="1351" type="curve"/>
      <point x="1912" y="1351"/>
      <point x="1950" y="1349"/>
      <point x="2001" y="1352" type="curve" smooth="yes"/>
      <point x="2026" y="1353"/>
      <point x="2034" y="1362"/>
      <point x="2034" y="1371" type="curve" smooth="yes"/>
      <point x="2034" y="1379"/>
      <point x="2023" y="1385"/>
      <point x="1997" y="1385" type="curve" smooth="yes"/>
      <point x="1961" y="1385"/>
      <point x="1928" y="1378"/>
      <point x="1895" y="1378" type="curve" smooth="yes"/>
      <point x="1866" y="1378"/>
      <point x="1838" y="1383"/>
      <point x="1807" y="1385" type="curve"/>
      <point x="1779" y="1389"/>
      <point x="1751" y="1392"/>
      <point x="1720" y="1392" type="curve" smooth="yes"/>
      <point x="1113" y="1392"/>
      <point x="606" y="984"/>
      <point x="606" y="608" type="curve" smooth="yes"/>
      <point x="606" y="471"/>
      <point x="664" y="398"/>
      <point x="739" y="363" type="curve"/>
      <point x="524" y="106"/>
      <point x="379" y="24"/>
      <point x="225" y="24" type="curve" smooth="yes"/>
      <point x="114" y="24"/>
      <point x="48" y="75"/>
      <point x="42" y="139" type="curve" smooth="yes"/>
      <point x="42" y="145" type="line"/>
      <point x="55" y="138"/>
      <point x="72" y="138"/>
      <point x="89" y="140" type="curve"/>
      <point x="119" y="142"/>
      <point x="144" y="169"/>
      <point x="140" y="194" type="curve"/>
      <point x="137" y="227"/>
      <point x="107" y="237"/>
      <point x="85" y="235" type="curve" smooth="yes"/>
      <point x="44" y="231"/>
      <point x="-5" y="203"/>
      <point x="1" y="142" type="curve" smooth="yes"/>
      <point x="9" y="64"/>
      <point x="88" y="-2"/>
    </contour>
    <contour>
      <point x="757" y="384" type="curve"/>
      <point x="696" y="410"/>
      <point x="654" y="465"/>
      <point x="654" y="583" type="curve" smooth="yes"/>
      <point x="654" y="899"/>
      <point x="1309" y="1366"/>
      <point x="1722" y="1366" type="curve" smooth="yes" name="hr02"/>
      <point x="1749" y="1366"/>
      <point x="1793" y="1363"/>
      <point x="1827" y="1358" type="curve"/>
      <point x="1606" y="1316"/>
      <point x="1298" y="1117"/>
      <point x="916" y="592" type="curve" smooth="yes"/>
      <point x="859" y="513"/>
      <point x="806" y="444"/>
    </contour>
    <contour>
      <point x="1667" y="1468" type="curve" smooth="yes"/>
      <point x="1716" y="1468"/>
      <point x="1766" y="1513"/>
      <point x="1766" y="1562" type="curve" smooth="yes"/>
      <point x="1766" y="1598"/>
      <point x="1743" y="1624"/>
      <point x="1706" y="1624" type="curve" smooth="yes"/>
      <point x="1651" y="1624"/>
      <point x="1606" y="1578"/>
      <point x="1606" y="1531" type="curve" smooth="yes"/>
      <point x="1606" y="1496"/>
      <point x="1630" y="1468"/>
    </contour>
    <contour>
      <point x="1966" y="1468" type="curve" smooth="yes"/>
      <point x="2015" y="1468"/>
      <point x="2067" y="1513"/>
      <point x="2067" y="1562" type="curve" smooth="yes"/>
      <point x="2067" y="1598"/>
      <point x="2042" y="1624"/>
      <point x="2005" y="1624" type="curve" smooth="yes"/>
      <point x="1950" y="1624"/>
      <point x="1905" y="1578"/>
      <point x="1905" y="1531" type="curve" smooth="yes" name="hr01"/>
      <point x="1905" y="1496"/>
      <point x="1929" y="1468"/>
    </contour>
  </outline>
</glyph>
<glyph name="Ograve" format="1">
  <advance width="1463"/>
  <unicode hex="00D2"/>
  <outline>
    <contour>
      <point x="282" y="-2" type="curve" smooth="yes"/>
      <point x="739" y="-2"/>
      <point x="1236" y="520"/>
      <point x="1236" y="899" type="curve" smooth="yes"/>
      <point x="1236" y="1053"/>
      <point x="1134" y="1121"/>
      <point x="1027" y="1121" type="curve" smooth="yes"/>
      <point x="721" y="1121"/>
      <point x="401" y="789"/>
      <point x="401" y="408" type="curve" smooth="yes"/>
      <point x="401" y="328"/>
      <point x="429" y="247"/>
      <point x="454" y="215" type="curve" smooth="yes"/>
      <point x="463" y="203"/>
      <point x="471" y="194"/>
      <point x="477" y="197" type="curve" smooth="yes"/>
      <point x="486" y="202"/>
      <point x="479" y="211"/>
      <point x="477" y="215" type="curve" smooth="yes"/>
      <point x="441" y="268"/>
      <point x="431" y="344"/>
      <point x="431" y="396" type="curve" smooth="yes"/>
      <point x="431" y="767"/>
      <point x="763" y="1093"/>
      <point x="1017" y="1093" type="curve" smooth="yes"/>
      <point x="1122" y="1093"/>
      <point x="1187" y="1040"/>
      <point x="1187" y="925" type="curve" smooth="yes"/>
      <point x="1187" y="538"/>
      <point x="654" y="23"/>
      <point x="294" y="23" type="curve" smooth="yes"/>
      <point x="146" y="23"/>
      <point x="73" y="112"/>
      <point x="73" y="237" type="curve" smooth="yes"/>
      <point x="73" y="644"/>
      <point x="748" y="1373"/>
      <point x="1181" y="1373" type="curve" smooth="yes"/>
      <point x="1359" y="1373"/>
      <point x="1435" y="1297"/>
      <point x="1435" y="1188" type="curve" smooth="yes"/>
      <point x="1435" y="1129"/>
      <point x="1411" y="1052"/>
      <point x="1394" y="1031" type="curve" smooth="yes"/>
      <point x="1386" y="1020"/>
      <point x="1384" y="1017"/>
      <point x="1384" y="1013" type="curve" smooth="yes"/>
      <point x="1384" y="1005"/>
      <point x="1386" y="1003"/>
      <point x="1392" y="1003" type="curve" smooth="yes"/>
      <point x="1399" y="1003"/>
      <point x="1407" y="1013"/>
      <point x="1418" y="1027" type="curve"/>
      <point x="1439" y="1058"/>
      <point x="1463" y="1140"/>
      <point x="1463" y="1190" type="curve" smooth="yes"/>
      <point x="1463" y="1312"/>
      <point x="1379" y="1401"/>
      <point x="1192" y="1401" type="curve" smooth="yes" name="hr02"/>
      <point x="640" y="1401"/>
      <point x="0" y="799"/>
      <point x="0" y="301" type="curve" smooth="yes"/>
      <point x="0" y="95"/>
      <point x="127" y="-2"/>
    </contour>
    <contour>
      <point x="1128" y="1459" type="curve" smooth="yes"/>
      <point x="1138" y="1459"/>
      <point x="1140" y="1471"/>
      <point x="1140" y="1471" type="curve"/>
      <point x="1140" y="1477"/>
      <point x="1132" y="1482"/>
      <point x="1115" y="1495" type="curve"/>
      <point x="1076" y="1516"/>
      <point x="1029" y="1552"/>
      <point x="1002" y="1595" type="curve"/>
      <point x="984" y="1620"/>
      <point x="972" y="1644"/>
      <point x="962" y="1697" type="curve" smooth="yes"/>
      <point x="954" y="1744"/>
      <point x="938" y="1768"/>
      <point x="907" y="1768" type="curve" smooth="yes"/>
      <point x="882" y="1768"/>
      <point x="864" y="1751"/>
      <point x="864" y="1713" type="curve" smooth="yes"/>
      <point x="864" y="1651"/>
      <point x="963" y="1547"/>
      <point x="1076" y="1482" type="curve" smooth="yes" name="hr01"/>
      <point x="1102" y="1467"/>
      <point x="1117" y="1459"/>
    </contour>
  </outline>
</glyph>
